  0
SECTION
  2
HEADER
  9
$ACADVER
  1
AC1009
  9
$FILLMODE
 70
1
  9
$EXTMIN
 10
-4.7752
 20
-3.2512
 30
0.0000
  9
$EXTMAX
 10
110.5320
 20
144.9832
 30
0.0000
  0
ENDSEC
  0
SECTION
  2
TABLES
  0
TABLE
  2
LTYPE
 70
1
  0
LTYPE
  2
CONTINUOUS
 70
64
  3
Solid line
 72
65
 73
0
 40
0
  0
ENDTAB
  0
TABLE
  2
LAYER
 70
255
  0
LAYER
  2
19
 70
64
 62
54
  6
CONTINUOUS
  0
LAYER
  2
20
 70
64
 62
178
  6
CONTINUOUS
  0
LAYER
  2
22
 70
64
 62
250
  6
CONTINUOUS
  0
LAYER
  2
23
 70
64
 62
178
  6
CONTINUOUS
  0
LAYER
  2
24
 70
64
 62
178
  6
CONTINUOUS
  0
LAYER
  2
39
 70
64
 62
14
  6
CONTINUOUS
  0
LAYER
  2
40
 70
64
 62
174
  6
CONTINUOUS
  0
LAYER
  2
41
 70
64
 62
14
  6
CONTINUOUS
  0
LAYER
  2
42
 70
64
 62
174
  6
CONTINUOUS
  0
LAYER
  2
43
 70
64
 62
94
  6
CONTINUOUS
  0
LAYER
  2
45
 70
64
 62
250
  6
CONTINUOUS
  0
LAYER
  2
48
 70
64
 62
250
  6
CONTINUOUS
  0
LAYER
  2
49
 70
64
 62
250
  6
CONTINUOUS
  0
LAYER
  2
104
 70
64
 62
32
  6
CONTINUOUS
  0
LAYER
  2
105
 70
64
 62
250
  6
CONTINUOUS
  0
LAYER
  2
108
 70
64
 62
3
  6
CONTINUOUS
  0
LAYER
  2
109
 70
64
 62
4
  6
CONTINUOUS
  0
LAYER
  2
110
 70
64
 62
250
  6
CONTINUOUS
  0
LAYER
  2
111
 70
64
 62
250
  6
CONTINUOUS
  0
LAYER
  2
112
 70
64
 62
250
  6
CONTINUOUS
  0
LAYER
  2
113
 70
64
 62
250
  6
CONTINUOUS
  0
LAYER
  2
114
 70
64
 62
250
  6
CONTINUOUS
  0
LAYER
  2
115
 70
64
 62
250
  6
CONTINUOUS
  0
LAYER
  2
117
 70
64
 62
250
  6
CONTINUOUS
  0
LAYER
  2
118
 70
64
 62
250
  6
CONTINUOUS
  0
LAYER
  2
119
 70
64
 62
250
  6
CONTINUOUS
  0
LAYER
  2
120
 70
64
 62
250
  6
CONTINUOUS
  0
LAYER
  2
123
 70
64
 62
250
  6
CONTINUOUS
  0
LAYER
  2
124
 70
64
 62
250
  6
CONTINUOUS
  0
LAYER
  2
125
 70
64
 62
250
  6
CONTINUOUS
  0
LAYER
  2
126
 70
64
 62
250
  6
CONTINUOUS
  0
LAYER
  2
127
 70
64
 62
250
  6
CONTINUOUS
  0
LAYER
  2
128
 70
64
 62
250
  6
CONTINUOUS
  0
LAYER
  2
129
 70
64
 62
250
  6
CONTINUOUS
  0
LAYER
  2
130
 70
64
 62
250
  6
CONTINUOUS
  0
LAYER
  2
131
 70
64
 62
250
  6
CONTINUOUS
  0
LAYER
  2
132
 70
64
 62
250
  6
CONTINUOUS
  0
LAYER
  2
133
 70
64
 62
250
  6
CONTINUOUS
  0
LAYER
  2
134
 70
64
 62
250
  6
CONTINUOUS
  0
LAYER
  2
135
 70
64
 62
250
  6
CONTINUOUS
  0
LAYER
  2
136
 70
64
 62
250
  6
CONTINUOUS
  0
LAYER
  2
137
 70
64
 62
250
  6
CONTINUOUS
  0
LAYER
  2
138
 70
64
 62
250
  6
CONTINUOUS
  0
LAYER
  2
139
 70
64
 62
250
  6
CONTINUOUS
  0
LAYER
  2
140
 70
64
 62
250
  6
CONTINUOUS
  0
LAYER
  2
141
 70
64
 62
250
  6
CONTINUOUS
  0
LAYER
  2
142
 70
64
 62
250
  6
CONTINUOUS
  0
LAYER
  2
143
 70
64
 62
250
  6
CONTINUOUS
  0
LAYER
  2
145
 70
64
 62
250
  6
CONTINUOUS
  0
LAYER
  2
146
 70
64
 62
250
  6
CONTINUOUS
  0
LAYER
  2
147
 70
64
 62
250
  6
CONTINUOUS
  0
LAYER
  2
148
 70
64
 62
250
  6
CONTINUOUS
  0
LAYER
  2
149
 70
64
 62
250
  6
CONTINUOUS
  0
LAYER
  2
150
 70
64
 62
250
  6
CONTINUOUS
  0
LAYER
  2
152
 70
64
 62
250
  6
CONTINUOUS
  0
LAYER
  2
153
 70
64
 62
250
  6
CONTINUOUS
  0
LAYER
  2
154
 70
64
 62
250
  6
CONTINUOUS
  0
LAYER
  2
155
 70
64
 62
250
  6
CONTINUOUS
  0
LAYER
  2
191
 70
64
 62
250
  6
CONTINUOUS
  0
LAYER
  2
192
 70
64
 62
250
  6
CONTINUOUS
  0
LAYER
  2
193
 70
64
 62
250
  6
CONTINUOUS
  0
LAYER
  2
194
 70
64
 62
250
  6
CONTINUOUS
  0
LAYER
  2
195
 70
64
 62
250
  6
CONTINUOUS
  0
LAYER
  2
196
 70
64
 62
250
  6
CONTINUOUS
  0
LAYER
  2
199
 70
64
 62
250
  6
CONTINUOUS
  0
LAYER
  2
200
 70
64
 62
174
  6
CONTINUOUS
  0
LAYER
  2
225
 70
64
 62
250
  6
CONTINUOUS
  0
LAYER
  2
226
 70
64
 62
250
  6
CONTINUOUS
  0
LAYER
  2
227
 70
64
 62
250
  6
CONTINUOUS
  0
LAYER
  2
228
 70
64
 62
250
  6
CONTINUOUS
  0
LAYER
  2
229
 70
64
 62
250
  6
CONTINUOUS
  0
LAYER
  2
230
 70
64
 62
250
  6
CONTINUOUS
  0
LAYER
  2
231
 70
64
 62
250
  6
CONTINUOUS
  0
LAYER
  2
232
 70
64
 62
250
  6
CONTINUOUS
  0
LAYER
  2
233
 70
64
 62
250
  6
CONTINUOUS
  0
LAYER
  2
248
 70
64
 62
250
  6
CONTINUOUS
  0
LAYER
  2
249
 70
64
 62
250
  6
CONTINUOUS
  0
LAYER
  2
255
 70
64
 62
250
  6
CONTINUOUS
  0
ENDTAB
  0
ENDSEC
  0
SECTION
  2
BLOCKS
  0
BLOCK
  8
0
  2
RECT
 70
64
 10
0.0000
 20
0.0000
 30
0.0000
  3
RECT
  0
SOLID
  8
0
 10
-0.5000
 20
-0.5000
 30
0.0000
 11
0.5000
 21
-0.5000
 31
0.0000
 12
-0.5000
 22
0.5000
 32
0.0000
 13
0.5000
 23
0.5000
 33
0.0000
  0
ENDBLK
  8
0
  0
BLOCK
  8
0
  2
PIE
 70
64
 10
0.0000
 20
0.0000
 30
0.0000
  3
PIE
  0
POLYLINE
  8
0
 66
1
 10
0.0000
 20
0.0000
 30
0.0000
 40
0.5000
 41
0.5000
 70
0
  0
VERTEX
  8
0
 10
0.0000
 20
-0.2500
 30
0.0000
 42
1.0000
  0
VERTEX
  8
0
 10
0.0000
 20
0.2500
 30
0.0000
 42
1.0000
  0
VERTEX
  8
0
 10
0.0000
 20
-0.2500
 30
0.0000
  0
SEQEND
  8
0
  0
ENDBLK
  8
0
  0
BLOCK
  8
0
  2
OCTAGONP
 70
64
 10
0.0000
 20
0.0000
 30
0.0000
  3
OCTAGONP
  0
POLYLINE
  8
0
 66
1
 10
0.0000
 20
0.0000
 30
0.0000
 40
0.5000
 41
0.5000
 70
0
  0
VERTEX
  8
0
 10
-0.2500
 20
-0.1036
 30
0.0000
  0
VERTEX
  8
0
 10
-0.2500
 20
0.1036
 30
0.0000
  0
VERTEX
  8
0
 10
-0.1036
 20
0.2500
 30
0.0000
  0
VERTEX
  8
0
 10
0.1036
 20
0.2500
 30
0.0000
  0
VERTEX
  8
0
 10
0.2500
 20
0.1036
 30
0.0000
  0
VERTEX
  8
0
 10
0.2500
 20
-0.1036
 30
0.0000
  0
VERTEX
  8
0
 10
0.1036
 20
-0.2500
 30
0.0000
  0
VERTEX
  8
0
 10
-0.1036
 20
-0.2500
 30
0.0000
  0
VERTEX
  8
0
 10
-0.2500
 20
-0.1036
 30
0.0000
  0
VERTEX
  8
0
 10
-0.2500
 20
0.1036
 30
0.0000
  0
SEQEND
  8
0
  0
ENDBLK
  8
0
  0
BLOCK
  8
0
  2
SQUAREP
 70
64
 10
0.0000
 20
0.0000
 30
0.0000
  3
SQUAREP
  0
SOLID
  8
0
 10
-0.5000
 20
-0.5000
 30
0.0000
 11
0.5000
 21
-0.5000
 31
0.0000
 12
-0.5000
 22
0.5000
 32
0.0000
 13
0.5000
 23
0.5000
 33
0.0000
  0
ENDBLK
  8
0
  0
BLOCK
  8
0
  2
ROUNDP
 70
64
 10
0.0000
 20
0.0000
 30
0.0000
  3
ROUNDP
  0
POLYLINE
  8
0
 66
1
 10
0.0000
 20
0.0000
 30
0.0000
 40
0.5000
 41
0.5000
 70
0
  0
VERTEX
  8
0
 10
0.0000
 20
-0.2500
 30
0.0000
 42
1.0000
  0
VERTEX
  8
0
 10
0.0000
 20
0.2500
 30
0.0000
 42
1.0000
  0
VERTEX
  8
0
 10
0.0000
 20
-0.2500
 30
0.0000
  0
SEQEND
  8
0
  0
ENDBLK
  8
0
  0
BLOCK
  8
0
  2
ANNULUSP
 70
64
 10
0.0000
 20
0.0000
 30
0.0000
  3
ANNULUSP
  0
POLYLINE
  8
0
 66
1
 10
0.0000
 20
0.0000
 30
0.0000
 40
0.5000
 41
0.5000
 70
0
  0
VERTEX
  8
0
 10
0.0000
 20
-0.2500
 30
0.0000
 42
1.0000
  0
VERTEX
  8
0
 10
0.0000
 20
0.2500
 30
0.0000
 42
1.0000
  0
VERTEX
  8
0
 10
0.0000
 20
-0.2500
 30
0.0000
  0
SEQEND
  8
0
  0
ENDBLK
  8
0
  0
BLOCK
  8
0
  2
THERMALP
 70
64
 10
0.0000
 20
0.0000
 30
0.0000
  3
THERMALP
  0
POLYLINE
  8
0
 66
1
 10
0.0000
 20
0.0000
 30
0.0000
 40
0.1000
 41
0.1000
 70
0
  0
VERTEX
  8
0
 10
-0.2379
 20
0.4500
 30
0.0000
  0
VERTEX
  8
0
 10
0.2379
 20
0.4500
 30
0.0000
  0
SEQEND
  8
0
  0
POLYLINE
  8
0
 66
1
 10
0.0000
 20
0.0000
 30
0.0000
 40
0.0500
 41
0.0500
 70
0
  0
VERTEX
  8
0
 10
0.2379
 20
0.4250
 30
0.0000
 42
1.0000
  0
VERTEX
  8
0
 10
0.2379
 20
0.4750
 30
0.0000
  0
SEQEND
  8
0
  0
POLYLINE
  8
0
 66
1
 10
0.0000
 20
0.0000
 30
0.0000
 40
0.0500
 41
0.0500
 70
0
  0
VERTEX
  8
0
 10
-0.2379
 20
0.4750
 30
0.0000
 42
1.0000
  0
VERTEX
  8
0
 10
-0.2379
 20
0.4250
 30
0.0000
  0
SEQEND
  8
0
  0
POLYLINE
  8
0
 66
1
 10
0.0000
 20
0.0000
 30
0.0000
 40
0.1000
 41
0.1000
 70
0
  0
VERTEX
  8
0
 10
0.4500
 20
0.2379
 30
0.0000
  0
VERTEX
  8
0
 10
0.4500
 20
-0.2379
 30
0.0000
  0
SEQEND
  8
0
  0
POLYLINE
  8
0
 66
1
 10
0.0000
 20
0.0000
 30
0.0000
 40
0.0500
 41
0.0500
 70
0
  0
VERTEX
  8
0
 10
0.4250
 20
-0.2379
 30
0.0000
 42
1.0000
  0
VERTEX
  8
0
 10
0.4750
 20
-0.2379
 30
0.0000
  0
SEQEND
  8
0
  0
POLYLINE
  8
0
 66
1
 10
0.0000
 20
0.0000
 30
0.0000
 40
0.0500
 41
0.0500
 70
0
  0
VERTEX
  8
0
 10
0.4750
 20
0.2379
 30
0.0000
 42
1.0000
  0
VERTEX
  8
0
 10
0.4250
 20
0.2379
 30
0.0000
  0
SEQEND
  8
0
  0
POLYLINE
  8
0
 66
1
 10
0.0000
 20
0.0000
 30
0.0000
 40
0.1000
 41
0.1000
 70
0
  0
VERTEX
  8
0
 10
0.2379
 20
-0.4500
 30
0.0000
  0
VERTEX
  8
0
 10
-0.2379
 20
-0.4500
 30
0.0000
  0
SEQEND
  8
0
  0
POLYLINE
  8
0
 66
1
 10
0.0000
 20
0.0000
 30
0.0000
 40
0.0500
 41
0.0500
 70
0
  0
VERTEX
  8
0
 10
-0.2379
 20
-0.4250
 30
0.0000
 42
1.0000
  0
VERTEX
  8
0
 10
-0.2379
 20
-0.4750
 30
0.0000
  0
SEQEND
  8
0
  0
POLYLINE
  8
0
 66
1
 10
0.0000
 20
0.0000
 30
0.0000
 40
0.0500
 41
0.0500
 70
0
  0
VERTEX
  8
0
 10
0.2379
 20
-0.4750
 30
0.0000
 42
1.0000
  0
VERTEX
  8
0
 10
0.2379
 20
-0.4250
 30
0.0000
  0
SEQEND
  8
0
  0
POLYLINE
  8
0
 66
1
 10
0.0000
 20
0.0000
 30
0.0000
 40
0.1000
 41
0.1000
 70
0
  0
VERTEX
  8
0
 10
-0.4500
 20
-0.2379
 30
0.0000
  0
VERTEX
  8
0
 10
-0.4500
 20
0.2379
 30
0.0000
  0
SEQEND
  8
0
  0
POLYLINE
  8
0
 66
1
 10
0.0000
 20
0.0000
 30
0.0000
 40
0.0500
 41
0.0500
 70
0
  0
VERTEX
  8
0
 10
-0.4250
 20
0.2379
 30
0.0000
 42
1.0000
  0
VERTEX
  8
0
 10
-0.4750
 20
0.2379
 30
0.0000
  0
SEQEND
  8
0
  0
POLYLINE
  8
0
 66
1
 10
0.0000
 20
0.0000
 30
0.0000
 40
0.0500
 41
0.0500
 70
0
  0
VERTEX
  8
0
 10
-0.4750
 20
-0.2379
 30
0.0000
 42
1.0000
  0
VERTEX
  8
0
 10
-0.4250
 20
-0.2379
 30
0.0000
  0
SEQEND
  8
0
  0
ENDBLK
  8
0
  0
BLOCK
  8
0
  2
OCTAGONV
 70
64
 10
0.0000
 20
0.0000
 30
0.0000
  3
OCTAGONV
  0
POLYLINE
  8
0
 66
1
 10
0.0000
 20
0.0000
 30
0.0000
 40
0.5000
 41
0.5000
 70
0
  0
VERTEX
  8
0
 10
-0.2500
 20
-0.1036
 30
0.0000
  0
VERTEX
  8
0
 10
-0.2500
 20
0.1036
 30
0.0000
  0
VERTEX
  8
0
 10
-0.1036
 20
0.2500
 30
0.0000
  0
VERTEX
  8
0
 10
0.1036
 20
0.2500
 30
0.0000
  0
VERTEX
  8
0
 10
0.2500
 20
0.1036
 30
0.0000
  0
VERTEX
  8
0
 10
0.2500
 20
-0.1036
 30
0.0000
  0
VERTEX
  8
0
 10
0.1036
 20
-0.2500
 30
0.0000
  0
VERTEX
  8
0
 10
-0.1036
 20
-0.2500
 30
0.0000
  0
VERTEX
  8
0
 10
-0.2500
 20
-0.1036
 30
0.0000
  0
VERTEX
  8
0
 10
-0.2500
 20
0.1036
 30
0.0000
  0
SEQEND
  8
0
  0
ENDBLK
  8
0
  0
BLOCK
  8
0
  2
SQUAREV
 70
64
 10
0.0000
 20
0.0000
 30
0.0000
  3
SQUAREV
  0
SOLID
  8
0
 10
-0.5000
 20
-0.5000
 30
0.0000
 11
0.5000
 21
-0.5000
 31
0.0000
 12
-0.5000
 22
0.5000
 32
0.0000
 13
0.5000
 23
0.5000
 33
0.0000
  0
ENDBLK
  8
0
  0
BLOCK
  8
0
  2
ROUNDV
 70
64
 10
0.0000
 20
0.0000
 30
0.0000
  3
ROUNDV
  0
POLYLINE
  8
0
 66
1
 10
0.0000
 20
0.0000
 30
0.0000
 40
0.5000
 41
0.5000
 70
0
  0
VERTEX
  8
0
 10
0.0000
 20
-0.2500
 30
0.0000
 42
1.0000
  0
VERTEX
  8
0
 10
0.0000
 20
0.2500
 30
0.0000
 42
1.0000
  0
VERTEX
  8
0
 10
0.0000
 20
-0.2500
 30
0.0000
  0
SEQEND
  8
0
  0
ENDBLK
  8
0
  0
BLOCK
  8
0
  2
ANNULUSV
 70
64
 10
0.0000
 20
0.0000
 30
0.0000
  3
ANNULUSV
  0
POLYLINE
  8
0
 66
1
 10
0.0000
 20
0.0000
 30
0.0000
 40
0.5000
 41
0.5000
 70
0
  0
VERTEX
  8
0
 10
0.0000
 20
-0.2500
 30
0.0000
 42
1.0000
  0
VERTEX
  8
0
 10
0.0000
 20
0.2500
 30
0.0000
 42
1.0000
  0
VERTEX
  8
0
 10
0.0000
 20
-0.2500
 30
0.0000
  0
SEQEND
  8
0
  0
ENDBLK
  8
0
  0
BLOCK
  8
0
  2
THERMALV
 70
64
 10
0.0000
 20
0.0000
 30
0.0000
  3
THERMALV
  0
POLYLINE
  8
0
 66
1
 10
0.0000
 20
0.0000
 30
0.0000
 40
0.1000
 41
0.1000
 70
0
  0
VERTEX
  8
0
 10
-0.2379
 20
0.4500
 30
0.0000
  0
VERTEX
  8
0
 10
0.2379
 20
0.4500
 30
0.0000
  0
SEQEND
  8
0
  0
POLYLINE
  8
0
 66
1
 10
0.0000
 20
0.0000
 30
0.0000
 40
0.0500
 41
0.0500
 70
0
  0
VERTEX
  8
0
 10
0.2379
 20
0.4250
 30
0.0000
 42
1.0000
  0
VERTEX
  8
0
 10
0.2379
 20
0.4750
 30
0.0000
  0
SEQEND
  8
0
  0
POLYLINE
  8
0
 66
1
 10
0.0000
 20
0.0000
 30
0.0000
 40
0.0500
 41
0.0500
 70
0
  0
VERTEX
  8
0
 10
-0.2379
 20
0.4750
 30
0.0000
 42
1.0000
  0
VERTEX
  8
0
 10
-0.2379
 20
0.4250
 30
0.0000
  0
SEQEND
  8
0
  0
POLYLINE
  8
0
 66
1
 10
0.0000
 20
0.0000
 30
0.0000
 40
0.1000
 41
0.1000
 70
0
  0
VERTEX
  8
0
 10
0.4500
 20
0.2379
 30
0.0000
  0
VERTEX
  8
0
 10
0.4500
 20
-0.2379
 30
0.0000
  0
SEQEND
  8
0
  0
POLYLINE
  8
0
 66
1
 10
0.0000
 20
0.0000
 30
0.0000
 40
0.0500
 41
0.0500
 70
0
  0
VERTEX
  8
0
 10
0.4250
 20
-0.2379
 30
0.0000
 42
1.0000
  0
VERTEX
  8
0
 10
0.4750
 20
-0.2379
 30
0.0000
  0
SEQEND
  8
0
  0
POLYLINE
  8
0
 66
1
 10
0.0000
 20
0.0000
 30
0.0000
 40
0.0500
 41
0.0500
 70
0
  0
VERTEX
  8
0
 10
0.4750
 20
0.2379
 30
0.0000
 42
1.0000
  0
VERTEX
  8
0
 10
0.4250
 20
0.2379
 30
0.0000
  0
SEQEND
  8
0
  0
POLYLINE
  8
0
 66
1
 10
0.0000
 20
0.0000
 30
0.0000
 40
0.1000
 41
0.1000
 70
0
  0
VERTEX
  8
0
 10
0.2379
 20
-0.4500
 30
0.0000
  0
VERTEX
  8
0
 10
-0.2379
 20
-0.4500
 30
0.0000
  0
SEQEND
  8
0
  0
POLYLINE
  8
0
 66
1
 10
0.0000
 20
0.0000
 30
0.0000
 40
0.0500
 41
0.0500
 70
0
  0
VERTEX
  8
0
 10
-0.2379
 20
-0.4250
 30
0.0000
 42
1.0000
  0
VERTEX
  8
0
 10
-0.2379
 20
-0.4750
 30
0.0000
  0
SEQEND
  8
0
  0
POLYLINE
  8
0
 66
1
 10
0.0000
 20
0.0000
 30
0.0000
 40
0.0500
 41
0.0500
 70
0
  0
VERTEX
  8
0
 10
0.2379
 20
-0.4750
 30
0.0000
 42
1.0000
  0
VERTEX
  8
0
 10
0.2379
 20
-0.4250
 30
0.0000
  0
SEQEND
  8
0
  0
POLYLINE
  8
0
 66
1
 10
0.0000
 20
0.0000
 30
0.0000
 40
0.1000
 41
0.1000
 70
0
  0
VERTEX
  8
0
 10
-0.4500
 20
-0.2379
 30
0.0000
  0
VERTEX
  8
0
 10
-0.4500
 20
0.2379
 30
0.0000
  0
SEQEND
  8
0
  0
POLYLINE
  8
0
 66
1
 10
0.0000
 20
0.0000
 30
0.0000
 40
0.0500
 41
0.0500
 70
0
  0
VERTEX
  8
0
 10
-0.4250
 20
0.2379
 30
0.0000
 42
1.0000
  0
VERTEX
  8
0
 10
-0.4750
 20
0.2379
 30
0.0000
  0
SEQEND
  8
0
  0
POLYLINE
  8
0
 66
1
 10
0.0000
 20
0.0000
 30
0.0000
 40
0.0500
 41
0.0500
 70
0
  0
VERTEX
  8
0
 10
-0.4750
 20
-0.2379
 30
0.0000
 42
1.0000
  0
VERTEX
  8
0
 10
-0.4250
 20
-0.2379
 30
0.0000
  0
SEQEND
  8
0
  0
ENDBLK
  8
0
  0
BLOCK
  8
0
  2
LONGP100
 70
64
 10
0.0000
 20
0.0000
 30
0.0000
  3
LONGP100
  0
POLYLINE
  8
0
 66
1
 10
0.0000
 20
0.0000
 30
0.0000
 40
1.0000
 41
1.0000
 70
0
  0
VERTEX
  8
0
 10
-0.5000
 20
0.0000
 30
0.0000
  0
VERTEX
  8
0
 10
0.5000
 20
0.0000
 30
0.0000
  0
SEQEND
  8
0
  0
POLYLINE
  8
0
 66
1
 10
0.0000
 20
0.0000
 30
0.0000
 40
0.5000
 41
0.5000
 70
0
  0
VERTEX
  8
0
 10
0.5000
 20
-0.2500
 30
0.0000
 42
1.0000
  0
VERTEX
  8
0
 10
0.5000
 20
0.2500
 30
0.0000
  0
SEQEND
  8
0
  0
POLYLINE
  8
0
 66
1
 10
0.0000
 20
0.0000
 30
0.0000
 40
0.5000
 41
0.5000
 70
0
  0
VERTEX
  8
0
 10
-0.5000
 20
0.2500
 30
0.0000
 42
1.0000
  0
VERTEX
  8
0
 10
-0.5000
 20
-0.2500
 30
0.0000
  0
SEQEND
  8
0
  0
ENDBLK
  8
0
  0
ENDSEC
  0
SECTION
  2
ENTITIES
  0
LINE
  8
20
 10
0.0000
 20
0.0000
 30
0.0000
 11
107.1680
 21
0.0000
 31
0.0000
  0
LINE
  8
20
 10
107.1680
 20
0.0000
 30
0.0000
 11
107.1680
 21
139.3700
 31
0.0000
  0
LINE
  8
20
 10
107.1680
 20
139.3700
 30
0.0000
 11
0.0000
 21
139.3700
 31
0.0000
  0
LINE
  8
20
 10
0.0000
 20
139.3700
 30
0.0000
 11
0.0000
 21
0.0000
 31
0.0000
  0
CIRCLE
  8
20
 10
36.8300
 20
102.8700
 30
0.0000
 40
1.6500
  0
CIRCLE
  8
20
 10
102.8700
 20
102.8700
 30
0.0000
 40
1.6500
  0
CIRCLE
  8
20
 10
102.8700
 20
39.3700
 30
0.0000
 40
1.6500
  0
CIRCLE
  8
20
 10
36.8300
 20
39.3700
 30
0.0000
 40
1.6500
  0
CIRCLE
  8
20
 10
102.8700
 20
133.3500
 30
0.0000
 40
1.6500
  0
CIRCLE
  8
20
 10
102.8700
 20
6.3500
 30
0.0000
 40
1.6500
  0
CIRCLE
  8
20
 10
3.8100
 20
6.3500
 30
0.0000
 40
1.6500
  0
CIRCLE
  8
20
 10
3.8100
 20
133.3500
 30
0.0000
 40
1.6500
  0
POINT
  8
23
 10
97.2820
 20
80.0100
 30
0.0000
  0
POINT
  8
23
 10
86.6140
 20
65.2780
 30
0.0000
  0
POINT
  8
23
 10
83.8200
 20
100.3300
 30
0.0000
  0
POINT
  8
23
 10
94.7420
 20
100.3300
 30
0.0000
  0
POINT
  8
23
 10
72.8980
 20
100.3300
 30
0.0000
  0
POINT
  8
24
 10
81.7880
 20
89.9160
 30
0.0000
  0
POLYLINE
  8
22
 66
1
 10
0.0000
 20
0.0000
 30
0.0000
 40
0.1524
 41
0.1524
 70
0
  0
VERTEX
  8
22
 10
81.1880
 20
90.2160
 30
0.0000
  0
VERTEX
  8
22
 10
81.1880
 20
89.6160
 30
0.0000
  0
SEQEND
  8
0
  0
POLYLINE
  8
22
 66
1
 10
0.0000
 20
0.0000
 30
0.0000
 40
0.0762
 41
0.0762
 70
0
  0
VERTEX
  8
22
 10
81.1499
 20
89.6160
 30
0.0000
 42
1.0000
  0
VERTEX
  8
22
 10
81.2261
 20
89.6160
 30
0.0000
  0
SEQEND
  8
0
  0
POLYLINE
  8
22
 66
1
 10
0.0000
 20
0.0000
 30
0.0000
 40
0.0762
 41
0.0762
 70
0
  0
VERTEX
  8
22
 10
81.2261
 20
90.2160
 30
0.0000
 42
1.0000
  0
VERTEX
  8
22
 10
81.1499
 20
90.2160
 30
0.0000
  0
SEQEND
  8
0
  0
POLYLINE
  8
22
 66
1
 10
0.0000
 20
0.0000
 30
0.0000
 40
0.1524
 41
0.1524
 70
0
  0
VERTEX
  8
22
 10
82.3880
 20
90.2160
 30
0.0000
  0
VERTEX
  8
22
 10
82.3880
 20
89.6160
 30
0.0000
  0
SEQEND
  8
0
  0
POLYLINE
  8
22
 66
1
 10
0.0000
 20
0.0000
 30
0.0000
 40
0.0762
 41
0.0762
 70
0
  0
VERTEX
  8
22
 10
82.3499
 20
89.6160
 30
0.0000
 42
1.0000
  0
VERTEX
  8
22
 10
82.4261
 20
89.6160
 30
0.0000
  0
SEQEND
  8
0
  0
POLYLINE
  8
22
 66
1
 10
0.0000
 20
0.0000
 30
0.0000
 40
0.0762
 41
0.0762
 70
0
  0
VERTEX
  8
22
 10
82.4261
 20
90.2160
 30
0.0000
 42
1.0000
  0
VERTEX
  8
22
 10
82.3499
 20
90.2160
 30
0.0000
  0
SEQEND
  8
0
  0
POLYLINE
  8
22
 66
1
 10
0.0000
 20
0.0000
 30
0.0000
 40
0.1270
 41
0.1270
 70
0
  0
VERTEX
  8
22
 10
81.7880
 20
90.2208
 30
0.0000
  0
VERTEX
  8
22
 10
81.7880
 20
89.6112
 30
0.0000
  0
SEQEND
  8
0
  0
POLYLINE
  8
22
 66
1
 10
0.0000
 20
0.0000
 30
0.0000
 40
0.0635
 41
0.0635
 70
0
  0
VERTEX
  8
22
 10
81.7563
 20
89.6112
 30
0.0000
 42
1.0000
  0
VERTEX
  8
22
 10
81.8198
 20
89.6112
 30
0.0000
  0
SEQEND
  8
0
  0
POLYLINE
  8
22
 66
1
 10
0.0000
 20
0.0000
 30
0.0000
 40
0.0635
 41
0.0635
 70
0
  0
VERTEX
  8
22
 10
81.8198
 20
90.2208
 30
0.0000
 42
1.0000
  0
VERTEX
  8
22
 10
81.7563
 20
90.2208
 30
0.0000
  0
SEQEND
  8
0
  0
POLYLINE
  8
22
 66
1
 10
0.0000
 20
0.0000
 30
0.0000
 40
0.1270
 41
0.1270
 70
0
  0
VERTEX
  8
22
 10
81.7880
 20
89.6112
 30
0.0000
  0
VERTEX
  8
22
 10
81.9912
 20
89.9160
 30
0.0000
  0
SEQEND
  8
0
  0
POLYLINE
  8
22
 66
1
 10
0.0000
 20
0.0000
 30
0.0000
 40
0.0635
 41
0.0635
 70
0
  0
VERTEX
  8
22
 10
82.0176
 20
89.8984
 30
0.0000
 42
1.0000
  0
VERTEX
  8
22
 10
81.9648
 20
89.9336
 30
0.0000
  0
SEQEND
  8
0
  0
POLYLINE
  8
22
 66
1
 10
0.0000
 20
0.0000
 30
0.0000
 40
0.0635
 41
0.0635
 70
0
  0
VERTEX
  8
22
 10
81.7616
 20
89.6288
 30
0.0000
 42
1.0000
  0
VERTEX
  8
22
 10
81.8144
 20
89.5936
 30
0.0000
  0
SEQEND
  8
0
  0
POLYLINE
  8
22
 66
1
 10
0.0000
 20
0.0000
 30
0.0000
 40
0.1270
 41
0.1270
 70
0
  0
VERTEX
  8
22
 10
81.9912
 20
89.9160
 30
0.0000
  0
VERTEX
  8
22
 10
81.5848
 20
89.9160
 30
0.0000
  0
SEQEND
  8
0
  0
POLYLINE
  8
22
 66
1
 10
0.0000
 20
0.0000
 30
0.0000
 40
0.0635
 41
0.0635
 70
0
  0
VERTEX
  8
22
 10
81.5848
 20
89.9478
 30
0.0000
 42
1.0000
  0
VERTEX
  8
22
 10
81.5848
 20
89.8843
 30
0.0000
  0
SEQEND
  8
0
  0
POLYLINE
  8
22
 66
1
 10
0.0000
 20
0.0000
 30
0.0000
 40
0.0635
 41
0.0635
 70
0
  0
VERTEX
  8
22
 10
81.9912
 20
89.8843
 30
0.0000
 42
1.0000
  0
VERTEX
  8
22
 10
81.9912
 20
89.9478
 30
0.0000
  0
SEQEND
  8
0
  0
POLYLINE
  8
22
 66
1
 10
0.0000
 20
0.0000
 30
0.0000
 40
0.1270
 41
0.1270
 70
0
  0
VERTEX
  8
22
 10
81.5848
 20
89.9160
 30
0.0000
  0
VERTEX
  8
22
 10
81.7880
 20
89.6112
 30
0.0000
  0
SEQEND
  8
0
  0
POLYLINE
  8
22
 66
1
 10
0.0000
 20
0.0000
 30
0.0000
 40
0.0635
 41
0.0635
 70
0
  0
VERTEX
  8
22
 10
81.7616
 20
89.5936
 30
0.0000
 42
1.0000
  0
VERTEX
  8
22
 10
81.8144
 20
89.6288
 30
0.0000
  0
SEQEND
  8
0
  0
POLYLINE
  8
22
 66
1
 10
0.0000
 20
0.0000
 30
0.0000
 40
0.0635
 41
0.0635
 70
0
  0
VERTEX
  8
22
 10
81.6112
 20
89.9336
 30
0.0000
 42
1.0000
  0
VERTEX
  8
22
 10
81.5584
 20
89.8984
 30
0.0000
  0
SEQEND
  8
0
  0
POINT
  8
24
 10
85.8520
 20
44.1960
 30
0.0000
  0
POLYLINE
  8
22
 66
1
 10
0.0000
 20
0.0000
 30
0.0000
 40
0.1524
 41
0.1524
 70
0
  0
VERTEX
  8
22
 10
85.2520
 20
44.4960
 30
0.0000
  0
VERTEX
  8
22
 10
85.2520
 20
43.8960
 30
0.0000
  0
SEQEND
  8
0
  0
POLYLINE
  8
22
 66
1
 10
0.0000
 20
0.0000
 30
0.0000
 40
0.0762
 41
0.0762
 70
0
  0
VERTEX
  8
22
 10
85.2139
 20
43.8960
 30
0.0000
 42
1.0000
  0
VERTEX
  8
22
 10
85.2901
 20
43.8960
 30
0.0000
  0
SEQEND
  8
0
  0
POLYLINE
  8
22
 66
1
 10
0.0000
 20
0.0000
 30
0.0000
 40
0.0762
 41
0.0762
 70
0
  0
VERTEX
  8
22
 10
85.2901
 20
44.4960
 30
0.0000
 42
1.0000
  0
VERTEX
  8
22
 10
85.2139
 20
44.4960
 30
0.0000
  0
SEQEND
  8
0
  0
POLYLINE
  8
22
 66
1
 10
0.0000
 20
0.0000
 30
0.0000
 40
0.1524
 41
0.1524
 70
0
  0
VERTEX
  8
22
 10
86.4520
 20
44.4960
 30
0.0000
  0
VERTEX
  8
22
 10
86.4520
 20
43.8960
 30
0.0000
  0
SEQEND
  8
0
  0
POLYLINE
  8
22
 66
1
 10
0.0000
 20
0.0000
 30
0.0000
 40
0.0762
 41
0.0762
 70
0
  0
VERTEX
  8
22
 10
86.4139
 20
43.8960
 30
0.0000
 42
1.0000
  0
VERTEX
  8
22
 10
86.4901
 20
43.8960
 30
0.0000
  0
SEQEND
  8
0
  0
POLYLINE
  8
22
 66
1
 10
0.0000
 20
0.0000
 30
0.0000
 40
0.0762
 41
0.0762
 70
0
  0
VERTEX
  8
22
 10
86.4901
 20
44.4960
 30
0.0000
 42
1.0000
  0
VERTEX
  8
22
 10
86.4139
 20
44.4960
 30
0.0000
  0
SEQEND
  8
0
  0
POLYLINE
  8
22
 66
1
 10
0.0000
 20
0.0000
 30
0.0000
 40
0.1270
 41
0.1270
 70
0
  0
VERTEX
  8
22
 10
85.8520
 20
44.5008
 30
0.0000
  0
VERTEX
  8
22
 10
85.8520
 20
43.8912
 30
0.0000
  0
SEQEND
  8
0
  0
POLYLINE
  8
22
 66
1
 10
0.0000
 20
0.0000
 30
0.0000
 40
0.0635
 41
0.0635
 70
0
  0
VERTEX
  8
22
 10
85.8203
 20
43.8912
 30
0.0000
 42
1.0000
  0
VERTEX
  8
22
 10
85.8838
 20
43.8912
 30
0.0000
  0
SEQEND
  8
0
  0
POLYLINE
  8
22
 66
1
 10
0.0000
 20
0.0000
 30
0.0000
 40
0.0635
 41
0.0635
 70
0
  0
VERTEX
  8
22
 10
85.8838
 20
44.5008
 30
0.0000
 42
1.0000
  0
VERTEX
  8
22
 10
85.8203
 20
44.5008
 30
0.0000
  0
SEQEND
  8
0
  0
POLYLINE
  8
22
 66
1
 10
0.0000
 20
0.0000
 30
0.0000
 40
0.1270
 41
0.1270
 70
0
  0
VERTEX
  8
22
 10
85.8520
 20
43.8912
 30
0.0000
  0
VERTEX
  8
22
 10
86.0552
 20
44.1960
 30
0.0000
  0
SEQEND
  8
0
  0
POLYLINE
  8
22
 66
1
 10
0.0000
 20
0.0000
 30
0.0000
 40
0.0635
 41
0.0635
 70
0
  0
VERTEX
  8
22
 10
86.0816
 20
44.1784
 30
0.0000
 42
1.0000
  0
VERTEX
  8
22
 10
86.0288
 20
44.2136
 30
0.0000
  0
SEQEND
  8
0
  0
POLYLINE
  8
22
 66
1
 10
0.0000
 20
0.0000
 30
0.0000
 40
0.0635
 41
0.0635
 70
0
  0
VERTEX
  8
22
 10
85.8256
 20
43.9088
 30
0.0000
 42
1.0000
  0
VERTEX
  8
22
 10
85.8784
 20
43.8736
 30
0.0000
  0
SEQEND
  8
0
  0
POLYLINE
  8
22
 66
1
 10
0.0000
 20
0.0000
 30
0.0000
 40
0.1270
 41
0.1270
 70
0
  0
VERTEX
  8
22
 10
86.0552
 20
44.1960
 30
0.0000
  0
VERTEX
  8
22
 10
85.6488
 20
44.1960
 30
0.0000
  0
SEQEND
  8
0
  0
POLYLINE
  8
22
 66
1
 10
0.0000
 20
0.0000
 30
0.0000
 40
0.0635
 41
0.0635
 70
0
  0
VERTEX
  8
22
 10
85.6488
 20
44.2278
 30
0.0000
 42
1.0000
  0
VERTEX
  8
22
 10
85.6488
 20
44.1643
 30
0.0000
  0
SEQEND
  8
0
  0
POLYLINE
  8
22
 66
1
 10
0.0000
 20
0.0000
 30
0.0000
 40
0.0635
 41
0.0635
 70
0
  0
VERTEX
  8
22
 10
86.0552
 20
44.1643
 30
0.0000
 42
1.0000
  0
VERTEX
  8
22
 10
86.0552
 20
44.2278
 30
0.0000
  0
SEQEND
  8
0
  0
POLYLINE
  8
22
 66
1
 10
0.0000
 20
0.0000
 30
0.0000
 40
0.1270
 41
0.1270
 70
0
  0
VERTEX
  8
22
 10
85.6488
 20
44.1960
 30
0.0000
  0
VERTEX
  8
22
 10
85.8520
 20
43.8912
 30
0.0000
  0
SEQEND
  8
0
  0
POLYLINE
  8
22
 66
1
 10
0.0000
 20
0.0000
 30
0.0000
 40
0.0635
 41
0.0635
 70
0
  0
VERTEX
  8
22
 10
85.8256
 20
43.8736
 30
0.0000
 42
1.0000
  0
VERTEX
  8
22
 10
85.8784
 20
43.9088
 30
0.0000
  0
SEQEND
  8
0
  0
POLYLINE
  8
22
 66
1
 10
0.0000
 20
0.0000
 30
0.0000
 40
0.0635
 41
0.0635
 70
0
  0
VERTEX
  8
22
 10
85.6752
 20
44.2136
 30
0.0000
 42
1.0000
  0
VERTEX
  8
22
 10
85.6224
 20
44.1784
 30
0.0000
  0
SEQEND
  8
0
  0
POINT
  8
24
 10
78.2320
 20
63.2460
 30
0.0000
  0
POLYLINE
  8
22
 66
1
 10
0.0000
 20
0.0000
 30
0.0000
 40
0.1270
 41
0.1270
 70
0
  0
VERTEX
  8
22
 10
80.0100
 20
62.2300
 30
0.0000
  0
VERTEX
  8
22
 10
79.9815
 20
62.2672
 30
0.0000
  0
SEQEND
  8
0
  0
POLYLINE
  8
22
 66
1
 10
0.0000
 20
0.0000
 30
0.0000
 40
0.0635
 41
0.0635
 70
0
  0
VERTEX
  8
22
 10
80.0066
 20
62.2865
 30
0.0000
 42
1.0000
  0
VERTEX
  8
22
 10
79.9563
 20
62.2479
 30
0.0000
  0
SEQEND
  8
0
  0
POLYLINE
  8
22
 66
1
 10
0.0000
 20
0.0000
 30
0.0000
 40
0.0635
 41
0.0635
 70
0
  0
VERTEX
  8
22
 10
79.9848
 20
62.2107
 30
0.0000
 42
1.0000
  0
VERTEX
  8
22
 10
80.0352
 20
62.2493
 30
0.0000
  0
SEQEND
  8
0
  0
POLYLINE
  8
22
 66
1
 10
0.0000
 20
0.0000
 30
0.0000
 40
0.1270
 41
0.1270
 70
0
  0
VERTEX
  8
22
 10
79.9815
 20
62.2672
 30
0.0000
  0
VERTEX
  8
22
 10
79.9635
 20
62.3105
 30
0.0000
  0
SEQEND
  8
0
  0
POLYLINE
  8
22
 66
1
 10
0.0000
 20
0.0000
 30
0.0000
 40
0.0635
 41
0.0635
 70
0
  0
VERTEX
  8
22
 10
79.9928
 20
62.3227
 30
0.0000
 42
1.0000
  0
VERTEX
  8
22
 10
79.9342
 20
62.2984
 30
0.0000
  0
SEQEND
  8
0
  0
POLYLINE
  8
22
 66
1
 10
0.0000
 20
0.0000
 30
0.0000
 40
0.0635
 41
0.0635
 70
0
  0
VERTEX
  8
22
 10
79.9521
 20
62.2550
 30
0.0000
 42
1.0000
  0
VERTEX
  8
22
 10
80.0108
 20
62.2793
 30
0.0000
  0
SEQEND
  8
0
  0
POLYLINE
  8
22
 66
1
 10
0.0000
 20
0.0000
 30
0.0000
 40
0.1270
 41
0.1270
 70
0
  0
VERTEX
  8
22
 10
79.9635
 20
62.3105
 30
0.0000
  0
VERTEX
  8
22
 10
79.9574
 20
62.3570
 30
0.0000
  0
SEQEND
  8
0
  0
POLYLINE
  8
22
 66
1
 10
0.0000
 20
0.0000
 30
0.0000
 40
0.0635
 41
0.0635
 70
0
  0
VERTEX
  8
22
 10
79.9889
 20
62.3611
 30
0.0000
 42
1.0000
  0
VERTEX
  8
22
 10
79.9259
 20
62.3529
 30
0.0000
  0
SEQEND
  8
0
  0
POLYLINE
  8
22
 66
1
 10
0.0000
 20
0.0000
 30
0.0000
 40
0.0635
 41
0.0635
 70
0
  0
VERTEX
  8
22
 10
79.9320
 20
62.3064
 30
0.0000
 42
1.0000
  0
VERTEX
  8
22
 10
79.9950
 20
62.3147
 30
0.0000
  0
SEQEND
  8
0
  0
POLYLINE
  8
22
 66
1
 10
0.0000
 20
0.0000
 30
0.0000
 40
0.1270
 41
0.1270
 70
0
  0
VERTEX
  8
22
 10
79.9574
 20
62.3570
 30
0.0000
  0
VERTEX
  8
22
 10
79.9635
 20
62.4035
 30
0.0000
  0
SEQEND
  8
0
  0
POLYLINE
  8
22
 66
1
 10
0.0000
 20
0.0000
 30
0.0000
 40
0.0635
 41
0.0635
 70
0
  0
VERTEX
  8
22
 10
79.9950
 20
62.3993
 30
0.0000
 42
1.0000
  0
VERTEX
  8
22
 10
79.9320
 20
62.4076
 30
0.0000
  0
SEQEND
  8
0
  0
POLYLINE
  8
22
 66
1
 10
0.0000
 20
0.0000
 30
0.0000
 40
0.0635
 41
0.0635
 70
0
  0
VERTEX
  8
22
 10
79.9259
 20
62.3611
 30
0.0000
 42
1.0000
  0
VERTEX
  8
22
 10
79.9889
 20
62.3529
 30
0.0000
  0
SEQEND
  8
0
  0
POLYLINE
  8
22
 66
1
 10
0.0000
 20
0.0000
 30
0.0000
 40
0.1270
 41
0.1270
 70
0
  0
VERTEX
  8
22
 10
79.9635
 20
62.4035
 30
0.0000
  0
VERTEX
  8
22
 10
79.9815
 20
62.4468
 30
0.0000
  0
SEQEND
  8
0
  0
POLYLINE
  8
22
 66
1
 10
0.0000
 20
0.0000
 30
0.0000
 40
0.0635
 41
0.0635
 70
0
  0
VERTEX
  8
22
 10
80.0108
 20
62.4347
 30
0.0000
 42
1.0000
  0
VERTEX
  8
22
 10
79.9521
 20
62.4590
 30
0.0000
  0
SEQEND
  8
0
  0
POLYLINE
  8
22
 66
1
 10
0.0000
 20
0.0000
 30
0.0000
 40
0.0635
 41
0.0635
 70
0
  0
VERTEX
  8
22
 10
79.9342
 20
62.4156
 30
0.0000
 42
1.0000
  0
VERTEX
  8
22
 10
79.9928
 20
62.3913
 30
0.0000
  0
SEQEND
  8
0
  0
POLYLINE
  8
22
 66
1
 10
0.0000
 20
0.0000
 30
0.0000
 40
0.1270
 41
0.1270
 70
0
  0
VERTEX
  8
22
 10
79.9815
 20
62.4468
 30
0.0000
  0
VERTEX
  8
22
 10
80.0100
 20
62.4840
 30
0.0000
  0
SEQEND
  8
0
  0
POLYLINE
  8
22
 66
1
 10
0.0000
 20
0.0000
 30
0.0000
 40
0.0635
 41
0.0635
 70
0
  0
VERTEX
  8
22
 10
80.0352
 20
62.4647
 30
0.0000
 42
1.0000
  0
VERTEX
  8
22
 10
79.9848
 20
62.5033
 30
0.0000
  0
SEQEND
  8
0
  0
POLYLINE
  8
22
 66
1
 10
0.0000
 20
0.0000
 30
0.0000
 40
0.0635
 41
0.0635
 70
0
  0
VERTEX
  8
22
 10
79.9563
 20
62.4661
 30
0.0000
 42
1.0000
  0
VERTEX
  8
22
 10
80.0066
 20
62.4275
 30
0.0000
  0
SEQEND
  8
0
  0
POLYLINE
  8
22
 66
1
 10
0.0000
 20
0.0000
 30
0.0000
 40
0.1270
 41
0.1270
 70
0
  0
VERTEX
  8
22
 10
80.0100
 20
62.4840
 30
0.0000
  0
VERTEX
  8
22
 10
80.0472
 20
62.5125
 30
0.0000
  0
SEQEND
  8
0
  0
POLYLINE
  8
22
 66
1
 10
0.0000
 20
0.0000
 30
0.0000
 40
0.0635
 41
0.0635
 70
0
  0
VERTEX
  8
22
 10
80.0665
 20
62.4874
 30
0.0000
 42
1.0000
  0
VERTEX
  8
22
 10
80.0279
 20
62.5377
 30
0.0000
  0
SEQEND
  8
0
  0
POLYLINE
  8
22
 66
1
 10
0.0000
 20
0.0000
 30
0.0000
 40
0.0635
 41
0.0635
 70
0
  0
VERTEX
  8
22
 10
79.9907
 20
62.5092
 30
0.0000
 42
1.0000
  0
VERTEX
  8
22
 10
80.0293
 20
62.4588
 30
0.0000
  0
SEQEND
  8
0
  0
POLYLINE
  8
22
 66
1
 10
0.0000
 20
0.0000
 30
0.0000
 40
0.1270
 41
0.1270
 70
0
  0
VERTEX
  8
22
 10
80.0472
 20
62.5125
 30
0.0000
  0
VERTEX
  8
22
 10
80.0905
 20
62.5305
 30
0.0000
  0
SEQEND
  8
0
  0
POLYLINE
  8
22
 66
1
 10
0.0000
 20
0.0000
 30
0.0000
 40
0.0635
 41
0.0635
 70
0
  0
VERTEX
  8
22
 10
80.1027
 20
62.5012
 30
0.0000
 42
1.0000
  0
VERTEX
  8
22
 10
80.0784
 20
62.5598
 30
0.0000
  0
SEQEND
  8
0
  0
POLYLINE
  8
22
 66
1
 10
0.0000
 20
0.0000
 30
0.0000
 40
0.0635
 41
0.0635
 70
0
  0
VERTEX
  8
22
 10
80.0350
 20
62.5419
 30
0.0000
 42
1.0000
  0
VERTEX
  8
22
 10
80.0593
 20
62.4832
 30
0.0000
  0
SEQEND
  8
0
  0
POLYLINE
  8
22
 66
1
 10
0.0000
 20
0.0000
 30
0.0000
 40
0.1270
 41
0.1270
 70
0
  0
VERTEX
  8
22
 10
80.0905
 20
62.5305
 30
0.0000
  0
VERTEX
  8
22
 10
80.1370
 20
62.5366
 30
0.0000
  0
SEQEND
  8
0
  0
POLYLINE
  8
22
 66
1
 10
0.0000
 20
0.0000
 30
0.0000
 40
0.0635
 41
0.0635
 70
0
  0
VERTEX
  8
22
 10
80.1411
 20
62.5051
 30
0.0000
 42
1.0000
  0
VERTEX
  8
22
 10
80.1329
 20
62.5681
 30
0.0000
  0
SEQEND
  8
0
  0
POLYLINE
  8
22
 66
1
 10
0.0000
 20
0.0000
 30
0.0000
 40
0.0635
 41
0.0635
 70
0
  0
VERTEX
  8
22
 10
80.0864
 20
62.5620
 30
0.0000
 42
1.0000
  0
VERTEX
  8
22
 10
80.0947
 20
62.4990
 30
0.0000
  0
SEQEND
  8
0
  0
POLYLINE
  8
22
 66
1
 10
0.0000
 20
0.0000
 30
0.0000
 40
0.1270
 41
0.1270
 70
0
  0
VERTEX
  8
22
 10
80.1370
 20
62.5366
 30
0.0000
  0
VERTEX
  8
22
 10
80.1835
 20
62.5305
 30
0.0000
  0
SEQEND
  8
0
  0
POLYLINE
  8
22
 66
1
 10
0.0000
 20
0.0000
 30
0.0000
 40
0.0635
 41
0.0635
 70
0
  0
VERTEX
  8
22
 10
80.1793
 20
62.4990
 30
0.0000
 42
1.0000
  0
VERTEX
  8
22
 10
80.1876
 20
62.5620
 30
0.0000
  0
SEQEND
  8
0
  0
POLYLINE
  8
22
 66
1
 10
0.0000
 20
0.0000
 30
0.0000
 40
0.0635
 41
0.0635
 70
0
  0
VERTEX
  8
22
 10
80.1411
 20
62.5681
 30
0.0000
 42
1.0000
  0
VERTEX
  8
22
 10
80.1329
 20
62.5051
 30
0.0000
  0
SEQEND
  8
0
  0
POLYLINE
  8
22
 66
1
 10
0.0000
 20
0.0000
 30
0.0000
 40
0.1270
 41
0.1270
 70
0
  0
VERTEX
  8
22
 10
80.1835
 20
62.5305
 30
0.0000
  0
VERTEX
  8
22
 10
80.2268
 20
62.5125
 30
0.0000
  0
SEQEND
  8
0
  0
POLYLINE
  8
22
 66
1
 10
0.0000
 20
0.0000
 30
0.0000
 40
0.0635
 41
0.0635
 70
0
  0
VERTEX
  8
22
 10
80.2147
 20
62.4832
 30
0.0000
 42
1.0000
  0
VERTEX
  8
22
 10
80.2390
 20
62.5419
 30
0.0000
  0
SEQEND
  8
0
  0
POLYLINE
  8
22
 66
1
 10
0.0000
 20
0.0000
 30
0.0000
 40
0.0635
 41
0.0635
 70
0
  0
VERTEX
  8
22
 10
80.1956
 20
62.5598
 30
0.0000
 42
1.0000
  0
VERTEX
  8
22
 10
80.1713
 20
62.5012
 30
0.0000
  0
SEQEND
  8
0
  0
POLYLINE
  8
22
 66
1
 10
0.0000
 20
0.0000
 30
0.0000
 40
0.1270
 41
0.1270
 70
0
  0
VERTEX
  8
22
 10
80.2268
 20
62.5125
 30
0.0000
  0
VERTEX
  8
22
 10
80.2640
 20
62.4840
 30
0.0000
  0
SEQEND
  8
0
  0
POLYLINE
  8
22
 66
1
 10
0.0000
 20
0.0000
 30
0.0000
 40
0.0635
 41
0.0635
 70
0
  0
VERTEX
  8
22
 10
80.2447
 20
62.4588
 30
0.0000
 42
1.0000
  0
VERTEX
  8
22
 10
80.2833
 20
62.5092
 30
0.0000
  0
SEQEND
  8
0
  0
POLYLINE
  8
22
 66
1
 10
0.0000
 20
0.0000
 30
0.0000
 40
0.0635
 41
0.0635
 70
0
  0
VERTEX
  8
22
 10
80.2461
 20
62.5377
 30
0.0000
 42
1.0000
  0
VERTEX
  8
22
 10
80.2075
 20
62.4874
 30
0.0000
  0
SEQEND
  8
0
  0
POLYLINE
  8
22
 66
1
 10
0.0000
 20
0.0000
 30
0.0000
 40
0.1270
 41
0.1270
 70
0
  0
VERTEX
  8
22
 10
80.2640
 20
62.4840
 30
0.0000
  0
VERTEX
  8
22
 10
80.2925
 20
62.4468
 30
0.0000
  0
SEQEND
  8
0
  0
POLYLINE
  8
22
 66
1
 10
0.0000
 20
0.0000
 30
0.0000
 40
0.0635
 41
0.0635
 70
0
  0
VERTEX
  8
22
 10
80.2674
 20
62.4275
 30
0.0000
 42
1.0000
  0
VERTEX
  8
22
 10
80.3177
 20
62.4661
 30
0.0000
  0
SEQEND
  8
0
  0
POLYLINE
  8
22
 66
1
 10
0.0000
 20
0.0000
 30
0.0000
 40
0.0635
 41
0.0635
 70
0
  0
VERTEX
  8
22
 10
80.2892
 20
62.5033
 30
0.0000
 42
1.0000
  0
VERTEX
  8
22
 10
80.2388
 20
62.4647
 30
0.0000
  0
SEQEND
  8
0
  0
POLYLINE
  8
22
 66
1
 10
0.0000
 20
0.0000
 30
0.0000
 40
0.1270
 41
0.1270
 70
0
  0
VERTEX
  8
22
 10
80.2925
 20
62.4468
 30
0.0000
  0
VERTEX
  8
22
 10
80.3105
 20
62.4035
 30
0.0000
  0
SEQEND
  8
0
  0
POLYLINE
  8
22
 66
1
 10
0.0000
 20
0.0000
 30
0.0000
 40
0.0635
 41
0.0635
 70
0
  0
VERTEX
  8
22
 10
80.2812
 20
62.3913
 30
0.0000
 42
1.0000
  0
VERTEX
  8
22
 10
80.3398
 20
62.4156
 30
0.0000
  0
SEQEND
  8
0
  0
POLYLINE
  8
22
 66
1
 10
0.0000
 20
0.0000
 30
0.0000
 40
0.0635
 41
0.0635
 70
0
  0
VERTEX
  8
22
 10
80.3219
 20
62.4590
 30
0.0000
 42
1.0000
  0
VERTEX
  8
22
 10
80.2632
 20
62.4347
 30
0.0000
  0
SEQEND
  8
0
  0
POLYLINE
  8
22
 66
1
 10
0.0000
 20
0.0000
 30
0.0000
 40
0.1270
 41
0.1270
 70
0
  0
VERTEX
  8
22
 10
80.3105
 20
62.4035
 30
0.0000
  0
VERTEX
  8
22
 10
80.3166
 20
62.3570
 30
0.0000
  0
SEQEND
  8
0
  0
POLYLINE
  8
22
 66
1
 10
0.0000
 20
0.0000
 30
0.0000
 40
0.0635
 41
0.0635
 70
0
  0
VERTEX
  8
22
 10
80.2851
 20
62.3529
 30
0.0000
 42
1.0000
  0
VERTEX
  8
22
 10
80.3481
 20
62.3611
 30
0.0000
  0
SEQEND
  8
0
  0
POLYLINE
  8
22
 66
1
 10
0.0000
 20
0.0000
 30
0.0000
 40
0.0635
 41
0.0635
 70
0
  0
VERTEX
  8
22
 10
80.3420
 20
62.4076
 30
0.0000
 42
1.0000
  0
VERTEX
  8
22
 10
80.2790
 20
62.3993
 30
0.0000
  0
SEQEND
  8
0
  0
POLYLINE
  8
22
 66
1
 10
0.0000
 20
0.0000
 30
0.0000
 40
0.1270
 41
0.1270
 70
0
  0
VERTEX
  8
22
 10
80.3166
 20
62.3570
 30
0.0000
  0
VERTEX
  8
22
 10
80.3105
 20
62.3105
 30
0.0000
  0
SEQEND
  8
0
  0
POLYLINE
  8
22
 66
1
 10
0.0000
 20
0.0000
 30
0.0000
 40
0.0635
 41
0.0635
 70
0
  0
VERTEX
  8
22
 10
80.2790
 20
62.3147
 30
0.0000
 42
1.0000
  0
VERTEX
  8
22
 10
80.3420
 20
62.3064
 30
0.0000
  0
SEQEND
  8
0
  0
POLYLINE
  8
22
 66
1
 10
0.0000
 20
0.0000
 30
0.0000
 40
0.0635
 41
0.0635
 70
0
  0
VERTEX
  8
22
 10
80.3481
 20
62.3529
 30
0.0000
 42
1.0000
  0
VERTEX
  8
22
 10
80.2851
 20
62.3611
 30
0.0000
  0
SEQEND
  8
0
  0
POLYLINE
  8
22
 66
1
 10
0.0000
 20
0.0000
 30
0.0000
 40
0.1270
 41
0.1270
 70
0
  0
VERTEX
  8
22
 10
80.3105
 20
62.3105
 30
0.0000
  0
VERTEX
  8
22
 10
80.2925
 20
62.2672
 30
0.0000
  0
SEQEND
  8
0
  0
POLYLINE
  8
22
 66
1
 10
0.0000
 20
0.0000
 30
0.0000
 40
0.0635
 41
0.0635
 70
0
  0
VERTEX
  8
22
 10
80.2632
 20
62.2793
 30
0.0000
 42
1.0000
  0
VERTEX
  8
22
 10
80.3219
 20
62.2550
 30
0.0000
  0
SEQEND
  8
0
  0
POLYLINE
  8
22
 66
1
 10
0.0000
 20
0.0000
 30
0.0000
 40
0.0635
 41
0.0635
 70
0
  0
VERTEX
  8
22
 10
80.3398
 20
62.2984
 30
0.0000
 42
1.0000
  0
VERTEX
  8
22
 10
80.2812
 20
62.3227
 30
0.0000
  0
SEQEND
  8
0
  0
POLYLINE
  8
22
 66
1
 10
0.0000
 20
0.0000
 30
0.0000
 40
0.1270
 41
0.1270
 70
0
  0
VERTEX
  8
22
 10
80.2925
 20
62.2672
 30
0.0000
  0
VERTEX
  8
22
 10
80.2640
 20
62.2300
 30
0.0000
  0
SEQEND
  8
0
  0
POLYLINE
  8
22
 66
1
 10
0.0000
 20
0.0000
 30
0.0000
 40
0.0635
 41
0.0635
 70
0
  0
VERTEX
  8
22
 10
80.2388
 20
62.2493
 30
0.0000
 42
1.0000
  0
VERTEX
  8
22
 10
80.2892
 20
62.2107
 30
0.0000
  0
SEQEND
  8
0
  0
POLYLINE
  8
22
 66
1
 10
0.0000
 20
0.0000
 30
0.0000
 40
0.0635
 41
0.0635
 70
0
  0
VERTEX
  8
22
 10
80.3177
 20
62.2479
 30
0.0000
 42
1.0000
  0
VERTEX
  8
22
 10
80.2674
 20
62.2865
 30
0.0000
  0
SEQEND
  8
0
  0
POLYLINE
  8
22
 66
1
 10
0.0000
 20
0.0000
 30
0.0000
 40
0.1270
 41
0.1270
 70
0
  0
VERTEX
  8
22
 10
80.2640
 20
62.2300
 30
0.0000
  0
VERTEX
  8
22
 10
80.2268
 20
62.2015
 30
0.0000
  0
SEQEND
  8
0
  0
POLYLINE
  8
22
 66
1
 10
0.0000
 20
0.0000
 30
0.0000
 40
0.0635
 41
0.0635
 70
0
  0
VERTEX
  8
22
 10
80.2075
 20
62.2266
 30
0.0000
 42
1.0000
  0
VERTEX
  8
22
 10
80.2461
 20
62.1763
 30
0.0000
  0
SEQEND
  8
0
  0
POLYLINE
  8
22
 66
1
 10
0.0000
 20
0.0000
 30
0.0000
 40
0.0635
 41
0.0635
 70
0
  0
VERTEX
  8
22
 10
80.2833
 20
62.2048
 30
0.0000
 42
1.0000
  0
VERTEX
  8
22
 10
80.2447
 20
62.2552
 30
0.0000
  0
SEQEND
  8
0
  0
POLYLINE
  8
22
 66
1
 10
0.0000
 20
0.0000
 30
0.0000
 40
0.1270
 41
0.1270
 70
0
  0
VERTEX
  8
22
 10
80.2268
 20
62.2015
 30
0.0000
  0
VERTEX
  8
22
 10
80.1835
 20
62.1835
 30
0.0000
  0
SEQEND
  8
0
  0
POLYLINE
  8
22
 66
1
 10
0.0000
 20
0.0000
 30
0.0000
 40
0.0635
 41
0.0635
 70
0
  0
VERTEX
  8
22
 10
80.1713
 20
62.2128
 30
0.0000
 42
1.0000
  0
VERTEX
  8
22
 10
80.1956
 20
62.1542
 30
0.0000
  0
SEQEND
  8
0
  0
POLYLINE
  8
22
 66
1
 10
0.0000
 20
0.0000
 30
0.0000
 40
0.0635
 41
0.0635
 70
0
  0
VERTEX
  8
22
 10
80.2390
 20
62.1721
 30
0.0000
 42
1.0000
  0
VERTEX
  8
22
 10
80.2147
 20
62.2308
 30
0.0000
  0
SEQEND
  8
0
  0
POLYLINE
  8
22
 66
1
 10
0.0000
 20
0.0000
 30
0.0000
 40
0.1270
 41
0.1270
 70
0
  0
VERTEX
  8
22
 10
80.1835
 20
62.1835
 30
0.0000
  0
VERTEX
  8
22
 10
80.1370
 20
62.1774
 30
0.0000
  0
SEQEND
  8
0
  0
POLYLINE
  8
22
 66
1
 10
0.0000
 20
0.0000
 30
0.0000
 40
0.0635
 41
0.0635
 70
0
  0
VERTEX
  8
22
 10
80.1329
 20
62.2089
 30
0.0000
 42
1.0000
  0
VERTEX
  8
22
 10
80.1411
 20
62.1459
 30
0.0000
  0
SEQEND
  8
0
  0
POLYLINE
  8
22
 66
1
 10
0.0000
 20
0.0000
 30
0.0000
 40
0.0635
 41
0.0635
 70
0
  0
VERTEX
  8
22
 10
80.1876
 20
62.1520
 30
0.0000
 42
1.0000
  0
VERTEX
  8
22
 10
80.1793
 20
62.2150
 30
0.0000
  0
SEQEND
  8
0
  0
POLYLINE
  8
22
 66
1
 10
0.0000
 20
0.0000
 30
0.0000
 40
0.1270
 41
0.1270
 70
0
  0
VERTEX
  8
22
 10
80.1370
 20
62.1774
 30
0.0000
  0
VERTEX
  8
22
 10
80.0905
 20
62.1835
 30
0.0000
  0
SEQEND
  8
0
  0
POLYLINE
  8
22
 66
1
 10
0.0000
 20
0.0000
 30
0.0000
 40
0.0635
 41
0.0635
 70
0
  0
VERTEX
  8
22
 10
80.0947
 20
62.2150
 30
0.0000
 42
1.0000
  0
VERTEX
  8
22
 10
80.0864
 20
62.1520
 30
0.0000
  0
SEQEND
  8
0
  0
POLYLINE
  8
22
 66
1
 10
0.0000
 20
0.0000
 30
0.0000
 40
0.0635
 41
0.0635
 70
0
  0
VERTEX
  8
22
 10
80.1329
 20
62.1459
 30
0.0000
 42
1.0000
  0
VERTEX
  8
22
 10
80.1411
 20
62.2089
 30
0.0000
  0
SEQEND
  8
0
  0
POLYLINE
  8
22
 66
1
 10
0.0000
 20
0.0000
 30
0.0000
 40
0.1270
 41
0.1270
 70
0
  0
VERTEX
  8
22
 10
80.0905
 20
62.1835
 30
0.0000
  0
VERTEX
  8
22
 10
80.0472
 20
62.2015
 30
0.0000
  0
SEQEND
  8
0
  0
POLYLINE
  8
22
 66
1
 10
0.0000
 20
0.0000
 30
0.0000
 40
0.0635
 41
0.0635
 70
0
  0
VERTEX
  8
22
 10
80.0593
 20
62.2308
 30
0.0000
 42
1.0000
  0
VERTEX
  8
22
 10
80.0350
 20
62.1721
 30
0.0000
  0
SEQEND
  8
0
  0
POLYLINE
  8
22
 66
1
 10
0.0000
 20
0.0000
 30
0.0000
 40
0.0635
 41
0.0635
 70
0
  0
VERTEX
  8
22
 10
80.0784
 20
62.1542
 30
0.0000
 42
1.0000
  0
VERTEX
  8
22
 10
80.1027
 20
62.2128
 30
0.0000
  0
SEQEND
  8
0
  0
POLYLINE
  8
22
 66
1
 10
0.0000
 20
0.0000
 30
0.0000
 40
0.1270
 41
0.1270
 70
0
  0
VERTEX
  8
22
 10
80.0472
 20
62.2015
 30
0.0000
  0
VERTEX
  8
22
 10
80.0100
 20
62.2300
 30
0.0000
  0
SEQEND
  8
0
  0
POLYLINE
  8
22
 66
1
 10
0.0000
 20
0.0000
 30
0.0000
 40
0.0635
 41
0.0635
 70
0
  0
VERTEX
  8
22
 10
80.0293
 20
62.2552
 30
0.0000
 42
1.0000
  0
VERTEX
  8
22
 10
79.9907
 20
62.2048
 30
0.0000
  0
SEQEND
  8
0
  0
POLYLINE
  8
22
 66
1
 10
0.0000
 20
0.0000
 30
0.0000
 40
0.0635
 41
0.0635
 70
0
  0
VERTEX
  8
22
 10
80.0279
 20
62.1763
 30
0.0000
 42
1.0000
  0
VERTEX
  8
22
 10
80.0665
 20
62.2266
 30
0.0000
  0
SEQEND
  8
0
  0
POLYLINE
  8
22
 66
1
 10
0.0000
 20
0.0000
 30
0.0000
 40
0.1270
 41
0.1270
 70
0
  0
VERTEX
  8
22
 10
80.2640
 20
62.2300
 30
0.0000
  0
VERTEX
  8
22
 10
80.0100
 20
62.2300
 30
0.0000
  0
SEQEND
  8
0
  0
POLYLINE
  8
22
 66
1
 10
0.0000
 20
0.0000
 30
0.0000
 40
0.0635
 41
0.0635
 70
0
  0
VERTEX
  8
22
 10
80.0100
 20
62.2618
 30
0.0000
 42
1.0000
  0
VERTEX
  8
22
 10
80.0100
 20
62.1983
 30
0.0000
  0
SEQEND
  8
0
  0
POLYLINE
  8
22
 66
1
 10
0.0000
 20
0.0000
 30
0.0000
 40
0.0635
 41
0.0635
 70
0
  0
VERTEX
  8
22
 10
80.2640
 20
62.1983
 30
0.0000
 42
1.0000
  0
VERTEX
  8
22
 10
80.2640
 20
62.2618
 30
0.0000
  0
SEQEND
  8
0
  0
POLYLINE
  8
22
 66
1
 10
0.0000
 20
0.0000
 30
0.0000
 40
0.1270
 41
0.1270
 70
0
  0
VERTEX
  8
22
 10
80.3166
 20
62.3570
 30
0.0000
  0
VERTEX
  8
22
 10
79.9574
 20
62.3570
 30
0.0000
  0
SEQEND
  8
0
  0
POLYLINE
  8
22
 66
1
 10
0.0000
 20
0.0000
 30
0.0000
 40
0.0635
 41
0.0635
 70
0
  0
VERTEX
  8
22
 10
79.9574
 20
62.3888
 30
0.0000
 42
1.0000
  0
VERTEX
  8
22
 10
79.9574
 20
62.3253
 30
0.0000
  0
SEQEND
  8
0
  0
POLYLINE
  8
22
 66
1
 10
0.0000
 20
0.0000
 30
0.0000
 40
0.0635
 41
0.0635
 70
0
  0
VERTEX
  8
22
 10
80.3166
 20
62.3253
 30
0.0000
 42
1.0000
  0
VERTEX
  8
22
 10
80.3166
 20
62.3888
 30
0.0000
  0
SEQEND
  8
0
  0
POLYLINE
  8
22
 66
1
 10
0.0000
 20
0.0000
 30
0.0000
 40
0.1270
 41
0.1270
 70
0
  0
VERTEX
  8
22
 10
80.2640
 20
62.4840
 30
0.0000
  0
VERTEX
  8
22
 10
80.0100
 20
62.4840
 30
0.0000
  0
SEQEND
  8
0
  0
POLYLINE
  8
22
 66
1
 10
0.0000
 20
0.0000
 30
0.0000
 40
0.0635
 41
0.0635
 70
0
  0
VERTEX
  8
22
 10
80.0100
 20
62.5158
 30
0.0000
 42
1.0000
  0
VERTEX
  8
22
 10
80.0100
 20
62.4522
 30
0.0000
  0
SEQEND
  8
0
  0
POLYLINE
  8
22
 66
1
 10
0.0000
 20
0.0000
 30
0.0000
 40
0.0635
 41
0.0635
 70
0
  0
VERTEX
  8
22
 10
80.2640
 20
62.4522
 30
0.0000
 42
1.0000
  0
VERTEX
  8
22
 10
80.2640
 20
62.5158
 30
0.0000
  0
SEQEND
  8
0
  0
POLYLINE
  8
22
 66
1
 10
0.0000
 20
0.0000
 30
0.0000
 40
0.2032
 41
0.2032
 70
0
  0
VERTEX
  8
22
 10
75.8320
 20
65.1460
 30
0.0000
  0
VERTEX
  8
22
 10
75.8320
 20
61.3380
 30
0.0000
  0
SEQEND
  8
0
  0
POLYLINE
  8
22
 66
1
 10
0.0000
 20
0.0000
 30
0.0000
 40
0.1016
 41
0.1016
 70
0
  0
VERTEX
  8
22
 10
75.7812
 20
61.3380
 30
0.0000
 42
1.0000
  0
VERTEX
  8
22
 10
75.8828
 20
61.3380
 30
0.0000
  0
SEQEND
  8
0
  0
POLYLINE
  8
22
 66
1
 10
0.0000
 20
0.0000
 30
0.0000
 40
0.1016
 41
0.1016
 70
0
  0
VERTEX
  8
22
 10
75.8828
 20
65.1460
 30
0.0000
 42
1.0000
  0
VERTEX
  8
22
 10
75.7812
 20
65.1460
 30
0.0000
  0
SEQEND
  8
0
  0
POLYLINE
  8
22
 66
1
 10
0.0000
 20
0.0000
 30
0.0000
 40
0.2032
 41
0.2032
 70
0
  0
VERTEX
  8
22
 10
75.8320
 20
61.3460
 30
0.0000
  0
VERTEX
  8
22
 10
80.6320
 20
61.3460
 30
0.0000
  0
SEQEND
  8
0
  0
POLYLINE
  8
22
 66
1
 10
0.0000
 20
0.0000
 30
0.0000
 40
0.1016
 41
0.1016
 70
0
  0
VERTEX
  8
22
 10
80.6320
 20
61.2952
 30
0.0000
 42
1.0000
  0
VERTEX
  8
22
 10
80.6320
 20
61.3968
 30
0.0000
  0
SEQEND
  8
0
  0
POLYLINE
  8
22
 66
1
 10
0.0000
 20
0.0000
 30
0.0000
 40
0.1016
 41
0.1016
 70
0
  0
VERTEX
  8
22
 10
75.8320
 20
61.3968
 30
0.0000
 42
1.0000
  0
VERTEX
  8
22
 10
75.8320
 20
61.2952
 30
0.0000
  0
SEQEND
  8
0
  0
POLYLINE
  8
22
 66
1
 10
0.0000
 20
0.0000
 30
0.0000
 40
0.2032
 41
0.2032
 70
0
  0
VERTEX
  8
22
 10
80.6320
 20
61.3380
 30
0.0000
  0
VERTEX
  8
22
 10
80.6320
 20
65.1460
 30
0.0000
  0
SEQEND
  8
0
  0
POLYLINE
  8
22
 66
1
 10
0.0000
 20
0.0000
 30
0.0000
 40
0.1016
 41
0.1016
 70
0
  0
VERTEX
  8
22
 10
80.6828
 20
65.1460
 30
0.0000
 42
1.0000
  0
VERTEX
  8
22
 10
80.5812
 20
65.1460
 30
0.0000
  0
SEQEND
  8
0
  0
POLYLINE
  8
22
 66
1
 10
0.0000
 20
0.0000
 30
0.0000
 40
0.1016
 41
0.1016
 70
0
  0
VERTEX
  8
22
 10
80.5812
 20
61.3380
 30
0.0000
 42
1.0000
  0
VERTEX
  8
22
 10
80.6828
 20
61.3380
 30
0.0000
  0
SEQEND
  8
0
  0
POLYLINE
  8
22
 66
1
 10
0.0000
 20
0.0000
 30
0.0000
 40
0.2032
 41
0.2032
 70
0
  0
VERTEX
  8
22
 10
80.6320
 20
65.1460
 30
0.0000
  0
VERTEX
  8
22
 10
75.8320
 20
65.1460
 30
0.0000
  0
SEQEND
  8
0
  0
POLYLINE
  8
22
 66
1
 10
0.0000
 20
0.0000
 30
0.0000
 40
0.1016
 41
0.1016
 70
0
  0
VERTEX
  8
22
 10
75.8320
 20
65.1968
 30
0.0000
 42
1.0000
  0
VERTEX
  8
22
 10
75.8320
 20
65.0952
 30
0.0000
  0
SEQEND
  8
0
  0
POLYLINE
  8
22
 66
1
 10
0.0000
 20
0.0000
 30
0.0000
 40
0.1016
 41
0.1016
 70
0
  0
VERTEX
  8
22
 10
80.6320
 20
65.0952
 30
0.0000
 42
1.0000
  0
VERTEX
  8
22
 10
80.6320
 20
65.1968
 30
0.0000
  0
SEQEND
  8
0
  0
POINT
  8
23
 10
93.4720
 20
63.7540
 30
0.0000
  0
POINT
  8
24
 10
87.1220
 20
58.9280
 30
0.0000
  0
POLYLINE
  8
22
 66
1
 10
0.0000
 20
0.0000
 30
0.0000
 40
0.1524
 41
0.1524
 70
0
  0
VERTEX
  8
22
 10
87.4220
 20
59.5280
 30
0.0000
  0
VERTEX
  8
22
 10
86.8220
 20
59.5280
 30
0.0000
  0
SEQEND
  8
0
  0
POLYLINE
  8
22
 66
1
 10
0.0000
 20
0.0000
 30
0.0000
 40
0.0762
 41
0.0762
 70
0
  0
VERTEX
  8
22
 10
86.8220
 20
59.5661
 30
0.0000
 42
1.0000
  0
VERTEX
  8
22
 10
86.8220
 20
59.4899
 30
0.0000
  0
SEQEND
  8
0
  0
POLYLINE
  8
22
 66
1
 10
0.0000
 20
0.0000
 30
0.0000
 40
0.0762
 41
0.0762
 70
0
  0
VERTEX
  8
22
 10
87.4220
 20
59.4899
 30
0.0000
 42
1.0000
  0
VERTEX
  8
22
 10
87.4220
 20
59.5661
 30
0.0000
  0
SEQEND
  8
0
  0
POLYLINE
  8
22
 66
1
 10
0.0000
 20
0.0000
 30
0.0000
 40
0.1524
 41
0.1524
 70
0
  0
VERTEX
  8
22
 10
87.4220
 20
58.3280
 30
0.0000
  0
VERTEX
  8
22
 10
86.8220
 20
58.3280
 30
0.0000
  0
SEQEND
  8
0
  0
POLYLINE
  8
22
 66
1
 10
0.0000
 20
0.0000
 30
0.0000
 40
0.0762
 41
0.0762
 70
0
  0
VERTEX
  8
22
 10
86.8220
 20
58.3661
 30
0.0000
 42
1.0000
  0
VERTEX
  8
22
 10
86.8220
 20
58.2899
 30
0.0000
  0
SEQEND
  8
0
  0
POLYLINE
  8
22
 66
1
 10
0.0000
 20
0.0000
 30
0.0000
 40
0.0762
 41
0.0762
 70
0
  0
VERTEX
  8
22
 10
87.4220
 20
58.2899
 30
0.0000
 42
1.0000
  0
VERTEX
  8
22
 10
87.4220
 20
58.3661
 30
0.0000
  0
SEQEND
  8
0
  0
POINT
  8
24
 10
84.0740
 20
77.2160
 30
0.0000
  0
POLYLINE
  8
22
 66
1
 10
0.0000
 20
0.0000
 30
0.0000
 40
0.1524
 41
0.1524
 70
0
  0
VERTEX
  8
22
 10
83.7740
 20
76.6160
 30
0.0000
  0
VERTEX
  8
22
 10
84.3740
 20
76.6160
 30
0.0000
  0
SEQEND
  8
0
  0
POLYLINE
  8
22
 66
1
 10
0.0000
 20
0.0000
 30
0.0000
 40
0.0762
 41
0.0762
 70
0
  0
VERTEX
  8
22
 10
84.3740
 20
76.5779
 30
0.0000
 42
1.0000
  0
VERTEX
  8
22
 10
84.3740
 20
76.6541
 30
0.0000
  0
SEQEND
  8
0
  0
POLYLINE
  8
22
 66
1
 10
0.0000
 20
0.0000
 30
0.0000
 40
0.0762
 41
0.0762
 70
0
  0
VERTEX
  8
22
 10
83.7740
 20
76.6541
 30
0.0000
 42
1.0000
  0
VERTEX
  8
22
 10
83.7740
 20
76.5779
 30
0.0000
  0
SEQEND
  8
0
  0
POLYLINE
  8
22
 66
1
 10
0.0000
 20
0.0000
 30
0.0000
 40
0.1524
 41
0.1524
 70
0
  0
VERTEX
  8
22
 10
83.7740
 20
77.8160
 30
0.0000
  0
VERTEX
  8
22
 10
84.3740
 20
77.8160
 30
0.0000
  0
SEQEND
  8
0
  0
POLYLINE
  8
22
 66
1
 10
0.0000
 20
0.0000
 30
0.0000
 40
0.0762
 41
0.0762
 70
0
  0
VERTEX
  8
22
 10
84.3740
 20
77.7779
 30
0.0000
 42
1.0000
  0
VERTEX
  8
22
 10
84.3740
 20
77.8541
 30
0.0000
  0
SEQEND
  8
0
  0
POLYLINE
  8
22
 66
1
 10
0.0000
 20
0.0000
 30
0.0000
 40
0.0762
 41
0.0762
 70
0
  0
VERTEX
  8
22
 10
83.7740
 20
77.8541
 30
0.0000
 42
1.0000
  0
VERTEX
  8
22
 10
83.7740
 20
77.7779
 30
0.0000
  0
SEQEND
  8
0
  0
POINT
  8
23
 10
86.6140
 20
59.9440
 30
0.0000
  0
POINT
  8
23
 10
96.0120
 20
62.9920
 30
0.0000
  0
POINT
  8
24
 10
82.5500
 20
79.2480
 30
0.0000
  0
POLYLINE
  8
22
 66
1
 10
0.0000
 20
0.0000
 30
0.0000
 40
0.1524
 41
0.1524
 70
0
  0
VERTEX
  8
22
 10
82.8500
 20
79.8480
 30
0.0000
  0
VERTEX
  8
22
 10
82.2500
 20
79.8480
 30
0.0000
  0
SEQEND
  8
0
  0
POLYLINE
  8
22
 66
1
 10
0.0000
 20
0.0000
 30
0.0000
 40
0.0762
 41
0.0762
 70
0
  0
VERTEX
  8
22
 10
82.2500
 20
79.8861
 30
0.0000
 42
1.0000
  0
VERTEX
  8
22
 10
82.2500
 20
79.8099
 30
0.0000
  0
SEQEND
  8
0
  0
POLYLINE
  8
22
 66
1
 10
0.0000
 20
0.0000
 30
0.0000
 40
0.0762
 41
0.0762
 70
0
  0
VERTEX
  8
22
 10
82.8500
 20
79.8099
 30
0.0000
 42
1.0000
  0
VERTEX
  8
22
 10
82.8500
 20
79.8861
 30
0.0000
  0
SEQEND
  8
0
  0
POLYLINE
  8
22
 66
1
 10
0.0000
 20
0.0000
 30
0.0000
 40
0.1524
 41
0.1524
 70
0
  0
VERTEX
  8
22
 10
82.8500
 20
78.6480
 30
0.0000
  0
VERTEX
  8
22
 10
82.2500
 20
78.6480
 30
0.0000
  0
SEQEND
  8
0
  0
POLYLINE
  8
22
 66
1
 10
0.0000
 20
0.0000
 30
0.0000
 40
0.0762
 41
0.0762
 70
0
  0
VERTEX
  8
22
 10
82.2500
 20
78.6861
 30
0.0000
 42
1.0000
  0
VERTEX
  8
22
 10
82.2500
 20
78.6099
 30
0.0000
  0
SEQEND
  8
0
  0
POLYLINE
  8
22
 66
1
 10
0.0000
 20
0.0000
 30
0.0000
 40
0.0762
 41
0.0762
 70
0
  0
VERTEX
  8
22
 10
82.8500
 20
78.6099
 30
0.0000
 42
1.0000
  0
VERTEX
  8
22
 10
82.8500
 20
78.6861
 30
0.0000
  0
SEQEND
  8
0
  0
POINT
  8
23
 10
73.2790
 20
36.8300
 30
0.0000
  0
POINT
  8
23
 10
100.0760
 20
62.7380
 30
0.0000
  0
POINT
  8
23
 10
79.5020
 20
94.7420
 30
0.0000
  0
POINT
  8
24
 10
72.1360
 20
72.8980
 30
0.0000
  0
POLYLINE
  8
22
 66
1
 10
0.0000
 20
0.0000
 30
0.0000
 40
0.1270
 41
0.1270
 70
0
  0
VERTEX
  8
22
 10
73.9140
 20
71.8820
 30
0.0000
  0
VERTEX
  8
22
 10
73.8855
 20
71.9192
 30
0.0000
  0
SEQEND
  8
0
  0
POLYLINE
  8
22
 66
1
 10
0.0000
 20
0.0000
 30
0.0000
 40
0.0635
 41
0.0635
 70
0
  0
VERTEX
  8
22
 10
73.9106
 20
71.9385
 30
0.0000
 42
1.0000
  0
VERTEX
  8
22
 10
73.8603
 20
71.8999
 30
0.0000
  0
SEQEND
  8
0
  0
POLYLINE
  8
22
 66
1
 10
0.0000
 20
0.0000
 30
0.0000
 40
0.0635
 41
0.0635
 70
0
  0
VERTEX
  8
22
 10
73.8888
 20
71.8627
 30
0.0000
 42
1.0000
  0
VERTEX
  8
22
 10
73.9392
 20
71.9013
 30
0.0000
  0
SEQEND
  8
0
  0
POLYLINE
  8
22
 66
1
 10
0.0000
 20
0.0000
 30
0.0000
 40
0.1270
 41
0.1270
 70
0
  0
VERTEX
  8
22
 10
73.8855
 20
71.9192
 30
0.0000
  0
VERTEX
  8
22
 10
73.8675
 20
71.9625
 30
0.0000
  0
SEQEND
  8
0
  0
POLYLINE
  8
22
 66
1
 10
0.0000
 20
0.0000
 30
0.0000
 40
0.0635
 41
0.0635
 70
0
  0
VERTEX
  8
22
 10
73.8968
 20
71.9747
 30
0.0000
 42
1.0000
  0
VERTEX
  8
22
 10
73.8382
 20
71.9504
 30
0.0000
  0
SEQEND
  8
0
  0
POLYLINE
  8
22
 66
1
 10
0.0000
 20
0.0000
 30
0.0000
 40
0.0635
 41
0.0635
 70
0
  0
VERTEX
  8
22
 10
73.8561
 20
71.9070
 30
0.0000
 42
1.0000
  0
VERTEX
  8
22
 10
73.9148
 20
71.9313
 30
0.0000
  0
SEQEND
  8
0
  0
POLYLINE
  8
22
 66
1
 10
0.0000
 20
0.0000
 30
0.0000
 40
0.1270
 41
0.1270
 70
0
  0
VERTEX
  8
22
 10
73.8675
 20
71.9625
 30
0.0000
  0
VERTEX
  8
22
 10
73.8614
 20
72.0090
 30
0.0000
  0
SEQEND
  8
0
  0
POLYLINE
  8
22
 66
1
 10
0.0000
 20
0.0000
 30
0.0000
 40
0.0635
 41
0.0635
 70
0
  0
VERTEX
  8
22
 10
73.8929
 20
72.0131
 30
0.0000
 42
1.0000
  0
VERTEX
  8
22
 10
73.8299
 20
72.0049
 30
0.0000
  0
SEQEND
  8
0
  0
POLYLINE
  8
22
 66
1
 10
0.0000
 20
0.0000
 30
0.0000
 40
0.0635
 41
0.0635
 70
0
  0
VERTEX
  8
22
 10
73.8360
 20
71.9584
 30
0.0000
 42
1.0000
  0
VERTEX
  8
22
 10
73.8990
 20
71.9667
 30
0.0000
  0
SEQEND
  8
0
  0
POLYLINE
  8
22
 66
1
 10
0.0000
 20
0.0000
 30
0.0000
 40
0.1270
 41
0.1270
 70
0
  0
VERTEX
  8
22
 10
73.8614
 20
72.0090
 30
0.0000
  0
VERTEX
  8
22
 10
73.8675
 20
72.0555
 30
0.0000
  0
SEQEND
  8
0
  0
POLYLINE
  8
22
 66
1
 10
0.0000
 20
0.0000
 30
0.0000
 40
0.0635
 41
0.0635
 70
0
  0
VERTEX
  8
22
 10
73.8990
 20
72.0513
 30
0.0000
 42
1.0000
  0
VERTEX
  8
22
 10
73.8360
 20
72.0596
 30
0.0000
  0
SEQEND
  8
0
  0
POLYLINE
  8
22
 66
1
 10
0.0000
 20
0.0000
 30
0.0000
 40
0.0635
 41
0.0635
 70
0
  0
VERTEX
  8
22
 10
73.8299
 20
72.0131
 30
0.0000
 42
1.0000
  0
VERTEX
  8
22
 10
73.8929
 20
72.0049
 30
0.0000
  0
SEQEND
  8
0
  0
POLYLINE
  8
22
 66
1
 10
0.0000
 20
0.0000
 30
0.0000
 40
0.1270
 41
0.1270
 70
0
  0
VERTEX
  8
22
 10
73.8675
 20
72.0555
 30
0.0000
  0
VERTEX
  8
22
 10
73.8855
 20
72.0988
 30
0.0000
  0
SEQEND
  8
0
  0
POLYLINE
  8
22
 66
1
 10
0.0000
 20
0.0000
 30
0.0000
 40
0.0635
 41
0.0635
 70
0
  0
VERTEX
  8
22
 10
73.9148
 20
72.0867
 30
0.0000
 42
1.0000
  0
VERTEX
  8
22
 10
73.8561
 20
72.1110
 30
0.0000
  0
SEQEND
  8
0
  0
POLYLINE
  8
22
 66
1
 10
0.0000
 20
0.0000
 30
0.0000
 40
0.0635
 41
0.0635
 70
0
  0
VERTEX
  8
22
 10
73.8382
 20
72.0676
 30
0.0000
 42
1.0000
  0
VERTEX
  8
22
 10
73.8968
 20
72.0433
 30
0.0000
  0
SEQEND
  8
0
  0
POLYLINE
  8
22
 66
1
 10
0.0000
 20
0.0000
 30
0.0000
 40
0.1270
 41
0.1270
 70
0
  0
VERTEX
  8
22
 10
73.8855
 20
72.0988
 30
0.0000
  0
VERTEX
  8
22
 10
73.9140
 20
72.1360
 30
0.0000
  0
SEQEND
  8
0
  0
POLYLINE
  8
22
 66
1
 10
0.0000
 20
0.0000
 30
0.0000
 40
0.0635
 41
0.0635
 70
0
  0
VERTEX
  8
22
 10
73.9392
 20
72.1167
 30
0.0000
 42
1.0000
  0
VERTEX
  8
22
 10
73.8888
 20
72.1553
 30
0.0000
  0
SEQEND
  8
0
  0
POLYLINE
  8
22
 66
1
 10
0.0000
 20
0.0000
 30
0.0000
 40
0.0635
 41
0.0635
 70
0
  0
VERTEX
  8
22
 10
73.8603
 20
72.1181
 30
0.0000
 42
1.0000
  0
VERTEX
  8
22
 10
73.9106
 20
72.0795
 30
0.0000
  0
SEQEND
  8
0
  0
POLYLINE
  8
22
 66
1
 10
0.0000
 20
0.0000
 30
0.0000
 40
0.1270
 41
0.1270
 70
0
  0
VERTEX
  8
22
 10
73.9140
 20
72.1360
 30
0.0000
  0
VERTEX
  8
22
 10
73.9512
 20
72.1645
 30
0.0000
  0
SEQEND
  8
0
  0
POLYLINE
  8
22
 66
1
 10
0.0000
 20
0.0000
 30
0.0000
 40
0.0635
 41
0.0635
 70
0
  0
VERTEX
  8
22
 10
73.9705
 20
72.1394
 30
0.0000
 42
1.0000
  0
VERTEX
  8
22
 10
73.9319
 20
72.1897
 30
0.0000
  0
SEQEND
  8
0
  0
POLYLINE
  8
22
 66
1
 10
0.0000
 20
0.0000
 30
0.0000
 40
0.0635
 41
0.0635
 70
0
  0
VERTEX
  8
22
 10
73.8947
 20
72.1612
 30
0.0000
 42
1.0000
  0
VERTEX
  8
22
 10
73.9333
 20
72.1108
 30
0.0000
  0
SEQEND
  8
0
  0
POLYLINE
  8
22
 66
1
 10
0.0000
 20
0.0000
 30
0.0000
 40
0.1270
 41
0.1270
 70
0
  0
VERTEX
  8
22
 10
73.9512
 20
72.1645
 30
0.0000
  0
VERTEX
  8
22
 10
73.9945
 20
72.1825
 30
0.0000
  0
SEQEND
  8
0
  0
POLYLINE
  8
22
 66
1
 10
0.0000
 20
0.0000
 30
0.0000
 40
0.0635
 41
0.0635
 70
0
  0
VERTEX
  8
22
 10
74.0067
 20
72.1532
 30
0.0000
 42
1.0000
  0
VERTEX
  8
22
 10
73.9824
 20
72.2118
 30
0.0000
  0
SEQEND
  8
0
  0
POLYLINE
  8
22
 66
1
 10
0.0000
 20
0.0000
 30
0.0000
 40
0.0635
 41
0.0635
 70
0
  0
VERTEX
  8
22
 10
73.9390
 20
72.1939
 30
0.0000
 42
1.0000
  0
VERTEX
  8
22
 10
73.9633
 20
72.1352
 30
0.0000
  0
SEQEND
  8
0
  0
POLYLINE
  8
22
 66
1
 10
0.0000
 20
0.0000
 30
0.0000
 40
0.1270
 41
0.1270
 70
0
  0
VERTEX
  8
22
 10
73.9945
 20
72.1825
 30
0.0000
  0
VERTEX
  8
22
 10
74.0410
 20
72.1886
 30
0.0000
  0
SEQEND
  8
0
  0
POLYLINE
  8
22
 66
1
 10
0.0000
 20
0.0000
 30
0.0000
 40
0.0635
 41
0.0635
 70
0
  0
VERTEX
  8
22
 10
74.0451
 20
72.1571
 30
0.0000
 42
1.0000
  0
VERTEX
  8
22
 10
74.0369
 20
72.2201
 30
0.0000
  0
SEQEND
  8
0
  0
POLYLINE
  8
22
 66
1
 10
0.0000
 20
0.0000
 30
0.0000
 40
0.0635
 41
0.0635
 70
0
  0
VERTEX
  8
22
 10
73.9904
 20
72.2140
 30
0.0000
 42
1.0000
  0
VERTEX
  8
22
 10
73.9987
 20
72.1510
 30
0.0000
  0
SEQEND
  8
0
  0
POLYLINE
  8
22
 66
1
 10
0.0000
 20
0.0000
 30
0.0000
 40
0.1270
 41
0.1270
 70
0
  0
VERTEX
  8
22
 10
74.0410
 20
72.1886
 30
0.0000
  0
VERTEX
  8
22
 10
74.0875
 20
72.1825
 30
0.0000
  0
SEQEND
  8
0
  0
POLYLINE
  8
22
 66
1
 10
0.0000
 20
0.0000
 30
0.0000
 40
0.0635
 41
0.0635
 70
0
  0
VERTEX
  8
22
 10
74.0833
 20
72.1510
 30
0.0000
 42
1.0000
  0
VERTEX
  8
22
 10
74.0916
 20
72.2140
 30
0.0000
  0
SEQEND
  8
0
  0
POLYLINE
  8
22
 66
1
 10
0.0000
 20
0.0000
 30
0.0000
 40
0.0635
 41
0.0635
 70
0
  0
VERTEX
  8
22
 10
74.0451
 20
72.2201
 30
0.0000
 42
1.0000
  0
VERTEX
  8
22
 10
74.0369
 20
72.1571
 30
0.0000
  0
SEQEND
  8
0
  0
POLYLINE
  8
22
 66
1
 10
0.0000
 20
0.0000
 30
0.0000
 40
0.1270
 41
0.1270
 70
0
  0
VERTEX
  8
22
 10
74.0875
 20
72.1825
 30
0.0000
  0
VERTEX
  8
22
 10
74.1308
 20
72.1645
 30
0.0000
  0
SEQEND
  8
0
  0
POLYLINE
  8
22
 66
1
 10
0.0000
 20
0.0000
 30
0.0000
 40
0.0635
 41
0.0635
 70
0
  0
VERTEX
  8
22
 10
74.1187
 20
72.1352
 30
0.0000
 42
1.0000
  0
VERTEX
  8
22
 10
74.1430
 20
72.1939
 30
0.0000
  0
SEQEND
  8
0
  0
POLYLINE
  8
22
 66
1
 10
0.0000
 20
0.0000
 30
0.0000
 40
0.0635
 41
0.0635
 70
0
  0
VERTEX
  8
22
 10
74.0996
 20
72.2118
 30
0.0000
 42
1.0000
  0
VERTEX
  8
22
 10
74.0753
 20
72.1532
 30
0.0000
  0
SEQEND
  8
0
  0
POLYLINE
  8
22
 66
1
 10
0.0000
 20
0.0000
 30
0.0000
 40
0.1270
 41
0.1270
 70
0
  0
VERTEX
  8
22
 10
74.1308
 20
72.1645
 30
0.0000
  0
VERTEX
  8
22
 10
74.1680
 20
72.1360
 30
0.0000
  0
SEQEND
  8
0
  0
POLYLINE
  8
22
 66
1
 10
0.0000
 20
0.0000
 30
0.0000
 40
0.0635
 41
0.0635
 70
0
  0
VERTEX
  8
22
 10
74.1487
 20
72.1108
 30
0.0000
 42
1.0000
  0
VERTEX
  8
22
 10
74.1873
 20
72.1612
 30
0.0000
  0
SEQEND
  8
0
  0
POLYLINE
  8
22
 66
1
 10
0.0000
 20
0.0000
 30
0.0000
 40
0.0635
 41
0.0635
 70
0
  0
VERTEX
  8
22
 10
74.1501
 20
72.1897
 30
0.0000
 42
1.0000
  0
VERTEX
  8
22
 10
74.1115
 20
72.1394
 30
0.0000
  0
SEQEND
  8
0
  0
POLYLINE
  8
22
 66
1
 10
0.0000
 20
0.0000
 30
0.0000
 40
0.1270
 41
0.1270
 70
0
  0
VERTEX
  8
22
 10
74.1680
 20
72.1360
 30
0.0000
  0
VERTEX
  8
22
 10
74.1965
 20
72.0988
 30
0.0000
  0
SEQEND
  8
0
  0
POLYLINE
  8
22
 66
1
 10
0.0000
 20
0.0000
 30
0.0000
 40
0.0635
 41
0.0635
 70
0
  0
VERTEX
  8
22
 10
74.1714
 20
72.0795
 30
0.0000
 42
1.0000
  0
VERTEX
  8
22
 10
74.2217
 20
72.1181
 30
0.0000
  0
SEQEND
  8
0
  0
POLYLINE
  8
22
 66
1
 10
0.0000
 20
0.0000
 30
0.0000
 40
0.0635
 41
0.0635
 70
0
  0
VERTEX
  8
22
 10
74.1932
 20
72.1553
 30
0.0000
 42
1.0000
  0
VERTEX
  8
22
 10
74.1428
 20
72.1167
 30
0.0000
  0
SEQEND
  8
0
  0
POLYLINE
  8
22
 66
1
 10
0.0000
 20
0.0000
 30
0.0000
 40
0.1270
 41
0.1270
 70
0
  0
VERTEX
  8
22
 10
74.1965
 20
72.0988
 30
0.0000
  0
VERTEX
  8
22
 10
74.2145
 20
72.0555
 30
0.0000
  0
SEQEND
  8
0
  0
POLYLINE
  8
22
 66
1
 10
0.0000
 20
0.0000
 30
0.0000
 40
0.0635
 41
0.0635
 70
0
  0
VERTEX
  8
22
 10
74.1852
 20
72.0433
 30
0.0000
 42
1.0000
  0
VERTEX
  8
22
 10
74.2438
 20
72.0676
 30
0.0000
  0
SEQEND
  8
0
  0
POLYLINE
  8
22
 66
1
 10
0.0000
 20
0.0000
 30
0.0000
 40
0.0635
 41
0.0635
 70
0
  0
VERTEX
  8
22
 10
74.2259
 20
72.1110
 30
0.0000
 42
1.0000
  0
VERTEX
  8
22
 10
74.1672
 20
72.0867
 30
0.0000
  0
SEQEND
  8
0
  0
POLYLINE
  8
22
 66
1
 10
0.0000
 20
0.0000
 30
0.0000
 40
0.1270
 41
0.1270
 70
0
  0
VERTEX
  8
22
 10
74.2145
 20
72.0555
 30
0.0000
  0
VERTEX
  8
22
 10
74.2206
 20
72.0090
 30
0.0000
  0
SEQEND
  8
0
  0
POLYLINE
  8
22
 66
1
 10
0.0000
 20
0.0000
 30
0.0000
 40
0.0635
 41
0.0635
 70
0
  0
VERTEX
  8
22
 10
74.1891
 20
72.0049
 30
0.0000
 42
1.0000
  0
VERTEX
  8
22
 10
74.2521
 20
72.0131
 30
0.0000
  0
SEQEND
  8
0
  0
POLYLINE
  8
22
 66
1
 10
0.0000
 20
0.0000
 30
0.0000
 40
0.0635
 41
0.0635
 70
0
  0
VERTEX
  8
22
 10
74.2460
 20
72.0596
 30
0.0000
 42
1.0000
  0
VERTEX
  8
22
 10
74.1830
 20
72.0513
 30
0.0000
  0
SEQEND
  8
0
  0
POLYLINE
  8
22
 66
1
 10
0.0000
 20
0.0000
 30
0.0000
 40
0.1270
 41
0.1270
 70
0
  0
VERTEX
  8
22
 10
74.2206
 20
72.0090
 30
0.0000
  0
VERTEX
  8
22
 10
74.2145
 20
71.9625
 30
0.0000
  0
SEQEND
  8
0
  0
POLYLINE
  8
22
 66
1
 10
0.0000
 20
0.0000
 30
0.0000
 40
0.0635
 41
0.0635
 70
0
  0
VERTEX
  8
22
 10
74.1830
 20
71.9667
 30
0.0000
 42
1.0000
  0
VERTEX
  8
22
 10
74.2460
 20
71.9584
 30
0.0000
  0
SEQEND
  8
0
  0
POLYLINE
  8
22
 66
1
 10
0.0000
 20
0.0000
 30
0.0000
 40
0.0635
 41
0.0635
 70
0
  0
VERTEX
  8
22
 10
74.2521
 20
72.0049
 30
0.0000
 42
1.0000
  0
VERTEX
  8
22
 10
74.1891
 20
72.0131
 30
0.0000
  0
SEQEND
  8
0
  0
POLYLINE
  8
22
 66
1
 10
0.0000
 20
0.0000
 30
0.0000
 40
0.1270
 41
0.1270
 70
0
  0
VERTEX
  8
22
 10
74.2145
 20
71.9625
 30
0.0000
  0
VERTEX
  8
22
 10
74.1965
 20
71.9192
 30
0.0000
  0
SEQEND
  8
0
  0
POLYLINE
  8
22
 66
1
 10
0.0000
 20
0.0000
 30
0.0000
 40
0.0635
 41
0.0635
 70
0
  0
VERTEX
  8
22
 10
74.1672
 20
71.9313
 30
0.0000
 42
1.0000
  0
VERTEX
  8
22
 10
74.2259
 20
71.9070
 30
0.0000
  0
SEQEND
  8
0
  0
POLYLINE
  8
22
 66
1
 10
0.0000
 20
0.0000
 30
0.0000
 40
0.0635
 41
0.0635
 70
0
  0
VERTEX
  8
22
 10
74.2438
 20
71.9504
 30
0.0000
 42
1.0000
  0
VERTEX
  8
22
 10
74.1852
 20
71.9747
 30
0.0000
  0
SEQEND
  8
0
  0
POLYLINE
  8
22
 66
1
 10
0.0000
 20
0.0000
 30
0.0000
 40
0.1270
 41
0.1270
 70
0
  0
VERTEX
  8
22
 10
74.1965
 20
71.9192
 30
0.0000
  0
VERTEX
  8
22
 10
74.1680
 20
71.8820
 30
0.0000
  0
SEQEND
  8
0
  0
POLYLINE
  8
22
 66
1
 10
0.0000
 20
0.0000
 30
0.0000
 40
0.0635
 41
0.0635
 70
0
  0
VERTEX
  8
22
 10
74.1428
 20
71.9013
 30
0.0000
 42
1.0000
  0
VERTEX
  8
22
 10
74.1932
 20
71.8627
 30
0.0000
  0
SEQEND
  8
0
  0
POLYLINE
  8
22
 66
1
 10
0.0000
 20
0.0000
 30
0.0000
 40
0.0635
 41
0.0635
 70
0
  0
VERTEX
  8
22
 10
74.2217
 20
71.8999
 30
0.0000
 42
1.0000
  0
VERTEX
  8
22
 10
74.1714
 20
71.9385
 30
0.0000
  0
SEQEND
  8
0
  0
POLYLINE
  8
22
 66
1
 10
0.0000
 20
0.0000
 30
0.0000
 40
0.1270
 41
0.1270
 70
0
  0
VERTEX
  8
22
 10
74.1680
 20
71.8820
 30
0.0000
  0
VERTEX
  8
22
 10
74.1308
 20
71.8535
 30
0.0000
  0
SEQEND
  8
0
  0
POLYLINE
  8
22
 66
1
 10
0.0000
 20
0.0000
 30
0.0000
 40
0.0635
 41
0.0635
 70
0
  0
VERTEX
  8
22
 10
74.1115
 20
71.8786
 30
0.0000
 42
1.0000
  0
VERTEX
  8
22
 10
74.1501
 20
71.8283
 30
0.0000
  0
SEQEND
  8
0
  0
POLYLINE
  8
22
 66
1
 10
0.0000
 20
0.0000
 30
0.0000
 40
0.0635
 41
0.0635
 70
0
  0
VERTEX
  8
22
 10
74.1873
 20
71.8568
 30
0.0000
 42
1.0000
  0
VERTEX
  8
22
 10
74.1487
 20
71.9072
 30
0.0000
  0
SEQEND
  8
0
  0
POLYLINE
  8
22
 66
1
 10
0.0000
 20
0.0000
 30
0.0000
 40
0.1270
 41
0.1270
 70
0
  0
VERTEX
  8
22
 10
74.1308
 20
71.8535
 30
0.0000
  0
VERTEX
  8
22
 10
74.0875
 20
71.8355
 30
0.0000
  0
SEQEND
  8
0
  0
POLYLINE
  8
22
 66
1
 10
0.0000
 20
0.0000
 30
0.0000
 40
0.0635
 41
0.0635
 70
0
  0
VERTEX
  8
22
 10
74.0753
 20
71.8648
 30
0.0000
 42
1.0000
  0
VERTEX
  8
22
 10
74.0996
 20
71.8062
 30
0.0000
  0
SEQEND
  8
0
  0
POLYLINE
  8
22
 66
1
 10
0.0000
 20
0.0000
 30
0.0000
 40
0.0635
 41
0.0635
 70
0
  0
VERTEX
  8
22
 10
74.1430
 20
71.8241
 30
0.0000
 42
1.0000
  0
VERTEX
  8
22
 10
74.1187
 20
71.8828
 30
0.0000
  0
SEQEND
  8
0
  0
POLYLINE
  8
22
 66
1
 10
0.0000
 20
0.0000
 30
0.0000
 40
0.1270
 41
0.1270
 70
0
  0
VERTEX
  8
22
 10
74.0875
 20
71.8355
 30
0.0000
  0
VERTEX
  8
22
 10
74.0410
 20
71.8294
 30
0.0000
  0
SEQEND
  8
0
  0
POLYLINE
  8
22
 66
1
 10
0.0000
 20
0.0000
 30
0.0000
 40
0.0635
 41
0.0635
 70
0
  0
VERTEX
  8
22
 10
74.0369
 20
71.8609
 30
0.0000
 42
1.0000
  0
VERTEX
  8
22
 10
74.0451
 20
71.7979
 30
0.0000
  0
SEQEND
  8
0
  0
POLYLINE
  8
22
 66
1
 10
0.0000
 20
0.0000
 30
0.0000
 40
0.0635
 41
0.0635
 70
0
  0
VERTEX
  8
22
 10
74.0916
 20
71.8040
 30
0.0000
 42
1.0000
  0
VERTEX
  8
22
 10
74.0833
 20
71.8670
 30
0.0000
  0
SEQEND
  8
0
  0
POLYLINE
  8
22
 66
1
 10
0.0000
 20
0.0000
 30
0.0000
 40
0.1270
 41
0.1270
 70
0
  0
VERTEX
  8
22
 10
74.0410
 20
71.8294
 30
0.0000
  0
VERTEX
  8
22
 10
73.9945
 20
71.8355
 30
0.0000
  0
SEQEND
  8
0
  0
POLYLINE
  8
22
 66
1
 10
0.0000
 20
0.0000
 30
0.0000
 40
0.0635
 41
0.0635
 70
0
  0
VERTEX
  8
22
 10
73.9987
 20
71.8670
 30
0.0000
 42
1.0000
  0
VERTEX
  8
22
 10
73.9904
 20
71.8040
 30
0.0000
  0
SEQEND
  8
0
  0
POLYLINE
  8
22
 66
1
 10
0.0000
 20
0.0000
 30
0.0000
 40
0.0635
 41
0.0635
 70
0
  0
VERTEX
  8
22
 10
74.0369
 20
71.7979
 30
0.0000
 42
1.0000
  0
VERTEX
  8
22
 10
74.0451
 20
71.8609
 30
0.0000
  0
SEQEND
  8
0
  0
POLYLINE
  8
22
 66
1
 10
0.0000
 20
0.0000
 30
0.0000
 40
0.1270
 41
0.1270
 70
0
  0
VERTEX
  8
22
 10
73.9945
 20
71.8355
 30
0.0000
  0
VERTEX
  8
22
 10
73.9512
 20
71.8535
 30
0.0000
  0
SEQEND
  8
0
  0
POLYLINE
  8
22
 66
1
 10
0.0000
 20
0.0000
 30
0.0000
 40
0.0635
 41
0.0635
 70
0
  0
VERTEX
  8
22
 10
73.9633
 20
71.8828
 30
0.0000
 42
1.0000
  0
VERTEX
  8
22
 10
73.9390
 20
71.8241
 30
0.0000
  0
SEQEND
  8
0
  0
POLYLINE
  8
22
 66
1
 10
0.0000
 20
0.0000
 30
0.0000
 40
0.0635
 41
0.0635
 70
0
  0
VERTEX
  8
22
 10
73.9824
 20
71.8062
 30
0.0000
 42
1.0000
  0
VERTEX
  8
22
 10
74.0067
 20
71.8648
 30
0.0000
  0
SEQEND
  8
0
  0
POLYLINE
  8
22
 66
1
 10
0.0000
 20
0.0000
 30
0.0000
 40
0.1270
 41
0.1270
 70
0
  0
VERTEX
  8
22
 10
73.9512
 20
71.8535
 30
0.0000
  0
VERTEX
  8
22
 10
73.9140
 20
71.8820
 30
0.0000
  0
SEQEND
  8
0
  0
POLYLINE
  8
22
 66
1
 10
0.0000
 20
0.0000
 30
0.0000
 40
0.0635
 41
0.0635
 70
0
  0
VERTEX
  8
22
 10
73.9333
 20
71.9072
 30
0.0000
 42
1.0000
  0
VERTEX
  8
22
 10
73.8947
 20
71.8568
 30
0.0000
  0
SEQEND
  8
0
  0
POLYLINE
  8
22
 66
1
 10
0.0000
 20
0.0000
 30
0.0000
 40
0.0635
 41
0.0635
 70
0
  0
VERTEX
  8
22
 10
73.9319
 20
71.8283
 30
0.0000
 42
1.0000
  0
VERTEX
  8
22
 10
73.9705
 20
71.8786
 30
0.0000
  0
SEQEND
  8
0
  0
POLYLINE
  8
22
 66
1
 10
0.0000
 20
0.0000
 30
0.0000
 40
0.1270
 41
0.1270
 70
0
  0
VERTEX
  8
22
 10
74.1680
 20
71.8820
 30
0.0000
  0
VERTEX
  8
22
 10
73.9140
 20
71.8820
 30
0.0000
  0
SEQEND
  8
0
  0
POLYLINE
  8
22
 66
1
 10
0.0000
 20
0.0000
 30
0.0000
 40
0.0635
 41
0.0635
 70
0
  0
VERTEX
  8
22
 10
73.9140
 20
71.9138
 30
0.0000
 42
1.0000
  0
VERTEX
  8
22
 10
73.9140
 20
71.8503
 30
0.0000
  0
SEQEND
  8
0
  0
POLYLINE
  8
22
 66
1
 10
0.0000
 20
0.0000
 30
0.0000
 40
0.0635
 41
0.0635
 70
0
  0
VERTEX
  8
22
 10
74.1680
 20
71.8503
 30
0.0000
 42
1.0000
  0
VERTEX
  8
22
 10
74.1680
 20
71.9138
 30
0.0000
  0
SEQEND
  8
0
  0
POLYLINE
  8
22
 66
1
 10
0.0000
 20
0.0000
 30
0.0000
 40
0.1270
 41
0.1270
 70
0
  0
VERTEX
  8
22
 10
74.2206
 20
72.0090
 30
0.0000
  0
VERTEX
  8
22
 10
73.8614
 20
72.0090
 30
0.0000
  0
SEQEND
  8
0
  0
POLYLINE
  8
22
 66
1
 10
0.0000
 20
0.0000
 30
0.0000
 40
0.0635
 41
0.0635
 70
0
  0
VERTEX
  8
22
 10
73.8614
 20
72.0408
 30
0.0000
 42
1.0000
  0
VERTEX
  8
22
 10
73.8614
 20
71.9772
 30
0.0000
  0
SEQEND
  8
0
  0
POLYLINE
  8
22
 66
1
 10
0.0000
 20
0.0000
 30
0.0000
 40
0.0635
 41
0.0635
 70
0
  0
VERTEX
  8
22
 10
74.2206
 20
71.9772
 30
0.0000
 42
1.0000
  0
VERTEX
  8
22
 10
74.2206
 20
72.0408
 30
0.0000
  0
SEQEND
  8
0
  0
POLYLINE
  8
22
 66
1
 10
0.0000
 20
0.0000
 30
0.0000
 40
0.1270
 41
0.1270
 70
0
  0
VERTEX
  8
22
 10
74.1680
 20
72.1360
 30
0.0000
  0
VERTEX
  8
22
 10
73.9140
 20
72.1360
 30
0.0000
  0
SEQEND
  8
0
  0
POLYLINE
  8
22
 66
1
 10
0.0000
 20
0.0000
 30
0.0000
 40
0.0635
 41
0.0635
 70
0
  0
VERTEX
  8
22
 10
73.9140
 20
72.1678
 30
0.0000
 42
1.0000
  0
VERTEX
  8
22
 10
73.9140
 20
72.1043
 30
0.0000
  0
SEQEND
  8
0
  0
POLYLINE
  8
22
 66
1
 10
0.0000
 20
0.0000
 30
0.0000
 40
0.0635
 41
0.0635
 70
0
  0
VERTEX
  8
22
 10
74.1680
 20
72.1043
 30
0.0000
 42
1.0000
  0
VERTEX
  8
22
 10
74.1680
 20
72.1678
 30
0.0000
  0
SEQEND
  8
0
  0
POLYLINE
  8
22
 66
1
 10
0.0000
 20
0.0000
 30
0.0000
 40
0.2032
 41
0.2032
 70
0
  0
VERTEX
  8
22
 10
69.7360
 20
74.7980
 30
0.0000
  0
VERTEX
  8
22
 10
69.7360
 20
70.9900
 30
0.0000
  0
SEQEND
  8
0
  0
POLYLINE
  8
22
 66
1
 10
0.0000
 20
0.0000
 30
0.0000
 40
0.1016
 41
0.1016
 70
0
  0
VERTEX
  8
22
 10
69.6852
 20
70.9900
 30
0.0000
 42
1.0000
  0
VERTEX
  8
22
 10
69.7868
 20
70.9900
 30
0.0000
  0
SEQEND
  8
0
  0
POLYLINE
  8
22
 66
1
 10
0.0000
 20
0.0000
 30
0.0000
 40
0.1016
 41
0.1016
 70
0
  0
VERTEX
  8
22
 10
69.7868
 20
74.7980
 30
0.0000
 42
1.0000
  0
VERTEX
  8
22
 10
69.6852
 20
74.7980
 30
0.0000
  0
SEQEND
  8
0
  0
POLYLINE
  8
22
 66
1
 10
0.0000
 20
0.0000
 30
0.0000
 40
0.2032
 41
0.2032
 70
0
  0
VERTEX
  8
22
 10
69.7360
 20
70.9980
 30
0.0000
  0
VERTEX
  8
22
 10
74.5360
 20
70.9980
 30
0.0000
  0
SEQEND
  8
0
  0
POLYLINE
  8
22
 66
1
 10
0.0000
 20
0.0000
 30
0.0000
 40
0.1016
 41
0.1016
 70
0
  0
VERTEX
  8
22
 10
74.5360
 20
70.9472
 30
0.0000
 42
1.0000
  0
VERTEX
  8
22
 10
74.5360
 20
71.0488
 30
0.0000
  0
SEQEND
  8
0
  0
POLYLINE
  8
22
 66
1
 10
0.0000
 20
0.0000
 30
0.0000
 40
0.1016
 41
0.1016
 70
0
  0
VERTEX
  8
22
 10
69.7360
 20
71.0488
 30
0.0000
 42
1.0000
  0
VERTEX
  8
22
 10
69.7360
 20
70.9472
 30
0.0000
  0
SEQEND
  8
0
  0
POLYLINE
  8
22
 66
1
 10
0.0000
 20
0.0000
 30
0.0000
 40
0.2032
 41
0.2032
 70
0
  0
VERTEX
  8
22
 10
74.5360
 20
70.9900
 30
0.0000
  0
VERTEX
  8
22
 10
74.5360
 20
74.7980
 30
0.0000
  0
SEQEND
  8
0
  0
POLYLINE
  8
22
 66
1
 10
0.0000
 20
0.0000
 30
0.0000
 40
0.1016
 41
0.1016
 70
0
  0
VERTEX
  8
22
 10
74.5868
 20
74.7980
 30
0.0000
 42
1.0000
  0
VERTEX
  8
22
 10
74.4852
 20
74.7980
 30
0.0000
  0
SEQEND
  8
0
  0
POLYLINE
  8
22
 66
1
 10
0.0000
 20
0.0000
 30
0.0000
 40
0.1016
 41
0.1016
 70
0
  0
VERTEX
  8
22
 10
74.4852
 20
70.9900
 30
0.0000
 42
1.0000
  0
VERTEX
  8
22
 10
74.5868
 20
70.9900
 30
0.0000
  0
SEQEND
  8
0
  0
POLYLINE
  8
22
 66
1
 10
0.0000
 20
0.0000
 30
0.0000
 40
0.2032
 41
0.2032
 70
0
  0
VERTEX
  8
22
 10
74.5360
 20
74.7980
 30
0.0000
  0
VERTEX
  8
22
 10
69.7360
 20
74.7980
 30
0.0000
  0
SEQEND
  8
0
  0
POLYLINE
  8
22
 66
1
 10
0.0000
 20
0.0000
 30
0.0000
 40
0.1016
 41
0.1016
 70
0
  0
VERTEX
  8
22
 10
69.7360
 20
74.8488
 30
0.0000
 42
1.0000
  0
VERTEX
  8
22
 10
69.7360
 20
74.7472
 30
0.0000
  0
SEQEND
  8
0
  0
POLYLINE
  8
22
 66
1
 10
0.0000
 20
0.0000
 30
0.0000
 40
0.1016
 41
0.1016
 70
0
  0
VERTEX
  8
22
 10
74.5360
 20
74.7472
 30
0.0000
 42
1.0000
  0
VERTEX
  8
22
 10
74.5360
 20
74.8488
 30
0.0000
  0
SEQEND
  8
0
  0
POINT
  8
24
 10
84.5820
 20
49.2760
 30
0.0000
  0
POLYLINE
  8
22
 66
1
 10
0.0000
 20
0.0000
 30
0.0000
 40
0.1524
 41
0.1524
 70
0
  0
VERTEX
  8
22
 10
86.0820
 20
49.9760
 30
0.0000
  0
VERTEX
  8
22
 10
83.0820
 20
49.9760
 30
0.0000
  0
SEQEND
  8
0
  0
POLYLINE
  8
22
 66
1
 10
0.0000
 20
0.0000
 30
0.0000
 40
0.0762
 41
0.0762
 70
0
  0
VERTEX
  8
22
 10
83.0820
 20
50.0141
 30
0.0000
 42
1.0000
  0
VERTEX
  8
22
 10
83.0820
 20
49.9379
 30
0.0000
  0
SEQEND
  8
0
  0
POLYLINE
  8
22
 66
1
 10
0.0000
 20
0.0000
 30
0.0000
 40
0.0762
 41
0.0762
 70
0
  0
VERTEX
  8
22
 10
86.0820
 20
49.9379
 30
0.0000
 42
1.0000
  0
VERTEX
  8
22
 10
86.0820
 20
50.0141
 30
0.0000
  0
SEQEND
  8
0
  0
POLYLINE
  8
22
 66
1
 10
0.0000
 20
0.0000
 30
0.0000
 40
0.1524
 41
0.1524
 70
0
  0
VERTEX
  8
22
 10
83.0820
 20
49.9760
 30
0.0000
  0
VERTEX
  8
22
 10
83.0820
 20
48.5760
 30
0.0000
  0
SEQEND
  8
0
  0
POLYLINE
  8
22
 66
1
 10
0.0000
 20
0.0000
 30
0.0000
 40
0.0762
 41
0.0762
 70
0
  0
VERTEX
  8
22
 10
83.0439
 20
48.5760
 30
0.0000
 42
1.0000
  0
VERTEX
  8
22
 10
83.1201
 20
48.5760
 30
0.0000
  0
SEQEND
  8
0
  0
POLYLINE
  8
22
 66
1
 10
0.0000
 20
0.0000
 30
0.0000
 40
0.0762
 41
0.0762
 70
0
  0
VERTEX
  8
22
 10
83.1201
 20
49.9760
 30
0.0000
 42
1.0000
  0
VERTEX
  8
22
 10
83.0439
 20
49.9760
 30
0.0000
  0
SEQEND
  8
0
  0
POLYLINE
  8
22
 66
1
 10
0.0000
 20
0.0000
 30
0.0000
 40
0.1524
 41
0.1524
 70
0
  0
VERTEX
  8
22
 10
83.0820
 20
48.5760
 30
0.0000
  0
VERTEX
  8
22
 10
86.0820
 20
48.5760
 30
0.0000
  0
SEQEND
  8
0
  0
POLYLINE
  8
22
 66
1
 10
0.0000
 20
0.0000
 30
0.0000
 40
0.0762
 41
0.0762
 70
0
  0
VERTEX
  8
22
 10
86.0820
 20
48.5379
 30
0.0000
 42
1.0000
  0
VERTEX
  8
22
 10
86.0820
 20
48.6141
 30
0.0000
  0
SEQEND
  8
0
  0
POLYLINE
  8
22
 66
1
 10
0.0000
 20
0.0000
 30
0.0000
 40
0.0762
 41
0.0762
 70
0
  0
VERTEX
  8
22
 10
83.0820
 20
48.6141
 30
0.0000
 42
1.0000
  0
VERTEX
  8
22
 10
83.0820
 20
48.5379
 30
0.0000
  0
SEQEND
  8
0
  0
POLYLINE
  8
22
 66
1
 10
0.0000
 20
0.0000
 30
0.0000
 40
0.1524
 41
0.1524
 70
0
  0
VERTEX
  8
22
 10
86.0820
 20
48.5760
 30
0.0000
  0
VERTEX
  8
22
 10
86.0820
 20
49.9760
 30
0.0000
  0
SEQEND
  8
0
  0
POLYLINE
  8
22
 66
1
 10
0.0000
 20
0.0000
 30
0.0000
 40
0.0762
 41
0.0762
 70
0
  0
VERTEX
  8
22
 10
86.1201
 20
49.9760
 30
0.0000
 42
1.0000
  0
VERTEX
  8
22
 10
86.0439
 20
49.9760
 30
0.0000
  0
SEQEND
  8
0
  0
POLYLINE
  8
22
 66
1
 10
0.0000
 20
0.0000
 30
0.0000
 40
0.0762
 41
0.0762
 70
0
  0
VERTEX
  8
22
 10
86.0439
 20
48.5760
 30
0.0000
 42
1.0000
  0
VERTEX
  8
22
 10
86.1201
 20
48.5760
 30
0.0000
  0
SEQEND
  8
0
  0
POLYLINE
  8
22
 66
1
 10
0.0000
 20
0.0000
 30
0.0000
 40
0.1524
 41
0.1524
 70
0
  0
VERTEX
  8
22
 10
86.2820
 20
47.8524
 30
0.0000
 42
1.0000
  0
VERTEX
  8
22
 10
86.2820
 20
48.2996
 30
0.0000
 42
1.0000
  0
VERTEX
  8
22
 10
86.2820
 20
47.8524
 30
0.0000
  0
SEQEND
  8
0
  0
POINT
  8
24
 10
70.8660
 20
63.2460
 30
0.0000
  0
POLYLINE
  8
22
 66
1
 10
0.0000
 20
0.0000
 30
0.0000
 40
0.1270
 41
0.1270
 70
0
  0
VERTEX
  8
22
 10
72.6440
 20
62.2300
 30
0.0000
  0
VERTEX
  8
22
 10
72.6155
 20
62.2672
 30
0.0000
  0
SEQEND
  8
0
  0
POLYLINE
  8
22
 66
1
 10
0.0000
 20
0.0000
 30
0.0000
 40
0.0635
 41
0.0635
 70
0
  0
VERTEX
  8
22
 10
72.6406
 20
62.2865
 30
0.0000
 42
1.0000
  0
VERTEX
  8
22
 10
72.5903
 20
62.2479
 30
0.0000
  0
SEQEND
  8
0
  0
POLYLINE
  8
22
 66
1
 10
0.0000
 20
0.0000
 30
0.0000
 40
0.0635
 41
0.0635
 70
0
  0
VERTEX
  8
22
 10
72.6188
 20
62.2107
 30
0.0000
 42
1.0000
  0
VERTEX
  8
22
 10
72.6692
 20
62.2493
 30
0.0000
  0
SEQEND
  8
0
  0
POLYLINE
  8
22
 66
1
 10
0.0000
 20
0.0000
 30
0.0000
 40
0.1270
 41
0.1270
 70
0
  0
VERTEX
  8
22
 10
72.6155
 20
62.2672
 30
0.0000
  0
VERTEX
  8
22
 10
72.5975
 20
62.3105
 30
0.0000
  0
SEQEND
  8
0
  0
POLYLINE
  8
22
 66
1
 10
0.0000
 20
0.0000
 30
0.0000
 40
0.0635
 41
0.0635
 70
0
  0
VERTEX
  8
22
 10
72.6268
 20
62.3227
 30
0.0000
 42
1.0000
  0
VERTEX
  8
22
 10
72.5682
 20
62.2984
 30
0.0000
  0
SEQEND
  8
0
  0
POLYLINE
  8
22
 66
1
 10
0.0000
 20
0.0000
 30
0.0000
 40
0.0635
 41
0.0635
 70
0
  0
VERTEX
  8
22
 10
72.5861
 20
62.2550
 30
0.0000
 42
1.0000
  0
VERTEX
  8
22
 10
72.6448
 20
62.2793
 30
0.0000
  0
SEQEND
  8
0
  0
POLYLINE
  8
22
 66
1
 10
0.0000
 20
0.0000
 30
0.0000
 40
0.1270
 41
0.1270
 70
0
  0
VERTEX
  8
22
 10
72.5975
 20
62.3105
 30
0.0000
  0
VERTEX
  8
22
 10
72.5914
 20
62.3570
 30
0.0000
  0
SEQEND
  8
0
  0
POLYLINE
  8
22
 66
1
 10
0.0000
 20
0.0000
 30
0.0000
 40
0.0635
 41
0.0635
 70
0
  0
VERTEX
  8
22
 10
72.6229
 20
62.3611
 30
0.0000
 42
1.0000
  0
VERTEX
  8
22
 10
72.5599
 20
62.3529
 30
0.0000
  0
SEQEND
  8
0
  0
POLYLINE
  8
22
 66
1
 10
0.0000
 20
0.0000
 30
0.0000
 40
0.0635
 41
0.0635
 70
0
  0
VERTEX
  8
22
 10
72.5660
 20
62.3064
 30
0.0000
 42
1.0000
  0
VERTEX
  8
22
 10
72.6290
 20
62.3147
 30
0.0000
  0
SEQEND
  8
0
  0
POLYLINE
  8
22
 66
1
 10
0.0000
 20
0.0000
 30
0.0000
 40
0.1270
 41
0.1270
 70
0
  0
VERTEX
  8
22
 10
72.5914
 20
62.3570
 30
0.0000
  0
VERTEX
  8
22
 10
72.5975
 20
62.4035
 30
0.0000
  0
SEQEND
  8
0
  0
POLYLINE
  8
22
 66
1
 10
0.0000
 20
0.0000
 30
0.0000
 40
0.0635
 41
0.0635
 70
0
  0
VERTEX
  8
22
 10
72.6290
 20
62.3993
 30
0.0000
 42
1.0000
  0
VERTEX
  8
22
 10
72.5660
 20
62.4076
 30
0.0000
  0
SEQEND
  8
0
  0
POLYLINE
  8
22
 66
1
 10
0.0000
 20
0.0000
 30
0.0000
 40
0.0635
 41
0.0635
 70
0
  0
VERTEX
  8
22
 10
72.5599
 20
62.3611
 30
0.0000
 42
1.0000
  0
VERTEX
  8
22
 10
72.6229
 20
62.3529
 30
0.0000
  0
SEQEND
  8
0
  0
POLYLINE
  8
22
 66
1
 10
0.0000
 20
0.0000
 30
0.0000
 40
0.1270
 41
0.1270
 70
0
  0
VERTEX
  8
22
 10
72.5975
 20
62.4035
 30
0.0000
  0
VERTEX
  8
22
 10
72.6155
 20
62.4468
 30
0.0000
  0
SEQEND
  8
0
  0
POLYLINE
  8
22
 66
1
 10
0.0000
 20
0.0000
 30
0.0000
 40
0.0635
 41
0.0635
 70
0
  0
VERTEX
  8
22
 10
72.6448
 20
62.4347
 30
0.0000
 42
1.0000
  0
VERTEX
  8
22
 10
72.5861
 20
62.4590
 30
0.0000
  0
SEQEND
  8
0
  0
POLYLINE
  8
22
 66
1
 10
0.0000
 20
0.0000
 30
0.0000
 40
0.0635
 41
0.0635
 70
0
  0
VERTEX
  8
22
 10
72.5682
 20
62.4156
 30
0.0000
 42
1.0000
  0
VERTEX
  8
22
 10
72.6268
 20
62.3913
 30
0.0000
  0
SEQEND
  8
0
  0
POLYLINE
  8
22
 66
1
 10
0.0000
 20
0.0000
 30
0.0000
 40
0.1270
 41
0.1270
 70
0
  0
VERTEX
  8
22
 10
72.6155
 20
62.4468
 30
0.0000
  0
VERTEX
  8
22
 10
72.6440
 20
62.4840
 30
0.0000
  0
SEQEND
  8
0
  0
POLYLINE
  8
22
 66
1
 10
0.0000
 20
0.0000
 30
0.0000
 40
0.0635
 41
0.0635
 70
0
  0
VERTEX
  8
22
 10
72.6692
 20
62.4647
 30
0.0000
 42
1.0000
  0
VERTEX
  8
22
 10
72.6188
 20
62.5033
 30
0.0000
  0
SEQEND
  8
0
  0
POLYLINE
  8
22
 66
1
 10
0.0000
 20
0.0000
 30
0.0000
 40
0.0635
 41
0.0635
 70
0
  0
VERTEX
  8
22
 10
72.5903
 20
62.4661
 30
0.0000
 42
1.0000
  0
VERTEX
  8
22
 10
72.6406
 20
62.4275
 30
0.0000
  0
SEQEND
  8
0
  0
POLYLINE
  8
22
 66
1
 10
0.0000
 20
0.0000
 30
0.0000
 40
0.1270
 41
0.1270
 70
0
  0
VERTEX
  8
22
 10
72.6440
 20
62.4840
 30
0.0000
  0
VERTEX
  8
22
 10
72.6812
 20
62.5125
 30
0.0000
  0
SEQEND
  8
0
  0
POLYLINE
  8
22
 66
1
 10
0.0000
 20
0.0000
 30
0.0000
 40
0.0635
 41
0.0635
 70
0
  0
VERTEX
  8
22
 10
72.7005
 20
62.4874
 30
0.0000
 42
1.0000
  0
VERTEX
  8
22
 10
72.6619
 20
62.5377
 30
0.0000
  0
SEQEND
  8
0
  0
POLYLINE
  8
22
 66
1
 10
0.0000
 20
0.0000
 30
0.0000
 40
0.0635
 41
0.0635
 70
0
  0
VERTEX
  8
22
 10
72.6247
 20
62.5092
 30
0.0000
 42
1.0000
  0
VERTEX
  8
22
 10
72.6633
 20
62.4588
 30
0.0000
  0
SEQEND
  8
0
  0
POLYLINE
  8
22
 66
1
 10
0.0000
 20
0.0000
 30
0.0000
 40
0.1270
 41
0.1270
 70
0
  0
VERTEX
  8
22
 10
72.6812
 20
62.5125
 30
0.0000
  0
VERTEX
  8
22
 10
72.7245
 20
62.5305
 30
0.0000
  0
SEQEND
  8
0
  0
POLYLINE
  8
22
 66
1
 10
0.0000
 20
0.0000
 30
0.0000
 40
0.0635
 41
0.0635
 70
0
  0
VERTEX
  8
22
 10
72.7367
 20
62.5012
 30
0.0000
 42
1.0000
  0
VERTEX
  8
22
 10
72.7124
 20
62.5598
 30
0.0000
  0
SEQEND
  8
0
  0
POLYLINE
  8
22
 66
1
 10
0.0000
 20
0.0000
 30
0.0000
 40
0.0635
 41
0.0635
 70
0
  0
VERTEX
  8
22
 10
72.6690
 20
62.5419
 30
0.0000
 42
1.0000
  0
VERTEX
  8
22
 10
72.6933
 20
62.4832
 30
0.0000
  0
SEQEND
  8
0
  0
POLYLINE
  8
22
 66
1
 10
0.0000
 20
0.0000
 30
0.0000
 40
0.1270
 41
0.1270
 70
0
  0
VERTEX
  8
22
 10
72.7245
 20
62.5305
 30
0.0000
  0
VERTEX
  8
22
 10
72.7710
 20
62.5366
 30
0.0000
  0
SEQEND
  8
0
  0
POLYLINE
  8
22
 66
1
 10
0.0000
 20
0.0000
 30
0.0000
 40
0.0635
 41
0.0635
 70
0
  0
VERTEX
  8
22
 10
72.7751
 20
62.5051
 30
0.0000
 42
1.0000
  0
VERTEX
  8
22
 10
72.7669
 20
62.5681
 30
0.0000
  0
SEQEND
  8
0
  0
POLYLINE
  8
22
 66
1
 10
0.0000
 20
0.0000
 30
0.0000
 40
0.0635
 41
0.0635
 70
0
  0
VERTEX
  8
22
 10
72.7204
 20
62.5620
 30
0.0000
 42
1.0000
  0
VERTEX
  8
22
 10
72.7287
 20
62.4990
 30
0.0000
  0
SEQEND
  8
0
  0
POLYLINE
  8
22
 66
1
 10
0.0000
 20
0.0000
 30
0.0000
 40
0.1270
 41
0.1270
 70
0
  0
VERTEX
  8
22
 10
72.7710
 20
62.5366
 30
0.0000
  0
VERTEX
  8
22
 10
72.8175
 20
62.5305
 30
0.0000
  0
SEQEND
  8
0
  0
POLYLINE
  8
22
 66
1
 10
0.0000
 20
0.0000
 30
0.0000
 40
0.0635
 41
0.0635
 70
0
  0
VERTEX
  8
22
 10
72.8133
 20
62.4990
 30
0.0000
 42
1.0000
  0
VERTEX
  8
22
 10
72.8216
 20
62.5620
 30
0.0000
  0
SEQEND
  8
0
  0
POLYLINE
  8
22
 66
1
 10
0.0000
 20
0.0000
 30
0.0000
 40
0.0635
 41
0.0635
 70
0
  0
VERTEX
  8
22
 10
72.7751
 20
62.5681
 30
0.0000
 42
1.0000
  0
VERTEX
  8
22
 10
72.7669
 20
62.5051
 30
0.0000
  0
SEQEND
  8
0
  0
POLYLINE
  8
22
 66
1
 10
0.0000
 20
0.0000
 30
0.0000
 40
0.1270
 41
0.1270
 70
0
  0
VERTEX
  8
22
 10
72.8175
 20
62.5305
 30
0.0000
  0
VERTEX
  8
22
 10
72.8608
 20
62.5125
 30
0.0000
  0
SEQEND
  8
0
  0
POLYLINE
  8
22
 66
1
 10
0.0000
 20
0.0000
 30
0.0000
 40
0.0635
 41
0.0635
 70
0
  0
VERTEX
  8
22
 10
72.8487
 20
62.4832
 30
0.0000
 42
1.0000
  0
VERTEX
  8
22
 10
72.8730
 20
62.5419
 30
0.0000
  0
SEQEND
  8
0
  0
POLYLINE
  8
22
 66
1
 10
0.0000
 20
0.0000
 30
0.0000
 40
0.0635
 41
0.0635
 70
0
  0
VERTEX
  8
22
 10
72.8296
 20
62.5598
 30
0.0000
 42
1.0000
  0
VERTEX
  8
22
 10
72.8053
 20
62.5012
 30
0.0000
  0
SEQEND
  8
0
  0
POLYLINE
  8
22
 66
1
 10
0.0000
 20
0.0000
 30
0.0000
 40
0.1270
 41
0.1270
 70
0
  0
VERTEX
  8
22
 10
72.8608
 20
62.5125
 30
0.0000
  0
VERTEX
  8
22
 10
72.8980
 20
62.4840
 30
0.0000
  0
SEQEND
  8
0
  0
POLYLINE
  8
22
 66
1
 10
0.0000
 20
0.0000
 30
0.0000
 40
0.0635
 41
0.0635
 70
0
  0
VERTEX
  8
22
 10
72.8787
 20
62.4588
 30
0.0000
 42
1.0000
  0
VERTEX
  8
22
 10
72.9173
 20
62.5092
 30
0.0000
  0
SEQEND
  8
0
  0
POLYLINE
  8
22
 66
1
 10
0.0000
 20
0.0000
 30
0.0000
 40
0.0635
 41
0.0635
 70
0
  0
VERTEX
  8
22
 10
72.8801
 20
62.5377
 30
0.0000
 42
1.0000
  0
VERTEX
  8
22
 10
72.8415
 20
62.4874
 30
0.0000
  0
SEQEND
  8
0
  0
POLYLINE
  8
22
 66
1
 10
0.0000
 20
0.0000
 30
0.0000
 40
0.1270
 41
0.1270
 70
0
  0
VERTEX
  8
22
 10
72.8980
 20
62.4840
 30
0.0000
  0
VERTEX
  8
22
 10
72.9265
 20
62.4468
 30
0.0000
  0
SEQEND
  8
0
  0
POLYLINE
  8
22
 66
1
 10
0.0000
 20
0.0000
 30
0.0000
 40
0.0635
 41
0.0635
 70
0
  0
VERTEX
  8
22
 10
72.9014
 20
62.4275
 30
0.0000
 42
1.0000
  0
VERTEX
  8
22
 10
72.9517
 20
62.4661
 30
0.0000
  0
SEQEND
  8
0
  0
POLYLINE
  8
22
 66
1
 10
0.0000
 20
0.0000
 30
0.0000
 40
0.0635
 41
0.0635
 70
0
  0
VERTEX
  8
22
 10
72.9232
 20
62.5033
 30
0.0000
 42
1.0000
  0
VERTEX
  8
22
 10
72.8728
 20
62.4647
 30
0.0000
  0
SEQEND
  8
0
  0
POLYLINE
  8
22
 66
1
 10
0.0000
 20
0.0000
 30
0.0000
 40
0.1270
 41
0.1270
 70
0
  0
VERTEX
  8
22
 10
72.9265
 20
62.4468
 30
0.0000
  0
VERTEX
  8
22
 10
72.9445
 20
62.4035
 30
0.0000
  0
SEQEND
  8
0
  0
POLYLINE
  8
22
 66
1
 10
0.0000
 20
0.0000
 30
0.0000
 40
0.0635
 41
0.0635
 70
0
  0
VERTEX
  8
22
 10
72.9152
 20
62.3913
 30
0.0000
 42
1.0000
  0
VERTEX
  8
22
 10
72.9738
 20
62.4156
 30
0.0000
  0
SEQEND
  8
0
  0
POLYLINE
  8
22
 66
1
 10
0.0000
 20
0.0000
 30
0.0000
 40
0.0635
 41
0.0635
 70
0
  0
VERTEX
  8
22
 10
72.9559
 20
62.4590
 30
0.0000
 42
1.0000
  0
VERTEX
  8
22
 10
72.8972
 20
62.4347
 30
0.0000
  0
SEQEND
  8
0
  0
POLYLINE
  8
22
 66
1
 10
0.0000
 20
0.0000
 30
0.0000
 40
0.1270
 41
0.1270
 70
0
  0
VERTEX
  8
22
 10
72.9445
 20
62.4035
 30
0.0000
  0
VERTEX
  8
22
 10
72.9506
 20
62.3570
 30
0.0000
  0
SEQEND
  8
0
  0
POLYLINE
  8
22
 66
1
 10
0.0000
 20
0.0000
 30
0.0000
 40
0.0635
 41
0.0635
 70
0
  0
VERTEX
  8
22
 10
72.9191
 20
62.3529
 30
0.0000
 42
1.0000
  0
VERTEX
  8
22
 10
72.9821
 20
62.3611
 30
0.0000
  0
SEQEND
  8
0
  0
POLYLINE
  8
22
 66
1
 10
0.0000
 20
0.0000
 30
0.0000
 40
0.0635
 41
0.0635
 70
0
  0
VERTEX
  8
22
 10
72.9760
 20
62.4076
 30
0.0000
 42
1.0000
  0
VERTEX
  8
22
 10
72.9130
 20
62.3993
 30
0.0000
  0
SEQEND
  8
0
  0
POLYLINE
  8
22
 66
1
 10
0.0000
 20
0.0000
 30
0.0000
 40
0.1270
 41
0.1270
 70
0
  0
VERTEX
  8
22
 10
72.9506
 20
62.3570
 30
0.0000
  0
VERTEX
  8
22
 10
72.9445
 20
62.3105
 30
0.0000
  0
SEQEND
  8
0
  0
POLYLINE
  8
22
 66
1
 10
0.0000
 20
0.0000
 30
0.0000
 40
0.0635
 41
0.0635
 70
0
  0
VERTEX
  8
22
 10
72.9130
 20
62.3147
 30
0.0000
 42
1.0000
  0
VERTEX
  8
22
 10
72.9760
 20
62.3064
 30
0.0000
  0
SEQEND
  8
0
  0
POLYLINE
  8
22
 66
1
 10
0.0000
 20
0.0000
 30
0.0000
 40
0.0635
 41
0.0635
 70
0
  0
VERTEX
  8
22
 10
72.9821
 20
62.3529
 30
0.0000
 42
1.0000
  0
VERTEX
  8
22
 10
72.9191
 20
62.3611
 30
0.0000
  0
SEQEND
  8
0
  0
POLYLINE
  8
22
 66
1
 10
0.0000
 20
0.0000
 30
0.0000
 40
0.1270
 41
0.1270
 70
0
  0
VERTEX
  8
22
 10
72.9445
 20
62.3105
 30
0.0000
  0
VERTEX
  8
22
 10
72.9265
 20
62.2672
 30
0.0000
  0
SEQEND
  8
0
  0
POLYLINE
  8
22
 66
1
 10
0.0000
 20
0.0000
 30
0.0000
 40
0.0635
 41
0.0635
 70
0
  0
VERTEX
  8
22
 10
72.8972
 20
62.2793
 30
0.0000
 42
1.0000
  0
VERTEX
  8
22
 10
72.9559
 20
62.2550
 30
0.0000
  0
SEQEND
  8
0
  0
POLYLINE
  8
22
 66
1
 10
0.0000
 20
0.0000
 30
0.0000
 40
0.0635
 41
0.0635
 70
0
  0
VERTEX
  8
22
 10
72.9738
 20
62.2984
 30
0.0000
 42
1.0000
  0
VERTEX
  8
22
 10
72.9152
 20
62.3227
 30
0.0000
  0
SEQEND
  8
0
  0
POLYLINE
  8
22
 66
1
 10
0.0000
 20
0.0000
 30
0.0000
 40
0.1270
 41
0.1270
 70
0
  0
VERTEX
  8
22
 10
72.9265
 20
62.2672
 30
0.0000
  0
VERTEX
  8
22
 10
72.8980
 20
62.2300
 30
0.0000
  0
SEQEND
  8
0
  0
POLYLINE
  8
22
 66
1
 10
0.0000
 20
0.0000
 30
0.0000
 40
0.0635
 41
0.0635
 70
0
  0
VERTEX
  8
22
 10
72.8728
 20
62.2493
 30
0.0000
 42
1.0000
  0
VERTEX
  8
22
 10
72.9232
 20
62.2107
 30
0.0000
  0
SEQEND
  8
0
  0
POLYLINE
  8
22
 66
1
 10
0.0000
 20
0.0000
 30
0.0000
 40
0.0635
 41
0.0635
 70
0
  0
VERTEX
  8
22
 10
72.9517
 20
62.2479
 30
0.0000
 42
1.0000
  0
VERTEX
  8
22
 10
72.9014
 20
62.2865
 30
0.0000
  0
SEQEND
  8
0
  0
POLYLINE
  8
22
 66
1
 10
0.0000
 20
0.0000
 30
0.0000
 40
0.1270
 41
0.1270
 70
0
  0
VERTEX
  8
22
 10
72.8980
 20
62.2300
 30
0.0000
  0
VERTEX
  8
22
 10
72.8608
 20
62.2015
 30
0.0000
  0
SEQEND
  8
0
  0
POLYLINE
  8
22
 66
1
 10
0.0000
 20
0.0000
 30
0.0000
 40
0.0635
 41
0.0635
 70
0
  0
VERTEX
  8
22
 10
72.8415
 20
62.2266
 30
0.0000
 42
1.0000
  0
VERTEX
  8
22
 10
72.8801
 20
62.1763
 30
0.0000
  0
SEQEND
  8
0
  0
POLYLINE
  8
22
 66
1
 10
0.0000
 20
0.0000
 30
0.0000
 40
0.0635
 41
0.0635
 70
0
  0
VERTEX
  8
22
 10
72.9173
 20
62.2048
 30
0.0000
 42
1.0000
  0
VERTEX
  8
22
 10
72.8787
 20
62.2552
 30
0.0000
  0
SEQEND
  8
0
  0
POLYLINE
  8
22
 66
1
 10
0.0000
 20
0.0000
 30
0.0000
 40
0.1270
 41
0.1270
 70
0
  0
VERTEX
  8
22
 10
72.8608
 20
62.2015
 30
0.0000
  0
VERTEX
  8
22
 10
72.8175
 20
62.1835
 30
0.0000
  0
SEQEND
  8
0
  0
POLYLINE
  8
22
 66
1
 10
0.0000
 20
0.0000
 30
0.0000
 40
0.0635
 41
0.0635
 70
0
  0
VERTEX
  8
22
 10
72.8053
 20
62.2128
 30
0.0000
 42
1.0000
  0
VERTEX
  8
22
 10
72.8296
 20
62.1542
 30
0.0000
  0
SEQEND
  8
0
  0
POLYLINE
  8
22
 66
1
 10
0.0000
 20
0.0000
 30
0.0000
 40
0.0635
 41
0.0635
 70
0
  0
VERTEX
  8
22
 10
72.8730
 20
62.1721
 30
0.0000
 42
1.0000
  0
VERTEX
  8
22
 10
72.8487
 20
62.2308
 30
0.0000
  0
SEQEND
  8
0
  0
POLYLINE
  8
22
 66
1
 10
0.0000
 20
0.0000
 30
0.0000
 40
0.1270
 41
0.1270
 70
0
  0
VERTEX
  8
22
 10
72.8175
 20
62.1835
 30
0.0000
  0
VERTEX
  8
22
 10
72.7710
 20
62.1774
 30
0.0000
  0
SEQEND
  8
0
  0
POLYLINE
  8
22
 66
1
 10
0.0000
 20
0.0000
 30
0.0000
 40
0.0635
 41
0.0635
 70
0
  0
VERTEX
  8
22
 10
72.7669
 20
62.2089
 30
0.0000
 42
1.0000
  0
VERTEX
  8
22
 10
72.7751
 20
62.1459
 30
0.0000
  0
SEQEND
  8
0
  0
POLYLINE
  8
22
 66
1
 10
0.0000
 20
0.0000
 30
0.0000
 40
0.0635
 41
0.0635
 70
0
  0
VERTEX
  8
22
 10
72.8216
 20
62.1520
 30
0.0000
 42
1.0000
  0
VERTEX
  8
22
 10
72.8133
 20
62.2150
 30
0.0000
  0
SEQEND
  8
0
  0
POLYLINE
  8
22
 66
1
 10
0.0000
 20
0.0000
 30
0.0000
 40
0.1270
 41
0.1270
 70
0
  0
VERTEX
  8
22
 10
72.7710
 20
62.1774
 30
0.0000
  0
VERTEX
  8
22
 10
72.7245
 20
62.1835
 30
0.0000
  0
SEQEND
  8
0
  0
POLYLINE
  8
22
 66
1
 10
0.0000
 20
0.0000
 30
0.0000
 40
0.0635
 41
0.0635
 70
0
  0
VERTEX
  8
22
 10
72.7287
 20
62.2150
 30
0.0000
 42
1.0000
  0
VERTEX
  8
22
 10
72.7204
 20
62.1520
 30
0.0000
  0
SEQEND
  8
0
  0
POLYLINE
  8
22
 66
1
 10
0.0000
 20
0.0000
 30
0.0000
 40
0.0635
 41
0.0635
 70
0
  0
VERTEX
  8
22
 10
72.7669
 20
62.1459
 30
0.0000
 42
1.0000
  0
VERTEX
  8
22
 10
72.7751
 20
62.2089
 30
0.0000
  0
SEQEND
  8
0
  0
POLYLINE
  8
22
 66
1
 10
0.0000
 20
0.0000
 30
0.0000
 40
0.1270
 41
0.1270
 70
0
  0
VERTEX
  8
22
 10
72.7245
 20
62.1835
 30
0.0000
  0
VERTEX
  8
22
 10
72.6812
 20
62.2015
 30
0.0000
  0
SEQEND
  8
0
  0
POLYLINE
  8
22
 66
1
 10
0.0000
 20
0.0000
 30
0.0000
 40
0.0635
 41
0.0635
 70
0
  0
VERTEX
  8
22
 10
72.6933
 20
62.2308
 30
0.0000
 42
1.0000
  0
VERTEX
  8
22
 10
72.6690
 20
62.1721
 30
0.0000
  0
SEQEND
  8
0
  0
POLYLINE
  8
22
 66
1
 10
0.0000
 20
0.0000
 30
0.0000
 40
0.0635
 41
0.0635
 70
0
  0
VERTEX
  8
22
 10
72.7124
 20
62.1542
 30
0.0000
 42
1.0000
  0
VERTEX
  8
22
 10
72.7367
 20
62.2128
 30
0.0000
  0
SEQEND
  8
0
  0
POLYLINE
  8
22
 66
1
 10
0.0000
 20
0.0000
 30
0.0000
 40
0.1270
 41
0.1270
 70
0
  0
VERTEX
  8
22
 10
72.6812
 20
62.2015
 30
0.0000
  0
VERTEX
  8
22
 10
72.6440
 20
62.2300
 30
0.0000
  0
SEQEND
  8
0
  0
POLYLINE
  8
22
 66
1
 10
0.0000
 20
0.0000
 30
0.0000
 40
0.0635
 41
0.0635
 70
0
  0
VERTEX
  8
22
 10
72.6633
 20
62.2552
 30
0.0000
 42
1.0000
  0
VERTEX
  8
22
 10
72.6247
 20
62.2048
 30
0.0000
  0
SEQEND
  8
0
  0
POLYLINE
  8
22
 66
1
 10
0.0000
 20
0.0000
 30
0.0000
 40
0.0635
 41
0.0635
 70
0
  0
VERTEX
  8
22
 10
72.6619
 20
62.1763
 30
0.0000
 42
1.0000
  0
VERTEX
  8
22
 10
72.7005
 20
62.2266
 30
0.0000
  0
SEQEND
  8
0
  0
POLYLINE
  8
22
 66
1
 10
0.0000
 20
0.0000
 30
0.0000
 40
0.1270
 41
0.1270
 70
0
  0
VERTEX
  8
22
 10
72.8980
 20
62.2300
 30
0.0000
  0
VERTEX
  8
22
 10
72.6440
 20
62.2300
 30
0.0000
  0
SEQEND
  8
0
  0
POLYLINE
  8
22
 66
1
 10
0.0000
 20
0.0000
 30
0.0000
 40
0.0635
 41
0.0635
 70
0
  0
VERTEX
  8
22
 10
72.6440
 20
62.2618
 30
0.0000
 42
1.0000
  0
VERTEX
  8
22
 10
72.6440
 20
62.1983
 30
0.0000
  0
SEQEND
  8
0
  0
POLYLINE
  8
22
 66
1
 10
0.0000
 20
0.0000
 30
0.0000
 40
0.0635
 41
0.0635
 70
0
  0
VERTEX
  8
22
 10
72.8980
 20
62.1983
 30
0.0000
 42
1.0000
  0
VERTEX
  8
22
 10
72.8980
 20
62.2618
 30
0.0000
  0
SEQEND
  8
0
  0
POLYLINE
  8
22
 66
1
 10
0.0000
 20
0.0000
 30
0.0000
 40
0.1270
 41
0.1270
 70
0
  0
VERTEX
  8
22
 10
72.9506
 20
62.3570
 30
0.0000
  0
VERTEX
  8
22
 10
72.5914
 20
62.3570
 30
0.0000
  0
SEQEND
  8
0
  0
POLYLINE
  8
22
 66
1
 10
0.0000
 20
0.0000
 30
0.0000
 40
0.0635
 41
0.0635
 70
0
  0
VERTEX
  8
22
 10
72.5914
 20
62.3888
 30
0.0000
 42
1.0000
  0
VERTEX
  8
22
 10
72.5914
 20
62.3253
 30
0.0000
  0
SEQEND
  8
0
  0
POLYLINE
  8
22
 66
1
 10
0.0000
 20
0.0000
 30
0.0000
 40
0.0635
 41
0.0635
 70
0
  0
VERTEX
  8
22
 10
72.9506
 20
62.3253
 30
0.0000
 42
1.0000
  0
VERTEX
  8
22
 10
72.9506
 20
62.3888
 30
0.0000
  0
SEQEND
  8
0
  0
POLYLINE
  8
22
 66
1
 10
0.0000
 20
0.0000
 30
0.0000
 40
0.1270
 41
0.1270
 70
0
  0
VERTEX
  8
22
 10
72.8980
 20
62.4840
 30
0.0000
  0
VERTEX
  8
22
 10
72.6440
 20
62.4840
 30
0.0000
  0
SEQEND
  8
0
  0
POLYLINE
  8
22
 66
1
 10
0.0000
 20
0.0000
 30
0.0000
 40
0.0635
 41
0.0635
 70
0
  0
VERTEX
  8
22
 10
72.6440
 20
62.5158
 30
0.0000
 42
1.0000
  0
VERTEX
  8
22
 10
72.6440
 20
62.4522
 30
0.0000
  0
SEQEND
  8
0
  0
POLYLINE
  8
22
 66
1
 10
0.0000
 20
0.0000
 30
0.0000
 40
0.0635
 41
0.0635
 70
0
  0
VERTEX
  8
22
 10
72.8980
 20
62.4522
 30
0.0000
 42
1.0000
  0
VERTEX
  8
22
 10
72.8980
 20
62.5158
 30
0.0000
  0
SEQEND
  8
0
  0
POLYLINE
  8
22
 66
1
 10
0.0000
 20
0.0000
 30
0.0000
 40
0.2032
 41
0.2032
 70
0
  0
VERTEX
  8
22
 10
68.4660
 20
65.1460
 30
0.0000
  0
VERTEX
  8
22
 10
68.4660
 20
61.3380
 30
0.0000
  0
SEQEND
  8
0
  0
POLYLINE
  8
22
 66
1
 10
0.0000
 20
0.0000
 30
0.0000
 40
0.1016
 41
0.1016
 70
0
  0
VERTEX
  8
22
 10
68.4152
 20
61.3380
 30
0.0000
 42
1.0000
  0
VERTEX
  8
22
 10
68.5168
 20
61.3380
 30
0.0000
  0
SEQEND
  8
0
  0
POLYLINE
  8
22
 66
1
 10
0.0000
 20
0.0000
 30
0.0000
 40
0.1016
 41
0.1016
 70
0
  0
VERTEX
  8
22
 10
68.5168
 20
65.1460
 30
0.0000
 42
1.0000
  0
VERTEX
  8
22
 10
68.4152
 20
65.1460
 30
0.0000
  0
SEQEND
  8
0
  0
POLYLINE
  8
22
 66
1
 10
0.0000
 20
0.0000
 30
0.0000
 40
0.2032
 41
0.2032
 70
0
  0
VERTEX
  8
22
 10
68.4660
 20
61.3460
 30
0.0000
  0
VERTEX
  8
22
 10
73.2660
 20
61.3460
 30
0.0000
  0
SEQEND
  8
0
  0
POLYLINE
  8
22
 66
1
 10
0.0000
 20
0.0000
 30
0.0000
 40
0.1016
 41
0.1016
 70
0
  0
VERTEX
  8
22
 10
73.2660
 20
61.2952
 30
0.0000
 42
1.0000
  0
VERTEX
  8
22
 10
73.2660
 20
61.3968
 30
0.0000
  0
SEQEND
  8
0
  0
POLYLINE
  8
22
 66
1
 10
0.0000
 20
0.0000
 30
0.0000
 40
0.1016
 41
0.1016
 70
0
  0
VERTEX
  8
22
 10
68.4660
 20
61.3968
 30
0.0000
 42
1.0000
  0
VERTEX
  8
22
 10
68.4660
 20
61.2952
 30
0.0000
  0
SEQEND
  8
0
  0
POLYLINE
  8
22
 66
1
 10
0.0000
 20
0.0000
 30
0.0000
 40
0.2032
 41
0.2032
 70
0
  0
VERTEX
  8
22
 10
73.2660
 20
61.3380
 30
0.0000
  0
VERTEX
  8
22
 10
73.2660
 20
65.1460
 30
0.0000
  0
SEQEND
  8
0
  0
POLYLINE
  8
22
 66
1
 10
0.0000
 20
0.0000
 30
0.0000
 40
0.1016
 41
0.1016
 70
0
  0
VERTEX
  8
22
 10
73.3168
 20
65.1460
 30
0.0000
 42
1.0000
  0
VERTEX
  8
22
 10
73.2152
 20
65.1460
 30
0.0000
  0
SEQEND
  8
0
  0
POLYLINE
  8
22
 66
1
 10
0.0000
 20
0.0000
 30
0.0000
 40
0.1016
 41
0.1016
 70
0
  0
VERTEX
  8
22
 10
73.2152
 20
61.3380
 30
0.0000
 42
1.0000
  0
VERTEX
  8
22
 10
73.3168
 20
61.3380
 30
0.0000
  0
SEQEND
  8
0
  0
POLYLINE
  8
22
 66
1
 10
0.0000
 20
0.0000
 30
0.0000
 40
0.2032
 41
0.2032
 70
0
  0
VERTEX
  8
22
 10
73.2660
 20
65.1460
 30
0.0000
  0
VERTEX
  8
22
 10
68.4660
 20
65.1460
 30
0.0000
  0
SEQEND
  8
0
  0
POLYLINE
  8
22
 66
1
 10
0.0000
 20
0.0000
 30
0.0000
 40
0.1016
 41
0.1016
 70
0
  0
VERTEX
  8
22
 10
68.4660
 20
65.1968
 30
0.0000
 42
1.0000
  0
VERTEX
  8
22
 10
68.4660
 20
65.0952
 30
0.0000
  0
SEQEND
  8
0
  0
POLYLINE
  8
22
 66
1
 10
0.0000
 20
0.0000
 30
0.0000
 40
0.1016
 41
0.1016
 70
0
  0
VERTEX
  8
22
 10
73.2660
 20
65.0952
 30
0.0000
 42
1.0000
  0
VERTEX
  8
22
 10
73.2660
 20
65.1968
 30
0.0000
  0
SEQEND
  8
0
  0
POINT
  8
24
 10
72.1360
 20
82.8040
 30
0.0000
  0
POLYLINE
  8
22
 66
1
 10
0.0000
 20
0.0000
 30
0.0000
 40
0.1270
 41
0.1270
 70
0
  0
VERTEX
  8
22
 10
73.9140
 20
81.7880
 30
0.0000
  0
VERTEX
  8
22
 10
73.8855
 20
81.8252
 30
0.0000
  0
SEQEND
  8
0
  0
POLYLINE
  8
22
 66
1
 10
0.0000
 20
0.0000
 30
0.0000
 40
0.0635
 41
0.0635
 70
0
  0
VERTEX
  8
22
 10
73.9106
 20
81.8445
 30
0.0000
 42
1.0000
  0
VERTEX
  8
22
 10
73.8603
 20
81.8059
 30
0.0000
  0
SEQEND
  8
0
  0
POLYLINE
  8
22
 66
1
 10
0.0000
 20
0.0000
 30
0.0000
 40
0.0635
 41
0.0635
 70
0
  0
VERTEX
  8
22
 10
73.8888
 20
81.7687
 30
0.0000
 42
1.0000
  0
VERTEX
  8
22
 10
73.9392
 20
81.8073
 30
0.0000
  0
SEQEND
  8
0
  0
POLYLINE
  8
22
 66
1
 10
0.0000
 20
0.0000
 30
0.0000
 40
0.1270
 41
0.1270
 70
0
  0
VERTEX
  8
22
 10
73.8855
 20
81.8252
 30
0.0000
  0
VERTEX
  8
22
 10
73.8675
 20
81.8685
 30
0.0000
  0
SEQEND
  8
0
  0
POLYLINE
  8
22
 66
1
 10
0.0000
 20
0.0000
 30
0.0000
 40
0.0635
 41
0.0635
 70
0
  0
VERTEX
  8
22
 10
73.8968
 20
81.8807
 30
0.0000
 42
1.0000
  0
VERTEX
  8
22
 10
73.8382
 20
81.8564
 30
0.0000
  0
SEQEND
  8
0
  0
POLYLINE
  8
22
 66
1
 10
0.0000
 20
0.0000
 30
0.0000
 40
0.0635
 41
0.0635
 70
0
  0
VERTEX
  8
22
 10
73.8561
 20
81.8130
 30
0.0000
 42
1.0000
  0
VERTEX
  8
22
 10
73.9148
 20
81.8373
 30
0.0000
  0
SEQEND
  8
0
  0
POLYLINE
  8
22
 66
1
 10
0.0000
 20
0.0000
 30
0.0000
 40
0.1270
 41
0.1270
 70
0
  0
VERTEX
  8
22
 10
73.8675
 20
81.8685
 30
0.0000
  0
VERTEX
  8
22
 10
73.8614
 20
81.9150
 30
0.0000
  0
SEQEND
  8
0
  0
POLYLINE
  8
22
 66
1
 10
0.0000
 20
0.0000
 30
0.0000
 40
0.0635
 41
0.0635
 70
0
  0
VERTEX
  8
22
 10
73.8929
 20
81.9191
 30
0.0000
 42
1.0000
  0
VERTEX
  8
22
 10
73.8299
 20
81.9109
 30
0.0000
  0
SEQEND
  8
0
  0
POLYLINE
  8
22
 66
1
 10
0.0000
 20
0.0000
 30
0.0000
 40
0.0635
 41
0.0635
 70
0
  0
VERTEX
  8
22
 10
73.8360
 20
81.8644
 30
0.0000
 42
1.0000
  0
VERTEX
  8
22
 10
73.8990
 20
81.8727
 30
0.0000
  0
SEQEND
  8
0
  0
POLYLINE
  8
22
 66
1
 10
0.0000
 20
0.0000
 30
0.0000
 40
0.1270
 41
0.1270
 70
0
  0
VERTEX
  8
22
 10
73.8614
 20
81.9150
 30
0.0000
  0
VERTEX
  8
22
 10
73.8675
 20
81.9615
 30
0.0000
  0
SEQEND
  8
0
  0
POLYLINE
  8
22
 66
1
 10
0.0000
 20
0.0000
 30
0.0000
 40
0.0635
 41
0.0635
 70
0
  0
VERTEX
  8
22
 10
73.8990
 20
81.9573
 30
0.0000
 42
1.0000
  0
VERTEX
  8
22
 10
73.8360
 20
81.9656
 30
0.0000
  0
SEQEND
  8
0
  0
POLYLINE
  8
22
 66
1
 10
0.0000
 20
0.0000
 30
0.0000
 40
0.0635
 41
0.0635
 70
0
  0
VERTEX
  8
22
 10
73.8299
 20
81.9191
 30
0.0000
 42
1.0000
  0
VERTEX
  8
22
 10
73.8929
 20
81.9109
 30
0.0000
  0
SEQEND
  8
0
  0
POLYLINE
  8
22
 66
1
 10
0.0000
 20
0.0000
 30
0.0000
 40
0.1270
 41
0.1270
 70
0
  0
VERTEX
  8
22
 10
73.8675
 20
81.9615
 30
0.0000
  0
VERTEX
  8
22
 10
73.8855
 20
82.0048
 30
0.0000
  0
SEQEND
  8
0
  0
POLYLINE
  8
22
 66
1
 10
0.0000
 20
0.0000
 30
0.0000
 40
0.0635
 41
0.0635
 70
0
  0
VERTEX
  8
22
 10
73.9148
 20
81.9927
 30
0.0000
 42
1.0000
  0
VERTEX
  8
22
 10
73.8561
 20
82.0170
 30
0.0000
  0
SEQEND
  8
0
  0
POLYLINE
  8
22
 66
1
 10
0.0000
 20
0.0000
 30
0.0000
 40
0.0635
 41
0.0635
 70
0
  0
VERTEX
  8
22
 10
73.8382
 20
81.9736
 30
0.0000
 42
1.0000
  0
VERTEX
  8
22
 10
73.8968
 20
81.9493
 30
0.0000
  0
SEQEND
  8
0
  0
POLYLINE
  8
22
 66
1
 10
0.0000
 20
0.0000
 30
0.0000
 40
0.1270
 41
0.1270
 70
0
  0
VERTEX
  8
22
 10
73.8855
 20
82.0048
 30
0.0000
  0
VERTEX
  8
22
 10
73.9140
 20
82.0420
 30
0.0000
  0
SEQEND
  8
0
  0
POLYLINE
  8
22
 66
1
 10
0.0000
 20
0.0000
 30
0.0000
 40
0.0635
 41
0.0635
 70
0
  0
VERTEX
  8
22
 10
73.9392
 20
82.0227
 30
0.0000
 42
1.0000
  0
VERTEX
  8
22
 10
73.8888
 20
82.0613
 30
0.0000
  0
SEQEND
  8
0
  0
POLYLINE
  8
22
 66
1
 10
0.0000
 20
0.0000
 30
0.0000
 40
0.0635
 41
0.0635
 70
0
  0
VERTEX
  8
22
 10
73.8603
 20
82.0241
 30
0.0000
 42
1.0000
  0
VERTEX
  8
22
 10
73.9106
 20
81.9855
 30
0.0000
  0
SEQEND
  8
0
  0
POLYLINE
  8
22
 66
1
 10
0.0000
 20
0.0000
 30
0.0000
 40
0.1270
 41
0.1270
 70
0
  0
VERTEX
  8
22
 10
73.9140
 20
82.0420
 30
0.0000
  0
VERTEX
  8
22
 10
73.9512
 20
82.0705
 30
0.0000
  0
SEQEND
  8
0
  0
POLYLINE
  8
22
 66
1
 10
0.0000
 20
0.0000
 30
0.0000
 40
0.0635
 41
0.0635
 70
0
  0
VERTEX
  8
22
 10
73.9705
 20
82.0454
 30
0.0000
 42
1.0000
  0
VERTEX
  8
22
 10
73.9319
 20
82.0957
 30
0.0000
  0
SEQEND
  8
0
  0
POLYLINE
  8
22
 66
1
 10
0.0000
 20
0.0000
 30
0.0000
 40
0.0635
 41
0.0635
 70
0
  0
VERTEX
  8
22
 10
73.8947
 20
82.0672
 30
0.0000
 42
1.0000
  0
VERTEX
  8
22
 10
73.9333
 20
82.0168
 30
0.0000
  0
SEQEND
  8
0
  0
POLYLINE
  8
22
 66
1
 10
0.0000
 20
0.0000
 30
0.0000
 40
0.1270
 41
0.1270
 70
0
  0
VERTEX
  8
22
 10
73.9512
 20
82.0705
 30
0.0000
  0
VERTEX
  8
22
 10
73.9945
 20
82.0885
 30
0.0000
  0
SEQEND
  8
0
  0
POLYLINE
  8
22
 66
1
 10
0.0000
 20
0.0000
 30
0.0000
 40
0.0635
 41
0.0635
 70
0
  0
VERTEX
  8
22
 10
74.0067
 20
82.0592
 30
0.0000
 42
1.0000
  0
VERTEX
  8
22
 10
73.9824
 20
82.1178
 30
0.0000
  0
SEQEND
  8
0
  0
POLYLINE
  8
22
 66
1
 10
0.0000
 20
0.0000
 30
0.0000
 40
0.0635
 41
0.0635
 70
0
  0
VERTEX
  8
22
 10
73.9390
 20
82.0999
 30
0.0000
 42
1.0000
  0
VERTEX
  8
22
 10
73.9633
 20
82.0412
 30
0.0000
  0
SEQEND
  8
0
  0
POLYLINE
  8
22
 66
1
 10
0.0000
 20
0.0000
 30
0.0000
 40
0.1270
 41
0.1270
 70
0
  0
VERTEX
  8
22
 10
73.9945
 20
82.0885
 30
0.0000
  0
VERTEX
  8
22
 10
74.0410
 20
82.0946
 30
0.0000
  0
SEQEND
  8
0
  0
POLYLINE
  8
22
 66
1
 10
0.0000
 20
0.0000
 30
0.0000
 40
0.0635
 41
0.0635
 70
0
  0
VERTEX
  8
22
 10
74.0451
 20
82.0631
 30
0.0000
 42
1.0000
  0
VERTEX
  8
22
 10
74.0369
 20
82.1261
 30
0.0000
  0
SEQEND
  8
0
  0
POLYLINE
  8
22
 66
1
 10
0.0000
 20
0.0000
 30
0.0000
 40
0.0635
 41
0.0635
 70
0
  0
VERTEX
  8
22
 10
73.9904
 20
82.1200
 30
0.0000
 42
1.0000
  0
VERTEX
  8
22
 10
73.9987
 20
82.0570
 30
0.0000
  0
SEQEND
  8
0
  0
POLYLINE
  8
22
 66
1
 10
0.0000
 20
0.0000
 30
0.0000
 40
0.1270
 41
0.1270
 70
0
  0
VERTEX
  8
22
 10
74.0410
 20
82.0946
 30
0.0000
  0
VERTEX
  8
22
 10
74.0875
 20
82.0885
 30
0.0000
  0
SEQEND
  8
0
  0
POLYLINE
  8
22
 66
1
 10
0.0000
 20
0.0000
 30
0.0000
 40
0.0635
 41
0.0635
 70
0
  0
VERTEX
  8
22
 10
74.0833
 20
82.0570
 30
0.0000
 42
1.0000
  0
VERTEX
  8
22
 10
74.0916
 20
82.1200
 30
0.0000
  0
SEQEND
  8
0
  0
POLYLINE
  8
22
 66
1
 10
0.0000
 20
0.0000
 30
0.0000
 40
0.0635
 41
0.0635
 70
0
  0
VERTEX
  8
22
 10
74.0451
 20
82.1261
 30
0.0000
 42
1.0000
  0
VERTEX
  8
22
 10
74.0369
 20
82.0631
 30
0.0000
  0
SEQEND
  8
0
  0
POLYLINE
  8
22
 66
1
 10
0.0000
 20
0.0000
 30
0.0000
 40
0.1270
 41
0.1270
 70
0
  0
VERTEX
  8
22
 10
74.0875
 20
82.0885
 30
0.0000
  0
VERTEX
  8
22
 10
74.1308
 20
82.0705
 30
0.0000
  0
SEQEND
  8
0
  0
POLYLINE
  8
22
 66
1
 10
0.0000
 20
0.0000
 30
0.0000
 40
0.0635
 41
0.0635
 70
0
  0
VERTEX
  8
22
 10
74.1187
 20
82.0412
 30
0.0000
 42
1.0000
  0
VERTEX
  8
22
 10
74.1430
 20
82.0999
 30
0.0000
  0
SEQEND
  8
0
  0
POLYLINE
  8
22
 66
1
 10
0.0000
 20
0.0000
 30
0.0000
 40
0.0635
 41
0.0635
 70
0
  0
VERTEX
  8
22
 10
74.0996
 20
82.1178
 30
0.0000
 42
1.0000
  0
VERTEX
  8
22
 10
74.0753
 20
82.0592
 30
0.0000
  0
SEQEND
  8
0
  0
POLYLINE
  8
22
 66
1
 10
0.0000
 20
0.0000
 30
0.0000
 40
0.1270
 41
0.1270
 70
0
  0
VERTEX
  8
22
 10
74.1308
 20
82.0705
 30
0.0000
  0
VERTEX
  8
22
 10
74.1680
 20
82.0420
 30
0.0000
  0
SEQEND
  8
0
  0
POLYLINE
  8
22
 66
1
 10
0.0000
 20
0.0000
 30
0.0000
 40
0.0635
 41
0.0635
 70
0
  0
VERTEX
  8
22
 10
74.1487
 20
82.0168
 30
0.0000
 42
1.0000
  0
VERTEX
  8
22
 10
74.1873
 20
82.0672
 30
0.0000
  0
SEQEND
  8
0
  0
POLYLINE
  8
22
 66
1
 10
0.0000
 20
0.0000
 30
0.0000
 40
0.0635
 41
0.0635
 70
0
  0
VERTEX
  8
22
 10
74.1501
 20
82.0957
 30
0.0000
 42
1.0000
  0
VERTEX
  8
22
 10
74.1115
 20
82.0454
 30
0.0000
  0
SEQEND
  8
0
  0
POLYLINE
  8
22
 66
1
 10
0.0000
 20
0.0000
 30
0.0000
 40
0.1270
 41
0.1270
 70
0
  0
VERTEX
  8
22
 10
74.1680
 20
82.0420
 30
0.0000
  0
VERTEX
  8
22
 10
74.1965
 20
82.0048
 30
0.0000
  0
SEQEND
  8
0
  0
POLYLINE
  8
22
 66
1
 10
0.0000
 20
0.0000
 30
0.0000
 40
0.0635
 41
0.0635
 70
0
  0
VERTEX
  8
22
 10
74.1714
 20
81.9855
 30
0.0000
 42
1.0000
  0
VERTEX
  8
22
 10
74.2217
 20
82.0241
 30
0.0000
  0
SEQEND
  8
0
  0
POLYLINE
  8
22
 66
1
 10
0.0000
 20
0.0000
 30
0.0000
 40
0.0635
 41
0.0635
 70
0
  0
VERTEX
  8
22
 10
74.1932
 20
82.0613
 30
0.0000
 42
1.0000
  0
VERTEX
  8
22
 10
74.1428
 20
82.0227
 30
0.0000
  0
SEQEND
  8
0
  0
POLYLINE
  8
22
 66
1
 10
0.0000
 20
0.0000
 30
0.0000
 40
0.1270
 41
0.1270
 70
0
  0
VERTEX
  8
22
 10
74.1965
 20
82.0048
 30
0.0000
  0
VERTEX
  8
22
 10
74.2145
 20
81.9615
 30
0.0000
  0
SEQEND
  8
0
  0
POLYLINE
  8
22
 66
1
 10
0.0000
 20
0.0000
 30
0.0000
 40
0.0635
 41
0.0635
 70
0
  0
VERTEX
  8
22
 10
74.1852
 20
81.9493
 30
0.0000
 42
1.0000
  0
VERTEX
  8
22
 10
74.2438
 20
81.9736
 30
0.0000
  0
SEQEND
  8
0
  0
POLYLINE
  8
22
 66
1
 10
0.0000
 20
0.0000
 30
0.0000
 40
0.0635
 41
0.0635
 70
0
  0
VERTEX
  8
22
 10
74.2259
 20
82.0170
 30
0.0000
 42
1.0000
  0
VERTEX
  8
22
 10
74.1672
 20
81.9927
 30
0.0000
  0
SEQEND
  8
0
  0
POLYLINE
  8
22
 66
1
 10
0.0000
 20
0.0000
 30
0.0000
 40
0.1270
 41
0.1270
 70
0
  0
VERTEX
  8
22
 10
74.2145
 20
81.9615
 30
0.0000
  0
VERTEX
  8
22
 10
74.2206
 20
81.9150
 30
0.0000
  0
SEQEND
  8
0
  0
POLYLINE
  8
22
 66
1
 10
0.0000
 20
0.0000
 30
0.0000
 40
0.0635
 41
0.0635
 70
0
  0
VERTEX
  8
22
 10
74.1891
 20
81.9109
 30
0.0000
 42
1.0000
  0
VERTEX
  8
22
 10
74.2521
 20
81.9191
 30
0.0000
  0
SEQEND
  8
0
  0
POLYLINE
  8
22
 66
1
 10
0.0000
 20
0.0000
 30
0.0000
 40
0.0635
 41
0.0635
 70
0
  0
VERTEX
  8
22
 10
74.2460
 20
81.9656
 30
0.0000
 42
1.0000
  0
VERTEX
  8
22
 10
74.1830
 20
81.9573
 30
0.0000
  0
SEQEND
  8
0
  0
POLYLINE
  8
22
 66
1
 10
0.0000
 20
0.0000
 30
0.0000
 40
0.1270
 41
0.1270
 70
0
  0
VERTEX
  8
22
 10
74.2206
 20
81.9150
 30
0.0000
  0
VERTEX
  8
22
 10
74.2145
 20
81.8685
 30
0.0000
  0
SEQEND
  8
0
  0
POLYLINE
  8
22
 66
1
 10
0.0000
 20
0.0000
 30
0.0000
 40
0.0635
 41
0.0635
 70
0
  0
VERTEX
  8
22
 10
74.1830
 20
81.8727
 30
0.0000
 42
1.0000
  0
VERTEX
  8
22
 10
74.2460
 20
81.8644
 30
0.0000
  0
SEQEND
  8
0
  0
POLYLINE
  8
22
 66
1
 10
0.0000
 20
0.0000
 30
0.0000
 40
0.0635
 41
0.0635
 70
0
  0
VERTEX
  8
22
 10
74.2521
 20
81.9109
 30
0.0000
 42
1.0000
  0
VERTEX
  8
22
 10
74.1891
 20
81.9191
 30
0.0000
  0
SEQEND
  8
0
  0
POLYLINE
  8
22
 66
1
 10
0.0000
 20
0.0000
 30
0.0000
 40
0.1270
 41
0.1270
 70
0
  0
VERTEX
  8
22
 10
74.2145
 20
81.8685
 30
0.0000
  0
VERTEX
  8
22
 10
74.1965
 20
81.8252
 30
0.0000
  0
SEQEND
  8
0
  0
POLYLINE
  8
22
 66
1
 10
0.0000
 20
0.0000
 30
0.0000
 40
0.0635
 41
0.0635
 70
0
  0
VERTEX
  8
22
 10
74.1672
 20
81.8373
 30
0.0000
 42
1.0000
  0
VERTEX
  8
22
 10
74.2259
 20
81.8130
 30
0.0000
  0
SEQEND
  8
0
  0
POLYLINE
  8
22
 66
1
 10
0.0000
 20
0.0000
 30
0.0000
 40
0.0635
 41
0.0635
 70
0
  0
VERTEX
  8
22
 10
74.2438
 20
81.8564
 30
0.0000
 42
1.0000
  0
VERTEX
  8
22
 10
74.1852
 20
81.8807
 30
0.0000
  0
SEQEND
  8
0
  0
POLYLINE
  8
22
 66
1
 10
0.0000
 20
0.0000
 30
0.0000
 40
0.1270
 41
0.1270
 70
0
  0
VERTEX
  8
22
 10
74.1965
 20
81.8252
 30
0.0000
  0
VERTEX
  8
22
 10
74.1680
 20
81.7880
 30
0.0000
  0
SEQEND
  8
0
  0
POLYLINE
  8
22
 66
1
 10
0.0000
 20
0.0000
 30
0.0000
 40
0.0635
 41
0.0635
 70
0
  0
VERTEX
  8
22
 10
74.1428
 20
81.8073
 30
0.0000
 42
1.0000
  0
VERTEX
  8
22
 10
74.1932
 20
81.7687
 30
0.0000
  0
SEQEND
  8
0
  0
POLYLINE
  8
22
 66
1
 10
0.0000
 20
0.0000
 30
0.0000
 40
0.0635
 41
0.0635
 70
0
  0
VERTEX
  8
22
 10
74.2217
 20
81.8059
 30
0.0000
 42
1.0000
  0
VERTEX
  8
22
 10
74.1714
 20
81.8445
 30
0.0000
  0
SEQEND
  8
0
  0
POLYLINE
  8
22
 66
1
 10
0.0000
 20
0.0000
 30
0.0000
 40
0.1270
 41
0.1270
 70
0
  0
VERTEX
  8
22
 10
74.1680
 20
81.7880
 30
0.0000
  0
VERTEX
  8
22
 10
74.1308
 20
81.7595
 30
0.0000
  0
SEQEND
  8
0
  0
POLYLINE
  8
22
 66
1
 10
0.0000
 20
0.0000
 30
0.0000
 40
0.0635
 41
0.0635
 70
0
  0
VERTEX
  8
22
 10
74.1115
 20
81.7846
 30
0.0000
 42
1.0000
  0
VERTEX
  8
22
 10
74.1501
 20
81.7343
 30
0.0000
  0
SEQEND
  8
0
  0
POLYLINE
  8
22
 66
1
 10
0.0000
 20
0.0000
 30
0.0000
 40
0.0635
 41
0.0635
 70
0
  0
VERTEX
  8
22
 10
74.1873
 20
81.7628
 30
0.0000
 42
1.0000
  0
VERTEX
  8
22
 10
74.1487
 20
81.8132
 30
0.0000
  0
SEQEND
  8
0
  0
POLYLINE
  8
22
 66
1
 10
0.0000
 20
0.0000
 30
0.0000
 40
0.1270
 41
0.1270
 70
0
  0
VERTEX
  8
22
 10
74.1308
 20
81.7595
 30
0.0000
  0
VERTEX
  8
22
 10
74.0875
 20
81.7415
 30
0.0000
  0
SEQEND
  8
0
  0
POLYLINE
  8
22
 66
1
 10
0.0000
 20
0.0000
 30
0.0000
 40
0.0635
 41
0.0635
 70
0
  0
VERTEX
  8
22
 10
74.0753
 20
81.7708
 30
0.0000
 42
1.0000
  0
VERTEX
  8
22
 10
74.0996
 20
81.7122
 30
0.0000
  0
SEQEND
  8
0
  0
POLYLINE
  8
22
 66
1
 10
0.0000
 20
0.0000
 30
0.0000
 40
0.0635
 41
0.0635
 70
0
  0
VERTEX
  8
22
 10
74.1430
 20
81.7301
 30
0.0000
 42
1.0000
  0
VERTEX
  8
22
 10
74.1187
 20
81.7888
 30
0.0000
  0
SEQEND
  8
0
  0
POLYLINE
  8
22
 66
1
 10
0.0000
 20
0.0000
 30
0.0000
 40
0.1270
 41
0.1270
 70
0
  0
VERTEX
  8
22
 10
74.0875
 20
81.7415
 30
0.0000
  0
VERTEX
  8
22
 10
74.0410
 20
81.7354
 30
0.0000
  0
SEQEND
  8
0
  0
POLYLINE
  8
22
 66
1
 10
0.0000
 20
0.0000
 30
0.0000
 40
0.0635
 41
0.0635
 70
0
  0
VERTEX
  8
22
 10
74.0369
 20
81.7669
 30
0.0000
 42
1.0000
  0
VERTEX
  8
22
 10
74.0451
 20
81.7039
 30
0.0000
  0
SEQEND
  8
0
  0
POLYLINE
  8
22
 66
1
 10
0.0000
 20
0.0000
 30
0.0000
 40
0.0635
 41
0.0635
 70
0
  0
VERTEX
  8
22
 10
74.0916
 20
81.7100
 30
0.0000
 42
1.0000
  0
VERTEX
  8
22
 10
74.0833
 20
81.7730
 30
0.0000
  0
SEQEND
  8
0
  0
POLYLINE
  8
22
 66
1
 10
0.0000
 20
0.0000
 30
0.0000
 40
0.1270
 41
0.1270
 70
0
  0
VERTEX
  8
22
 10
74.0410
 20
81.7354
 30
0.0000
  0
VERTEX
  8
22
 10
73.9945
 20
81.7415
 30
0.0000
  0
SEQEND
  8
0
  0
POLYLINE
  8
22
 66
1
 10
0.0000
 20
0.0000
 30
0.0000
 40
0.0635
 41
0.0635
 70
0
  0
VERTEX
  8
22
 10
73.9987
 20
81.7730
 30
0.0000
 42
1.0000
  0
VERTEX
  8
22
 10
73.9904
 20
81.7100
 30
0.0000
  0
SEQEND
  8
0
  0
POLYLINE
  8
22
 66
1
 10
0.0000
 20
0.0000
 30
0.0000
 40
0.0635
 41
0.0635
 70
0
  0
VERTEX
  8
22
 10
74.0369
 20
81.7039
 30
0.0000
 42
1.0000
  0
VERTEX
  8
22
 10
74.0451
 20
81.7669
 30
0.0000
  0
SEQEND
  8
0
  0
POLYLINE
  8
22
 66
1
 10
0.0000
 20
0.0000
 30
0.0000
 40
0.1270
 41
0.1270
 70
0
  0
VERTEX
  8
22
 10
73.9945
 20
81.7415
 30
0.0000
  0
VERTEX
  8
22
 10
73.9512
 20
81.7595
 30
0.0000
  0
SEQEND
  8
0
  0
POLYLINE
  8
22
 66
1
 10
0.0000
 20
0.0000
 30
0.0000
 40
0.0635
 41
0.0635
 70
0
  0
VERTEX
  8
22
 10
73.9633
 20
81.7888
 30
0.0000
 42
1.0000
  0
VERTEX
  8
22
 10
73.9390
 20
81.7301
 30
0.0000
  0
SEQEND
  8
0
  0
POLYLINE
  8
22
 66
1
 10
0.0000
 20
0.0000
 30
0.0000
 40
0.0635
 41
0.0635
 70
0
  0
VERTEX
  8
22
 10
73.9824
 20
81.7122
 30
0.0000
 42
1.0000
  0
VERTEX
  8
22
 10
74.0067
 20
81.7708
 30
0.0000
  0
SEQEND
  8
0
  0
POLYLINE
  8
22
 66
1
 10
0.0000
 20
0.0000
 30
0.0000
 40
0.1270
 41
0.1270
 70
0
  0
VERTEX
  8
22
 10
73.9512
 20
81.7595
 30
0.0000
  0
VERTEX
  8
22
 10
73.9140
 20
81.7880
 30
0.0000
  0
SEQEND
  8
0
  0
POLYLINE
  8
22
 66
1
 10
0.0000
 20
0.0000
 30
0.0000
 40
0.0635
 41
0.0635
 70
0
  0
VERTEX
  8
22
 10
73.9333
 20
81.8132
 30
0.0000
 42
1.0000
  0
VERTEX
  8
22
 10
73.8947
 20
81.7628
 30
0.0000
  0
SEQEND
  8
0
  0
POLYLINE
  8
22
 66
1
 10
0.0000
 20
0.0000
 30
0.0000
 40
0.0635
 41
0.0635
 70
0
  0
VERTEX
  8
22
 10
73.9319
 20
81.7343
 30
0.0000
 42
1.0000
  0
VERTEX
  8
22
 10
73.9705
 20
81.7846
 30
0.0000
  0
SEQEND
  8
0
  0
POLYLINE
  8
22
 66
1
 10
0.0000
 20
0.0000
 30
0.0000
 40
0.1270
 41
0.1270
 70
0
  0
VERTEX
  8
22
 10
74.1680
 20
81.7880
 30
0.0000
  0
VERTEX
  8
22
 10
73.9140
 20
81.7880
 30
0.0000
  0
SEQEND
  8
0
  0
POLYLINE
  8
22
 66
1
 10
0.0000
 20
0.0000
 30
0.0000
 40
0.0635
 41
0.0635
 70
0
  0
VERTEX
  8
22
 10
73.9140
 20
81.8198
 30
0.0000
 42
1.0000
  0
VERTEX
  8
22
 10
73.9140
 20
81.7563
 30
0.0000
  0
SEQEND
  8
0
  0
POLYLINE
  8
22
 66
1
 10
0.0000
 20
0.0000
 30
0.0000
 40
0.0635
 41
0.0635
 70
0
  0
VERTEX
  8
22
 10
74.1680
 20
81.7563
 30
0.0000
 42
1.0000
  0
VERTEX
  8
22
 10
74.1680
 20
81.8198
 30
0.0000
  0
SEQEND
  8
0
  0
POLYLINE
  8
22
 66
1
 10
0.0000
 20
0.0000
 30
0.0000
 40
0.1270
 41
0.1270
 70
0
  0
VERTEX
  8
22
 10
74.2206
 20
81.9150
 30
0.0000
  0
VERTEX
  8
22
 10
73.8614
 20
81.9150
 30
0.0000
  0
SEQEND
  8
0
  0
POLYLINE
  8
22
 66
1
 10
0.0000
 20
0.0000
 30
0.0000
 40
0.0635
 41
0.0635
 70
0
  0
VERTEX
  8
22
 10
73.8614
 20
81.9468
 30
0.0000
 42
1.0000
  0
VERTEX
  8
22
 10
73.8614
 20
81.8833
 30
0.0000
  0
SEQEND
  8
0
  0
POLYLINE
  8
22
 66
1
 10
0.0000
 20
0.0000
 30
0.0000
 40
0.0635
 41
0.0635
 70
0
  0
VERTEX
  8
22
 10
74.2206
 20
81.8833
 30
0.0000
 42
1.0000
  0
VERTEX
  8
22
 10
74.2206
 20
81.9468
 30
0.0000
  0
SEQEND
  8
0
  0
POLYLINE
  8
22
 66
1
 10
0.0000
 20
0.0000
 30
0.0000
 40
0.1270
 41
0.1270
 70
0
  0
VERTEX
  8
22
 10
74.1680
 20
82.0420
 30
0.0000
  0
VERTEX
  8
22
 10
73.9140
 20
82.0420
 30
0.0000
  0
SEQEND
  8
0
  0
POLYLINE
  8
22
 66
1
 10
0.0000
 20
0.0000
 30
0.0000
 40
0.0635
 41
0.0635
 70
0
  0
VERTEX
  8
22
 10
73.9140
 20
82.0738
 30
0.0000
 42
1.0000
  0
VERTEX
  8
22
 10
73.9140
 20
82.0102
 30
0.0000
  0
SEQEND
  8
0
  0
POLYLINE
  8
22
 66
1
 10
0.0000
 20
0.0000
 30
0.0000
 40
0.0635
 41
0.0635
 70
0
  0
VERTEX
  8
22
 10
74.1680
 20
82.0102
 30
0.0000
 42
1.0000
  0
VERTEX
  8
22
 10
74.1680
 20
82.0738
 30
0.0000
  0
SEQEND
  8
0
  0
POLYLINE
  8
22
 66
1
 10
0.0000
 20
0.0000
 30
0.0000
 40
0.2032
 41
0.2032
 70
0
  0
VERTEX
  8
22
 10
69.7360
 20
84.7040
 30
0.0000
  0
VERTEX
  8
22
 10
69.7360
 20
80.8960
 30
0.0000
  0
SEQEND
  8
0
  0
POLYLINE
  8
22
 66
1
 10
0.0000
 20
0.0000
 30
0.0000
 40
0.1016
 41
0.1016
 70
0
  0
VERTEX
  8
22
 10
69.6852
 20
80.8960
 30
0.0000
 42
1.0000
  0
VERTEX
  8
22
 10
69.7868
 20
80.8960
 30
0.0000
  0
SEQEND
  8
0
  0
POLYLINE
  8
22
 66
1
 10
0.0000
 20
0.0000
 30
0.0000
 40
0.1016
 41
0.1016
 70
0
  0
VERTEX
  8
22
 10
69.7868
 20
84.7040
 30
0.0000
 42
1.0000
  0
VERTEX
  8
22
 10
69.6852
 20
84.7040
 30
0.0000
  0
SEQEND
  8
0
  0
POLYLINE
  8
22
 66
1
 10
0.0000
 20
0.0000
 30
0.0000
 40
0.2032
 41
0.2032
 70
0
  0
VERTEX
  8
22
 10
69.7360
 20
80.9040
 30
0.0000
  0
VERTEX
  8
22
 10
74.5360
 20
80.9040
 30
0.0000
  0
SEQEND
  8
0
  0
POLYLINE
  8
22
 66
1
 10
0.0000
 20
0.0000
 30
0.0000
 40
0.1016
 41
0.1016
 70
0
  0
VERTEX
  8
22
 10
74.5360
 20
80.8532
 30
0.0000
 42
1.0000
  0
VERTEX
  8
22
 10
74.5360
 20
80.9548
 30
0.0000
  0
SEQEND
  8
0
  0
POLYLINE
  8
22
 66
1
 10
0.0000
 20
0.0000
 30
0.0000
 40
0.1016
 41
0.1016
 70
0
  0
VERTEX
  8
22
 10
69.7360
 20
80.9548
 30
0.0000
 42
1.0000
  0
VERTEX
  8
22
 10
69.7360
 20
80.8532
 30
0.0000
  0
SEQEND
  8
0
  0
POLYLINE
  8
22
 66
1
 10
0.0000
 20
0.0000
 30
0.0000
 40
0.2032
 41
0.2032
 70
0
  0
VERTEX
  8
22
 10
74.5360
 20
80.8960
 30
0.0000
  0
VERTEX
  8
22
 10
74.5360
 20
84.7040
 30
0.0000
  0
SEQEND
  8
0
  0
POLYLINE
  8
22
 66
1
 10
0.0000
 20
0.0000
 30
0.0000
 40
0.1016
 41
0.1016
 70
0
  0
VERTEX
  8
22
 10
74.5868
 20
84.7040
 30
0.0000
 42
1.0000
  0
VERTEX
  8
22
 10
74.4852
 20
84.7040
 30
0.0000
  0
SEQEND
  8
0
  0
POLYLINE
  8
22
 66
1
 10
0.0000
 20
0.0000
 30
0.0000
 40
0.1016
 41
0.1016
 70
0
  0
VERTEX
  8
22
 10
74.4852
 20
80.8960
 30
0.0000
 42
1.0000
  0
VERTEX
  8
22
 10
74.5868
 20
80.8960
 30
0.0000
  0
SEQEND
  8
0
  0
POLYLINE
  8
22
 66
1
 10
0.0000
 20
0.0000
 30
0.0000
 40
0.2032
 41
0.2032
 70
0
  0
VERTEX
  8
22
 10
74.5360
 20
84.7040
 30
0.0000
  0
VERTEX
  8
22
 10
69.7360
 20
84.7040
 30
0.0000
  0
SEQEND
  8
0
  0
POLYLINE
  8
22
 66
1
 10
0.0000
 20
0.0000
 30
0.0000
 40
0.1016
 41
0.1016
 70
0
  0
VERTEX
  8
22
 10
69.7360
 20
84.7548
 30
0.0000
 42
1.0000
  0
VERTEX
  8
22
 10
69.7360
 20
84.6532
 30
0.0000
  0
SEQEND
  8
0
  0
POLYLINE
  8
22
 66
1
 10
0.0000
 20
0.0000
 30
0.0000
 40
0.1016
 41
0.1016
 70
0
  0
VERTEX
  8
22
 10
74.5360
 20
84.6532
 30
0.0000
 42
1.0000
  0
VERTEX
  8
22
 10
74.5360
 20
84.7548
 30
0.0000
  0
SEQEND
  8
0
  0
POINT
  8
23
 10
69.9770
 20
47.4980
 30
0.0000
  0
POINT
  8
23
 10
60.7060
 20
71.1200
 30
0.0000
  0
POINT
  8
24
 10
46.2280
 20
51.8160
 30
0.0000
  0
POLYLINE
  8
22
 66
1
 10
0.0000
 20
0.0000
 30
0.0000
 40
0.1524
 41
0.1524
 70
0
  0
VERTEX
  8
22
 10
46.8280
 20
51.5160
 30
0.0000
  0
VERTEX
  8
22
 10
46.8280
 20
52.1160
 30
0.0000
  0
SEQEND
  8
0
  0
POLYLINE
  8
22
 66
1
 10
0.0000
 20
0.0000
 30
0.0000
 40
0.0762
 41
0.0762
 70
0
  0
VERTEX
  8
22
 10
46.8661
 20
52.1160
 30
0.0000
 42
1.0000
  0
VERTEX
  8
22
 10
46.7899
 20
52.1160
 30
0.0000
  0
SEQEND
  8
0
  0
POLYLINE
  8
22
 66
1
 10
0.0000
 20
0.0000
 30
0.0000
 40
0.0762
 41
0.0762
 70
0
  0
VERTEX
  8
22
 10
46.7899
 20
51.5160
 30
0.0000
 42
1.0000
  0
VERTEX
  8
22
 10
46.8661
 20
51.5160
 30
0.0000
  0
SEQEND
  8
0
  0
POLYLINE
  8
22
 66
1
 10
0.0000
 20
0.0000
 30
0.0000
 40
0.1524
 41
0.1524
 70
0
  0
VERTEX
  8
22
 10
45.6280
 20
51.5160
 30
0.0000
  0
VERTEX
  8
22
 10
45.6280
 20
52.1160
 30
0.0000
  0
SEQEND
  8
0
  0
POLYLINE
  8
22
 66
1
 10
0.0000
 20
0.0000
 30
0.0000
 40
0.0762
 41
0.0762
 70
0
  0
VERTEX
  8
22
 10
45.6661
 20
52.1160
 30
0.0000
 42
1.0000
  0
VERTEX
  8
22
 10
45.5899
 20
52.1160
 30
0.0000
  0
SEQEND
  8
0
  0
POLYLINE
  8
22
 66
1
 10
0.0000
 20
0.0000
 30
0.0000
 40
0.0762
 41
0.0762
 70
0
  0
VERTEX
  8
22
 10
45.5899
 20
51.5160
 30
0.0000
 42
1.0000
  0
VERTEX
  8
22
 10
45.6661
 20
51.5160
 30
0.0000
  0
SEQEND
  8
0
  0
POLYLINE
  8
22
 66
1
 10
0.0000
 20
0.0000
 30
0.0000
 40
0.1270
 41
0.1270
 70
0
  0
VERTEX
  8
22
 10
46.2280
 20
51.5112
 30
0.0000
  0
VERTEX
  8
22
 10
46.2280
 20
52.1208
 30
0.0000
  0
SEQEND
  8
0
  0
POLYLINE
  8
22
 66
1
 10
0.0000
 20
0.0000
 30
0.0000
 40
0.0635
 41
0.0635
 70
0
  0
VERTEX
  8
22
 10
46.2598
 20
52.1208
 30
0.0000
 42
1.0000
  0
VERTEX
  8
22
 10
46.1962
 20
52.1208
 30
0.0000
  0
SEQEND
  8
0
  0
POLYLINE
  8
22
 66
1
 10
0.0000
 20
0.0000
 30
0.0000
 40
0.0635
 41
0.0635
 70
0
  0
VERTEX
  8
22
 10
46.1962
 20
51.5112
 30
0.0000
 42
1.0000
  0
VERTEX
  8
22
 10
46.2598
 20
51.5112
 30
0.0000
  0
SEQEND
  8
0
  0
POLYLINE
  8
22
 66
1
 10
0.0000
 20
0.0000
 30
0.0000
 40
0.1270
 41
0.1270
 70
0
  0
VERTEX
  8
22
 10
46.2280
 20
52.1208
 30
0.0000
  0
VERTEX
  8
22
 10
46.0248
 20
51.8160
 30
0.0000
  0
SEQEND
  8
0
  0
POLYLINE
  8
22
 66
1
 10
0.0000
 20
0.0000
 30
0.0000
 40
0.0635
 41
0.0635
 70
0
  0
VERTEX
  8
22
 10
45.9984
 20
51.8336
 30
0.0000
 42
1.0000
  0
VERTEX
  8
22
 10
46.0512
 20
51.7984
 30
0.0000
  0
SEQEND
  8
0
  0
POLYLINE
  8
22
 66
1
 10
0.0000
 20
0.0000
 30
0.0000
 40
0.0635
 41
0.0635
 70
0
  0
VERTEX
  8
22
 10
46.2544
 20
52.1032
 30
0.0000
 42
1.0000
  0
VERTEX
  8
22
 10
46.2016
 20
52.1384
 30
0.0000
  0
SEQEND
  8
0
  0
POLYLINE
  8
22
 66
1
 10
0.0000
 20
0.0000
 30
0.0000
 40
0.1270
 41
0.1270
 70
0
  0
VERTEX
  8
22
 10
46.0248
 20
51.8160
 30
0.0000
  0
VERTEX
  8
22
 10
46.4312
 20
51.8160
 30
0.0000
  0
SEQEND
  8
0
  0
POLYLINE
  8
22
 66
1
 10
0.0000
 20
0.0000
 30
0.0000
 40
0.0635
 41
0.0635
 70
0
  0
VERTEX
  8
22
 10
46.4312
 20
51.7843
 30
0.0000
 42
1.0000
  0
VERTEX
  8
22
 10
46.4312
 20
51.8478
 30
0.0000
  0
SEQEND
  8
0
  0
POLYLINE
  8
22
 66
1
 10
0.0000
 20
0.0000
 30
0.0000
 40
0.0635
 41
0.0635
 70
0
  0
VERTEX
  8
22
 10
46.0248
 20
51.8478
 30
0.0000
 42
1.0000
  0
VERTEX
  8
22
 10
46.0248
 20
51.7843
 30
0.0000
  0
SEQEND
  8
0
  0
POLYLINE
  8
22
 66
1
 10
0.0000
 20
0.0000
 30
0.0000
 40
0.1270
 41
0.1270
 70
0
  0
VERTEX
  8
22
 10
46.4312
 20
51.8160
 30
0.0000
  0
VERTEX
  8
22
 10
46.2280
 20
52.1208
 30
0.0000
  0
SEQEND
  8
0
  0
POLYLINE
  8
22
 66
1
 10
0.0000
 20
0.0000
 30
0.0000
 40
0.0635
 41
0.0635
 70
0
  0
VERTEX
  8
22
 10
46.2544
 20
52.1384
 30
0.0000
 42
1.0000
  0
VERTEX
  8
22
 10
46.2016
 20
52.1032
 30
0.0000
  0
SEQEND
  8
0
  0
POLYLINE
  8
22
 66
1
 10
0.0000
 20
0.0000
 30
0.0000
 40
0.0635
 41
0.0635
 70
0
  0
VERTEX
  8
22
 10
46.4048
 20
51.7984
 30
0.0000
 42
1.0000
  0
VERTEX
  8
22
 10
46.4576
 20
51.8336
 30
0.0000
  0
SEQEND
  8
0
  0
POINT
  8
24
 10
71.8820
 20
41.6560
 30
0.0000
  0
POLYLINE
  8
22
 66
1
 10
0.0000
 20
0.0000
 30
0.0000
 40
0.1524
 41
0.1524
 70
0
  0
VERTEX
  8
22
 10
71.5820
 20
41.0560
 30
0.0000
  0
VERTEX
  8
22
 10
72.1820
 20
41.0560
 30
0.0000
  0
SEQEND
  8
0
  0
POLYLINE
  8
22
 66
1
 10
0.0000
 20
0.0000
 30
0.0000
 40
0.0762
 41
0.0762
 70
0
  0
VERTEX
  8
22
 10
72.1820
 20
41.0179
 30
0.0000
 42
1.0000
  0
VERTEX
  8
22
 10
72.1820
 20
41.0941
 30
0.0000
  0
SEQEND
  8
0
  0
POLYLINE
  8
22
 66
1
 10
0.0000
 20
0.0000
 30
0.0000
 40
0.0762
 41
0.0762
 70
0
  0
VERTEX
  8
22
 10
71.5820
 20
41.0941
 30
0.0000
 42
1.0000
  0
VERTEX
  8
22
 10
71.5820
 20
41.0179
 30
0.0000
  0
SEQEND
  8
0
  0
POLYLINE
  8
22
 66
1
 10
0.0000
 20
0.0000
 30
0.0000
 40
0.1524
 41
0.1524
 70
0
  0
VERTEX
  8
22
 10
71.5820
 20
42.2560
 30
0.0000
  0
VERTEX
  8
22
 10
72.1820
 20
42.2560
 30
0.0000
  0
SEQEND
  8
0
  0
POLYLINE
  8
22
 66
1
 10
0.0000
 20
0.0000
 30
0.0000
 40
0.0762
 41
0.0762
 70
0
  0
VERTEX
  8
22
 10
72.1820
 20
42.2179
 30
0.0000
 42
1.0000
  0
VERTEX
  8
22
 10
72.1820
 20
42.2941
 30
0.0000
  0
SEQEND
  8
0
  0
POLYLINE
  8
22
 66
1
 10
0.0000
 20
0.0000
 30
0.0000
 40
0.0762
 41
0.0762
 70
0
  0
VERTEX
  8
22
 10
71.5820
 20
42.2941
 30
0.0000
 42
1.0000
  0
VERTEX
  8
22
 10
71.5820
 20
42.2179
 30
0.0000
  0
SEQEND
  8
0
  0
POLYLINE
  8
22
 66
1
 10
0.0000
 20
0.0000
 30
0.0000
 40
0.1270
 41
0.1270
 70
0
  0
VERTEX
  8
22
 10
71.5772
 20
41.6560
 30
0.0000
  0
VERTEX
  8
22
 10
72.1868
 20
41.6560
 30
0.0000
  0
SEQEND
  8
0
  0
POLYLINE
  8
22
 66
1
 10
0.0000
 20
0.0000
 30
0.0000
 40
0.0635
 41
0.0635
 70
0
  0
VERTEX
  8
22
 10
72.1868
 20
41.6242
 30
0.0000
 42
1.0000
  0
VERTEX
  8
22
 10
72.1868
 20
41.6878
 30
0.0000
  0
SEQEND
  8
0
  0
POLYLINE
  8
22
 66
1
 10
0.0000
 20
0.0000
 30
0.0000
 40
0.0635
 41
0.0635
 70
0
  0
VERTEX
  8
22
 10
71.5772
 20
41.6878
 30
0.0000
 42
1.0000
  0
VERTEX
  8
22
 10
71.5772
 20
41.6242
 30
0.0000
  0
SEQEND
  8
0
  0
POLYLINE
  8
22
 66
1
 10
0.0000
 20
0.0000
 30
0.0000
 40
0.1270
 41
0.1270
 70
0
  0
VERTEX
  8
22
 10
72.1868
 20
41.6560
 30
0.0000
  0
VERTEX
  8
22
 10
71.8820
 20
41.8592
 30
0.0000
  0
SEQEND
  8
0
  0
POLYLINE
  8
22
 66
1
 10
0.0000
 20
0.0000
 30
0.0000
 40
0.0635
 41
0.0635
 70
0
  0
VERTEX
  8
22
 10
71.8996
 20
41.8856
 30
0.0000
 42
1.0000
  0
VERTEX
  8
22
 10
71.8644
 20
41.8328
 30
0.0000
  0
SEQEND
  8
0
  0
POLYLINE
  8
22
 66
1
 10
0.0000
 20
0.0000
 30
0.0000
 40
0.0635
 41
0.0635
 70
0
  0
VERTEX
  8
22
 10
72.1692
 20
41.6296
 30
0.0000
 42
1.0000
  0
VERTEX
  8
22
 10
72.2044
 20
41.6824
 30
0.0000
  0
SEQEND
  8
0
  0
POLYLINE
  8
22
 66
1
 10
0.0000
 20
0.0000
 30
0.0000
 40
0.1270
 41
0.1270
 70
0
  0
VERTEX
  8
22
 10
71.8820
 20
41.8592
 30
0.0000
  0
VERTEX
  8
22
 10
71.8820
 20
41.4528
 30
0.0000
  0
SEQEND
  8
0
  0
POLYLINE
  8
22
 66
1
 10
0.0000
 20
0.0000
 30
0.0000
 40
0.0635
 41
0.0635
 70
0
  0
VERTEX
  8
22
 10
71.8503
 20
41.4528
 30
0.0000
 42
1.0000
  0
VERTEX
  8
22
 10
71.9138
 20
41.4528
 30
0.0000
  0
SEQEND
  8
0
  0
POLYLINE
  8
22
 66
1
 10
0.0000
 20
0.0000
 30
0.0000
 40
0.0635
 41
0.0635
 70
0
  0
VERTEX
  8
22
 10
71.9138
 20
41.8592
 30
0.0000
 42
1.0000
  0
VERTEX
  8
22
 10
71.8503
 20
41.8592
 30
0.0000
  0
SEQEND
  8
0
  0
POLYLINE
  8
22
 66
1
 10
0.0000
 20
0.0000
 30
0.0000
 40
0.1270
 41
0.1270
 70
0
  0
VERTEX
  8
22
 10
71.8820
 20
41.4528
 30
0.0000
  0
VERTEX
  8
22
 10
72.1868
 20
41.6560
 30
0.0000
  0
SEQEND
  8
0
  0
POLYLINE
  8
22
 66
1
 10
0.0000
 20
0.0000
 30
0.0000
 40
0.0635
 41
0.0635
 70
0
  0
VERTEX
  8
22
 10
72.2044
 20
41.6296
 30
0.0000
 42
1.0000
  0
VERTEX
  8
22
 10
72.1692
 20
41.6824
 30
0.0000
  0
SEQEND
  8
0
  0
POLYLINE
  8
22
 66
1
 10
0.0000
 20
0.0000
 30
0.0000
 40
0.0635
 41
0.0635
 70
0
  0
VERTEX
  8
22
 10
71.8644
 20
41.4792
 30
0.0000
 42
1.0000
  0
VERTEX
  8
22
 10
71.8996
 20
41.4264
 30
0.0000
  0
SEQEND
  8
0
  0
POINT
  8
23
 10
69.8500
 20
90.6780
 30
0.0000
  0
POINT
  8
23
 10
72.3900
 20
90.6780
 30
0.0000
  0
POINT
  8
23
 10
74.9300
 20
90.6780
 30
0.0000
  0
POINT
  8
23
 10
52.0700
 20
42.9260
 30
0.0000
  0
POINT
  8
24
 10
55.1180
 20
87.3760
 30
0.0000
  0
POLYLINE
  8
22
 66
1
 10
0.0000
 20
0.0000
 30
0.0000
 40
0.1524
 41
0.1524
 70
0
  0
VERTEX
  8
22
 10
55.4180
 20
87.9760
 30
0.0000
  0
VERTEX
  8
22
 10
54.8180
 20
87.9760
 30
0.0000
  0
SEQEND
  8
0
  0
POLYLINE
  8
22
 66
1
 10
0.0000
 20
0.0000
 30
0.0000
 40
0.0762
 41
0.0762
 70
0
  0
VERTEX
  8
22
 10
54.8180
 20
88.0141
 30
0.0000
 42
1.0000
  0
VERTEX
  8
22
 10
54.8180
 20
87.9379
 30
0.0000
  0
SEQEND
  8
0
  0
POLYLINE
  8
22
 66
1
 10
0.0000
 20
0.0000
 30
0.0000
 40
0.0762
 41
0.0762
 70
0
  0
VERTEX
  8
22
 10
55.4180
 20
87.9379
 30
0.0000
 42
1.0000
  0
VERTEX
  8
22
 10
55.4180
 20
88.0141
 30
0.0000
  0
SEQEND
  8
0
  0
POLYLINE
  8
22
 66
1
 10
0.0000
 20
0.0000
 30
0.0000
 40
0.1524
 41
0.1524
 70
0
  0
VERTEX
  8
22
 10
55.4180
 20
86.7760
 30
0.0000
  0
VERTEX
  8
22
 10
54.8180
 20
86.7760
 30
0.0000
  0
SEQEND
  8
0
  0
POLYLINE
  8
22
 66
1
 10
0.0000
 20
0.0000
 30
0.0000
 40
0.0762
 41
0.0762
 70
0
  0
VERTEX
  8
22
 10
54.8180
 20
86.8141
 30
0.0000
 42
1.0000
  0
VERTEX
  8
22
 10
54.8180
 20
86.7379
 30
0.0000
  0
SEQEND
  8
0
  0
POLYLINE
  8
22
 66
1
 10
0.0000
 20
0.0000
 30
0.0000
 40
0.0762
 41
0.0762
 70
0
  0
VERTEX
  8
22
 10
55.4180
 20
86.7379
 30
0.0000
 42
1.0000
  0
VERTEX
  8
22
 10
55.4180
 20
86.8141
 30
0.0000
  0
SEQEND
  8
0
  0
POINT
  8
23
 10
69.8500
 20
94.9960
 30
0.0000
  0
POINT
  8
23
 10
72.3900
 20
94.9960
 30
0.0000
  0
POINT
  8
23
 10
74.9300
 20
94.9960
 30
0.0000
  0
POINT
  8
24
 10
38.8620
 20
56.3880
 30
0.0000
  0
POLYLINE
  8
22
 66
1
 10
0.0000
 20
0.0000
 30
0.0000
 40
0.1524
 41
0.1524
 70
0
  0
VERTEX
  8
22
 10
39.4620
 20
56.0880
 30
0.0000
  0
VERTEX
  8
22
 10
39.4620
 20
56.6880
 30
0.0000
  0
SEQEND
  8
0
  0
POLYLINE
  8
22
 66
1
 10
0.0000
 20
0.0000
 30
0.0000
 40
0.0762
 41
0.0762
 70
0
  0
VERTEX
  8
22
 10
39.5001
 20
56.6880
 30
0.0000
 42
1.0000
  0
VERTEX
  8
22
 10
39.4239
 20
56.6880
 30
0.0000
  0
SEQEND
  8
0
  0
POLYLINE
  8
22
 66
1
 10
0.0000
 20
0.0000
 30
0.0000
 40
0.0762
 41
0.0762
 70
0
  0
VERTEX
  8
22
 10
39.4239
 20
56.0880
 30
0.0000
 42
1.0000
  0
VERTEX
  8
22
 10
39.5001
 20
56.0880
 30
0.0000
  0
SEQEND
  8
0
  0
POLYLINE
  8
22
 66
1
 10
0.0000
 20
0.0000
 30
0.0000
 40
0.1524
 41
0.1524
 70
0
  0
VERTEX
  8
22
 10
38.2620
 20
56.0880
 30
0.0000
  0
VERTEX
  8
22
 10
38.2620
 20
56.6880
 30
0.0000
  0
SEQEND
  8
0
  0
POLYLINE
  8
22
 66
1
 10
0.0000
 20
0.0000
 30
0.0000
 40
0.0762
 41
0.0762
 70
0
  0
VERTEX
  8
22
 10
38.3001
 20
56.6880
 30
0.0000
 42
1.0000
  0
VERTEX
  8
22
 10
38.2239
 20
56.6880
 30
0.0000
  0
SEQEND
  8
0
  0
POLYLINE
  8
22
 66
1
 10
0.0000
 20
0.0000
 30
0.0000
 40
0.0762
 41
0.0762
 70
0
  0
VERTEX
  8
22
 10
38.2239
 20
56.0880
 30
0.0000
 42
1.0000
  0
VERTEX
  8
22
 10
38.3001
 20
56.0880
 30
0.0000
  0
SEQEND
  8
0
  0
POINT
  8
24
 10
60.4520
 20
68.5800
 30
0.0000
  0
POLYLINE
  8
22
 66
1
 10
0.0000
 20
0.0000
 30
0.0000
 40
0.1524
 41
0.1524
 70
0
  0
VERTEX
  8
22
 10
60.1520
 20
67.9800
 30
0.0000
  0
VERTEX
  8
22
 10
60.7520
 20
67.9800
 30
0.0000
  0
SEQEND
  8
0
  0
POLYLINE
  8
22
 66
1
 10
0.0000
 20
0.0000
 30
0.0000
 40
0.0762
 41
0.0762
 70
0
  0
VERTEX
  8
22
 10
60.7520
 20
67.9419
 30
0.0000
 42
1.0000
  0
VERTEX
  8
22
 10
60.7520
 20
68.0181
 30
0.0000
  0
SEQEND
  8
0
  0
POLYLINE
  8
22
 66
1
 10
0.0000
 20
0.0000
 30
0.0000
 40
0.0762
 41
0.0762
 70
0
  0
VERTEX
  8
22
 10
60.1520
 20
68.0181
 30
0.0000
 42
1.0000
  0
VERTEX
  8
22
 10
60.1520
 20
67.9419
 30
0.0000
  0
SEQEND
  8
0
  0
POLYLINE
  8
22
 66
1
 10
0.0000
 20
0.0000
 30
0.0000
 40
0.1524
 41
0.1524
 70
0
  0
VERTEX
  8
22
 10
60.1520
 20
69.1800
 30
0.0000
  0
VERTEX
  8
22
 10
60.7520
 20
69.1800
 30
0.0000
  0
SEQEND
  8
0
  0
POLYLINE
  8
22
 66
1
 10
0.0000
 20
0.0000
 30
0.0000
 40
0.0762
 41
0.0762
 70
0
  0
VERTEX
  8
22
 10
60.7520
 20
69.1419
 30
0.0000
 42
1.0000
  0
VERTEX
  8
22
 10
60.7520
 20
69.2181
 30
0.0000
  0
SEQEND
  8
0
  0
POLYLINE
  8
22
 66
1
 10
0.0000
 20
0.0000
 30
0.0000
 40
0.0762
 41
0.0762
 70
0
  0
VERTEX
  8
22
 10
60.1520
 20
69.2181
 30
0.0000
 42
1.0000
  0
VERTEX
  8
22
 10
60.1520
 20
69.1419
 30
0.0000
  0
SEQEND
  8
0
  0
POINT
  8
24
 10
60.4520
 20
73.6600
 30
0.0000
  0
POLYLINE
  8
22
 66
1
 10
0.0000
 20
0.0000
 30
0.0000
 40
0.1524
 41
0.1524
 70
0
  0
VERTEX
  8
22
 10
60.1520
 20
73.0600
 30
0.0000
  0
VERTEX
  8
22
 10
60.7520
 20
73.0600
 30
0.0000
  0
SEQEND
  8
0
  0
POLYLINE
  8
22
 66
1
 10
0.0000
 20
0.0000
 30
0.0000
 40
0.0762
 41
0.0762
 70
0
  0
VERTEX
  8
22
 10
60.7520
 20
73.0219
 30
0.0000
 42
1.0000
  0
VERTEX
  8
22
 10
60.7520
 20
73.0981
 30
0.0000
  0
SEQEND
  8
0
  0
POLYLINE
  8
22
 66
1
 10
0.0000
 20
0.0000
 30
0.0000
 40
0.0762
 41
0.0762
 70
0
  0
VERTEX
  8
22
 10
60.1520
 20
73.0981
 30
0.0000
 42
1.0000
  0
VERTEX
  8
22
 10
60.1520
 20
73.0219
 30
0.0000
  0
SEQEND
  8
0
  0
POLYLINE
  8
22
 66
1
 10
0.0000
 20
0.0000
 30
0.0000
 40
0.1524
 41
0.1524
 70
0
  0
VERTEX
  8
22
 10
60.1520
 20
74.2600
 30
0.0000
  0
VERTEX
  8
22
 10
60.7520
 20
74.2600
 30
0.0000
  0
SEQEND
  8
0
  0
POLYLINE
  8
22
 66
1
 10
0.0000
 20
0.0000
 30
0.0000
 40
0.0762
 41
0.0762
 70
0
  0
VERTEX
  8
22
 10
60.7520
 20
74.2219
 30
0.0000
 42
1.0000
  0
VERTEX
  8
22
 10
60.7520
 20
74.2981
 30
0.0000
  0
SEQEND
  8
0
  0
POLYLINE
  8
22
 66
1
 10
0.0000
 20
0.0000
 30
0.0000
 40
0.0762
 41
0.0762
 70
0
  0
VERTEX
  8
22
 10
60.1520
 20
74.2981
 30
0.0000
 42
1.0000
  0
VERTEX
  8
22
 10
60.1520
 20
74.2219
 30
0.0000
  0
SEQEND
  8
0
  0
POINT
  8
24
 10
60.4520
 20
78.7400
 30
0.0000
  0
POLYLINE
  8
22
 66
1
 10
0.0000
 20
0.0000
 30
0.0000
 40
0.1524
 41
0.1524
 70
0
  0
VERTEX
  8
22
 10
60.1520
 20
78.1400
 30
0.0000
  0
VERTEX
  8
22
 10
60.7520
 20
78.1400
 30
0.0000
  0
SEQEND
  8
0
  0
POLYLINE
  8
22
 66
1
 10
0.0000
 20
0.0000
 30
0.0000
 40
0.0762
 41
0.0762
 70
0
  0
VERTEX
  8
22
 10
60.7520
 20
78.1019
 30
0.0000
 42
1.0000
  0
VERTEX
  8
22
 10
60.7520
 20
78.1781
 30
0.0000
  0
SEQEND
  8
0
  0
POLYLINE
  8
22
 66
1
 10
0.0000
 20
0.0000
 30
0.0000
 40
0.0762
 41
0.0762
 70
0
  0
VERTEX
  8
22
 10
60.1520
 20
78.1781
 30
0.0000
 42
1.0000
  0
VERTEX
  8
22
 10
60.1520
 20
78.1019
 30
0.0000
  0
SEQEND
  8
0
  0
POLYLINE
  8
22
 66
1
 10
0.0000
 20
0.0000
 30
0.0000
 40
0.1524
 41
0.1524
 70
0
  0
VERTEX
  8
22
 10
60.1520
 20
79.3400
 30
0.0000
  0
VERTEX
  8
22
 10
60.7520
 20
79.3400
 30
0.0000
  0
SEQEND
  8
0
  0
POLYLINE
  8
22
 66
1
 10
0.0000
 20
0.0000
 30
0.0000
 40
0.0762
 41
0.0762
 70
0
  0
VERTEX
  8
22
 10
60.7520
 20
79.3019
 30
0.0000
 42
1.0000
  0
VERTEX
  8
22
 10
60.7520
 20
79.3781
 30
0.0000
  0
SEQEND
  8
0
  0
POLYLINE
  8
22
 66
1
 10
0.0000
 20
0.0000
 30
0.0000
 40
0.0762
 41
0.0762
 70
0
  0
VERTEX
  8
22
 10
60.1520
 20
79.3781
 30
0.0000
 42
1.0000
  0
VERTEX
  8
22
 10
60.1520
 20
79.3019
 30
0.0000
  0
SEQEND
  8
0
  0
POINT
  8
24
 10
60.4520
 20
70.8660
 30
0.0000
  0
POLYLINE
  8
22
 66
1
 10
0.0000
 20
0.0000
 30
0.0000
 40
0.1524
 41
0.1524
 70
0
  0
VERTEX
  8
22
 10
60.1520
 20
70.2660
 30
0.0000
  0
VERTEX
  8
22
 10
60.7520
 20
70.2660
 30
0.0000
  0
SEQEND
  8
0
  0
POLYLINE
  8
22
 66
1
 10
0.0000
 20
0.0000
 30
0.0000
 40
0.0762
 41
0.0762
 70
0
  0
VERTEX
  8
22
 10
60.7520
 20
70.2279
 30
0.0000
 42
1.0000
  0
VERTEX
  8
22
 10
60.7520
 20
70.3041
 30
0.0000
  0
SEQEND
  8
0
  0
POLYLINE
  8
22
 66
1
 10
0.0000
 20
0.0000
 30
0.0000
 40
0.0762
 41
0.0762
 70
0
  0
VERTEX
  8
22
 10
60.1520
 20
70.3041
 30
0.0000
 42
1.0000
  0
VERTEX
  8
22
 10
60.1520
 20
70.2279
 30
0.0000
  0
SEQEND
  8
0
  0
POLYLINE
  8
22
 66
1
 10
0.0000
 20
0.0000
 30
0.0000
 40
0.1524
 41
0.1524
 70
0
  0
VERTEX
  8
22
 10
60.1520
 20
71.4660
 30
0.0000
  0
VERTEX
  8
22
 10
60.7520
 20
71.4660
 30
0.0000
  0
SEQEND
  8
0
  0
POLYLINE
  8
22
 66
1
 10
0.0000
 20
0.0000
 30
0.0000
 40
0.0762
 41
0.0762
 70
0
  0
VERTEX
  8
22
 10
60.7520
 20
71.4279
 30
0.0000
 42
1.0000
  0
VERTEX
  8
22
 10
60.7520
 20
71.5041
 30
0.0000
  0
SEQEND
  8
0
  0
POLYLINE
  8
22
 66
1
 10
0.0000
 20
0.0000
 30
0.0000
 40
0.0762
 41
0.0762
 70
0
  0
VERTEX
  8
22
 10
60.1520
 20
71.5041
 30
0.0000
 42
1.0000
  0
VERTEX
  8
22
 10
60.1520
 20
71.4279
 30
0.0000
  0
SEQEND
  8
0
  0
POINT
  8
24
 10
60.4520
 20
75.9460
 30
0.0000
  0
POLYLINE
  8
22
 66
1
 10
0.0000
 20
0.0000
 30
0.0000
 40
0.1524
 41
0.1524
 70
0
  0
VERTEX
  8
22
 10
60.1520
 20
75.3460
 30
0.0000
  0
VERTEX
  8
22
 10
60.7520
 20
75.3460
 30
0.0000
  0
SEQEND
  8
0
  0
POLYLINE
  8
22
 66
1
 10
0.0000
 20
0.0000
 30
0.0000
 40
0.0762
 41
0.0762
 70
0
  0
VERTEX
  8
22
 10
60.7520
 20
75.3079
 30
0.0000
 42
1.0000
  0
VERTEX
  8
22
 10
60.7520
 20
75.3841
 30
0.0000
  0
SEQEND
  8
0
  0
POLYLINE
  8
22
 66
1
 10
0.0000
 20
0.0000
 30
0.0000
 40
0.0762
 41
0.0762
 70
0
  0
VERTEX
  8
22
 10
60.1520
 20
75.3841
 30
0.0000
 42
1.0000
  0
VERTEX
  8
22
 10
60.1520
 20
75.3079
 30
0.0000
  0
SEQEND
  8
0
  0
POLYLINE
  8
22
 66
1
 10
0.0000
 20
0.0000
 30
0.0000
 40
0.1524
 41
0.1524
 70
0
  0
VERTEX
  8
22
 10
60.1520
 20
76.5460
 30
0.0000
  0
VERTEX
  8
22
 10
60.7520
 20
76.5460
 30
0.0000
  0
SEQEND
  8
0
  0
POLYLINE
  8
22
 66
1
 10
0.0000
 20
0.0000
 30
0.0000
 40
0.0762
 41
0.0762
 70
0
  0
VERTEX
  8
22
 10
60.7520
 20
76.5079
 30
0.0000
 42
1.0000
  0
VERTEX
  8
22
 10
60.7520
 20
76.5841
 30
0.0000
  0
SEQEND
  8
0
  0
POLYLINE
  8
22
 66
1
 10
0.0000
 20
0.0000
 30
0.0000
 40
0.0762
 41
0.0762
 70
0
  0
VERTEX
  8
22
 10
60.1520
 20
76.5841
 30
0.0000
 42
1.0000
  0
VERTEX
  8
22
 10
60.1520
 20
76.5079
 30
0.0000
  0
SEQEND
  8
0
  0
POINT
  8
24
 10
60.4520
 20
81.0260
 30
0.0000
  0
POLYLINE
  8
22
 66
1
 10
0.0000
 20
0.0000
 30
0.0000
 40
0.1524
 41
0.1524
 70
0
  0
VERTEX
  8
22
 10
60.1520
 20
80.4260
 30
0.0000
  0
VERTEX
  8
22
 10
60.7520
 20
80.4260
 30
0.0000
  0
SEQEND
  8
0
  0
POLYLINE
  8
22
 66
1
 10
0.0000
 20
0.0000
 30
0.0000
 40
0.0762
 41
0.0762
 70
0
  0
VERTEX
  8
22
 10
60.7520
 20
80.3879
 30
0.0000
 42
1.0000
  0
VERTEX
  8
22
 10
60.7520
 20
80.4641
 30
0.0000
  0
SEQEND
  8
0
  0
POLYLINE
  8
22
 66
1
 10
0.0000
 20
0.0000
 30
0.0000
 40
0.0762
 41
0.0762
 70
0
  0
VERTEX
  8
22
 10
60.1520
 20
80.4641
 30
0.0000
 42
1.0000
  0
VERTEX
  8
22
 10
60.1520
 20
80.3879
 30
0.0000
  0
SEQEND
  8
0
  0
POLYLINE
  8
22
 66
1
 10
0.0000
 20
0.0000
 30
0.0000
 40
0.1524
 41
0.1524
 70
0
  0
VERTEX
  8
22
 10
60.1520
 20
81.6260
 30
0.0000
  0
VERTEX
  8
22
 10
60.7520
 20
81.6260
 30
0.0000
  0
SEQEND
  8
0
  0
POLYLINE
  8
22
 66
1
 10
0.0000
 20
0.0000
 30
0.0000
 40
0.0762
 41
0.0762
 70
0
  0
VERTEX
  8
22
 10
60.7520
 20
81.5879
 30
0.0000
 42
1.0000
  0
VERTEX
  8
22
 10
60.7520
 20
81.6641
 30
0.0000
  0
SEQEND
  8
0
  0
POLYLINE
  8
22
 66
1
 10
0.0000
 20
0.0000
 30
0.0000
 40
0.0762
 41
0.0762
 70
0
  0
VERTEX
  8
22
 10
60.1520
 20
81.6641
 30
0.0000
 42
1.0000
  0
VERTEX
  8
22
 10
60.1520
 20
81.5879
 30
0.0000
  0
SEQEND
  8
0
  0
POINT
  8
23
 10
60.7060
 20
77.4700
 30
0.0000
  0
POINT
  8
23
 10
60.7060
 20
79.7560
 30
0.0000
  0
POINT
  8
23
 10
6.8580
 20
81.5340
 30
0.0000
  0
POINT
  8
23
 10
9.3980
 20
81.5340
 30
0.0000
  0
POINT
  8
23
 10
12.9540
 20
79.5020
 30
0.0000
  0
POINT
  8
23
 10
17.7800
 20
75.9460
 30
0.0000
  0
POINT
  8
23
 10
28.4480
 20
66.8020
 30
0.0000
  0
POINT
  8
23
 10
30.7340
 20
63.2460
 30
0.0000
  0
POINT
  8
23
 10
33.5280
 20
52.0700
 30
0.0000
  0
POINT
  8
23
 10
33.5280
 20
48.5140
 30
0.0000
  0
POINT
  8
23
 10
45.7200
 20
49.5300
 30
0.0000
  0
POINT
  8
23
 10
48.0060
 20
68.5800
 30
0.0000
  0
POINT
  8
24
 10
56.8960
 20
97.0280
 30
0.0000
  0
POLYLINE
  8
22
 66
1
 10
0.0000
 20
0.0000
 30
0.0000
 40
0.2032
 41
0.2032
 70
0
  0
VERTEX
  8
22
 10
53.6194
 20
98.6790
 30
0.0000
  0
VERTEX
  8
22
 10
53.6194
 20
95.3770
 30
0.0000
  0
SEQEND
  8
0
  0
POLYLINE
  8
22
 66
1
 10
0.0000
 20
0.0000
 30
0.0000
 40
0.1016
 41
0.1016
 70
0
  0
VERTEX
  8
22
 10
53.5686
 20
95.3770
 30
0.0000
 42
1.0000
  0
VERTEX
  8
22
 10
53.6702
 20
95.3770
 30
0.0000
  0
SEQEND
  8
0
  0
POLYLINE
  8
22
 66
1
 10
0.0000
 20
0.0000
 30
0.0000
 40
0.1016
 41
0.1016
 70
0
  0
VERTEX
  8
22
 10
53.6702
 20
98.6790
 30
0.0000
 42
1.0000
  0
VERTEX
  8
22
 10
53.5686
 20
98.6790
 30
0.0000
  0
SEQEND
  8
0
  0
POLYLINE
  8
22
 66
1
 10
0.0000
 20
0.0000
 30
0.0000
 40
0.2032
 41
0.2032
 70
0
  0
VERTEX
  8
22
 10
53.6194
 20
95.3770
 30
0.0000
  0
VERTEX
  8
22
 10
60.1726
 20
95.3770
 30
0.0000
  0
SEQEND
  8
0
  0
POLYLINE
  8
22
 66
1
 10
0.0000
 20
0.0000
 30
0.0000
 40
0.1016
 41
0.1016
 70
0
  0
VERTEX
  8
22
 10
60.1726
 20
95.3262
 30
0.0000
 42
1.0000
  0
VERTEX
  8
22
 10
60.1726
 20
95.4278
 30
0.0000
  0
SEQEND
  8
0
  0
POLYLINE
  8
22
 66
1
 10
0.0000
 20
0.0000
 30
0.0000
 40
0.1016
 41
0.1016
 70
0
  0
VERTEX
  8
22
 10
53.6194
 20
95.4278
 30
0.0000
 42
1.0000
  0
VERTEX
  8
22
 10
53.6194
 20
95.3262
 30
0.0000
  0
SEQEND
  8
0
  0
POLYLINE
  8
22
 66
1
 10
0.0000
 20
0.0000
 30
0.0000
 40
0.2032
 41
0.2032
 70
0
  0
VERTEX
  8
22
 10
60.1726
 20
95.3770
 30
0.0000
  0
VERTEX
  8
22
 10
60.1726
 20
98.6790
 30
0.0000
  0
SEQEND
  8
0
  0
POLYLINE
  8
22
 66
1
 10
0.0000
 20
0.0000
 30
0.0000
 40
0.1016
 41
0.1016
 70
0
  0
VERTEX
  8
22
 10
60.2234
 20
98.6790
 30
0.0000
 42
1.0000
  0
VERTEX
  8
22
 10
60.1218
 20
98.6790
 30
0.0000
  0
SEQEND
  8
0
  0
POLYLINE
  8
22
 66
1
 10
0.0000
 20
0.0000
 30
0.0000
 40
0.1016
 41
0.1016
 70
0
  0
VERTEX
  8
22
 10
60.1218
 20
95.3770
 30
0.0000
 42
1.0000
  0
VERTEX
  8
22
 10
60.2234
 20
95.3770
 30
0.0000
  0
SEQEND
  8
0
  0
POLYLINE
  8
22
 66
1
 10
0.0000
 20
0.0000
 30
0.0000
 40
0.2032
 41
0.2032
 70
0
  0
VERTEX
  8
22
 10
60.1726
 20
98.6790
 30
0.0000
  0
VERTEX
  8
22
 10
53.6194
 20
98.6790
 30
0.0000
  0
SEQEND
  8
0
  0
POLYLINE
  8
22
 66
1
 10
0.0000
 20
0.0000
 30
0.0000
 40
0.1016
 41
0.1016
 70
0
  0
VERTEX
  8
22
 10
53.6194
 20
98.7298
 30
0.0000
 42
1.0000
  0
VERTEX
  8
22
 10
53.6194
 20
98.6282
 30
0.0000
  0
SEQEND
  8
0
  0
POLYLINE
  8
22
 66
1
 10
0.0000
 20
0.0000
 30
0.0000
 40
0.1016
 41
0.1016
 70
0
  0
VERTEX
  8
22
 10
60.1726
 20
98.6282
 30
0.0000
 42
1.0000
  0
VERTEX
  8
22
 10
60.1726
 20
98.7298
 30
0.0000
  0
SEQEND
  8
0
  0
POINT
  8
24
 10
55.1180
 20
81.2800
 30
0.0000
  0
POLYLINE
  8
22
 66
1
 10
0.0000
 20
0.0000
 30
0.0000
 40
0.1270
 41
0.1270
 70
0
  0
VERTEX
  8
22
 10
56.8960
 20
80.2640
 30
0.0000
  0
VERTEX
  8
22
 10
56.8675
 20
80.3012
 30
0.0000
  0
SEQEND
  8
0
  0
POLYLINE
  8
22
 66
1
 10
0.0000
 20
0.0000
 30
0.0000
 40
0.0635
 41
0.0635
 70
0
  0
VERTEX
  8
22
 10
56.8926
 20
80.3205
 30
0.0000
 42
1.0000
  0
VERTEX
  8
22
 10
56.8423
 20
80.2819
 30
0.0000
  0
SEQEND
  8
0
  0
POLYLINE
  8
22
 66
1
 10
0.0000
 20
0.0000
 30
0.0000
 40
0.0635
 41
0.0635
 70
0
  0
VERTEX
  8
22
 10
56.8708
 20
80.2447
 30
0.0000
 42
1.0000
  0
VERTEX
  8
22
 10
56.9212
 20
80.2833
 30
0.0000
  0
SEQEND
  8
0
  0
POLYLINE
  8
22
 66
1
 10
0.0000
 20
0.0000
 30
0.0000
 40
0.1270
 41
0.1270
 70
0
  0
VERTEX
  8
22
 10
56.8675
 20
80.3012
 30
0.0000
  0
VERTEX
  8
22
 10
56.8495
 20
80.3445
 30
0.0000
  0
SEQEND
  8
0
  0
POLYLINE
  8
22
 66
1
 10
0.0000
 20
0.0000
 30
0.0000
 40
0.0635
 41
0.0635
 70
0
  0
VERTEX
  8
22
 10
56.8788
 20
80.3567
 30
0.0000
 42
1.0000
  0
VERTEX
  8
22
 10
56.8202
 20
80.3324
 30
0.0000
  0
SEQEND
  8
0
  0
POLYLINE
  8
22
 66
1
 10
0.0000
 20
0.0000
 30
0.0000
 40
0.0635
 41
0.0635
 70
0
  0
VERTEX
  8
22
 10
56.8381
 20
80.2890
 30
0.0000
 42
1.0000
  0
VERTEX
  8
22
 10
56.8968
 20
80.3133
 30
0.0000
  0
SEQEND
  8
0
  0
POLYLINE
  8
22
 66
1
 10
0.0000
 20
0.0000
 30
0.0000
 40
0.1270
 41
0.1270
 70
0
  0
VERTEX
  8
22
 10
56.8495
 20
80.3445
 30
0.0000
  0
VERTEX
  8
22
 10
56.8434
 20
80.3910
 30
0.0000
  0
SEQEND
  8
0
  0
POLYLINE
  8
22
 66
1
 10
0.0000
 20
0.0000
 30
0.0000
 40
0.0635
 41
0.0635
 70
0
  0
VERTEX
  8
22
 10
56.8749
 20
80.3951
 30
0.0000
 42
1.0000
  0
VERTEX
  8
22
 10
56.8119
 20
80.3869
 30
0.0000
  0
SEQEND
  8
0
  0
POLYLINE
  8
22
 66
1
 10
0.0000
 20
0.0000
 30
0.0000
 40
0.0635
 41
0.0635
 70
0
  0
VERTEX
  8
22
 10
56.8180
 20
80.3404
 30
0.0000
 42
1.0000
  0
VERTEX
  8
22
 10
56.8810
 20
80.3487
 30
0.0000
  0
SEQEND
  8
0
  0
POLYLINE
  8
22
 66
1
 10
0.0000
 20
0.0000
 30
0.0000
 40
0.1270
 41
0.1270
 70
0
  0
VERTEX
  8
22
 10
56.8434
 20
80.3910
 30
0.0000
  0
VERTEX
  8
22
 10
56.8495
 20
80.4375
 30
0.0000
  0
SEQEND
  8
0
  0
POLYLINE
  8
22
 66
1
 10
0.0000
 20
0.0000
 30
0.0000
 40
0.0635
 41
0.0635
 70
0
  0
VERTEX
  8
22
 10
56.8810
 20
80.4333
 30
0.0000
 42
1.0000
  0
VERTEX
  8
22
 10
56.8180
 20
80.4416
 30
0.0000
  0
SEQEND
  8
0
  0
POLYLINE
  8
22
 66
1
 10
0.0000
 20
0.0000
 30
0.0000
 40
0.0635
 41
0.0635
 70
0
  0
VERTEX
  8
22
 10
56.8119
 20
80.3951
 30
0.0000
 42
1.0000
  0
VERTEX
  8
22
 10
56.8749
 20
80.3869
 30
0.0000
  0
SEQEND
  8
0
  0
POLYLINE
  8
22
 66
1
 10
0.0000
 20
0.0000
 30
0.0000
 40
0.1270
 41
0.1270
 70
0
  0
VERTEX
  8
22
 10
56.8495
 20
80.4375
 30
0.0000
  0
VERTEX
  8
22
 10
56.8675
 20
80.4808
 30
0.0000
  0
SEQEND
  8
0
  0
POLYLINE
  8
22
 66
1
 10
0.0000
 20
0.0000
 30
0.0000
 40
0.0635
 41
0.0635
 70
0
  0
VERTEX
  8
22
 10
56.8968
 20
80.4687
 30
0.0000
 42
1.0000
  0
VERTEX
  8
22
 10
56.8381
 20
80.4930
 30
0.0000
  0
SEQEND
  8
0
  0
POLYLINE
  8
22
 66
1
 10
0.0000
 20
0.0000
 30
0.0000
 40
0.0635
 41
0.0635
 70
0
  0
VERTEX
  8
22
 10
56.8202
 20
80.4496
 30
0.0000
 42
1.0000
  0
VERTEX
  8
22
 10
56.8788
 20
80.4253
 30
0.0000
  0
SEQEND
  8
0
  0
POLYLINE
  8
22
 66
1
 10
0.0000
 20
0.0000
 30
0.0000
 40
0.1270
 41
0.1270
 70
0
  0
VERTEX
  8
22
 10
56.8675
 20
80.4808
 30
0.0000
  0
VERTEX
  8
22
 10
56.8960
 20
80.5180
 30
0.0000
  0
SEQEND
  8
0
  0
POLYLINE
  8
22
 66
1
 10
0.0000
 20
0.0000
 30
0.0000
 40
0.0635
 41
0.0635
 70
0
  0
VERTEX
  8
22
 10
56.9212
 20
80.4987
 30
0.0000
 42
1.0000
  0
VERTEX
  8
22
 10
56.8708
 20
80.5373
 30
0.0000
  0
SEQEND
  8
0
  0
POLYLINE
  8
22
 66
1
 10
0.0000
 20
0.0000
 30
0.0000
 40
0.0635
 41
0.0635
 70
0
  0
VERTEX
  8
22
 10
56.8423
 20
80.5001
 30
0.0000
 42
1.0000
  0
VERTEX
  8
22
 10
56.8926
 20
80.4615
 30
0.0000
  0
SEQEND
  8
0
  0
POLYLINE
  8
22
 66
1
 10
0.0000
 20
0.0000
 30
0.0000
 40
0.1270
 41
0.1270
 70
0
  0
VERTEX
  8
22
 10
56.8960
 20
80.5180
 30
0.0000
  0
VERTEX
  8
22
 10
56.9332
 20
80.5465
 30
0.0000
  0
SEQEND
  8
0
  0
POLYLINE
  8
22
 66
1
 10
0.0000
 20
0.0000
 30
0.0000
 40
0.0635
 41
0.0635
 70
0
  0
VERTEX
  8
22
 10
56.9525
 20
80.5214
 30
0.0000
 42
1.0000
  0
VERTEX
  8
22
 10
56.9139
 20
80.5717
 30
0.0000
  0
SEQEND
  8
0
  0
POLYLINE
  8
22
 66
1
 10
0.0000
 20
0.0000
 30
0.0000
 40
0.0635
 41
0.0635
 70
0
  0
VERTEX
  8
22
 10
56.8767
 20
80.5432
 30
0.0000
 42
1.0000
  0
VERTEX
  8
22
 10
56.9153
 20
80.4928
 30
0.0000
  0
SEQEND
  8
0
  0
POLYLINE
  8
22
 66
1
 10
0.0000
 20
0.0000
 30
0.0000
 40
0.1270
 41
0.1270
 70
0
  0
VERTEX
  8
22
 10
56.9332
 20
80.5465
 30
0.0000
  0
VERTEX
  8
22
 10
56.9765
 20
80.5645
 30
0.0000
  0
SEQEND
  8
0
  0
POLYLINE
  8
22
 66
1
 10
0.0000
 20
0.0000
 30
0.0000
 40
0.0635
 41
0.0635
 70
0
  0
VERTEX
  8
22
 10
56.9887
 20
80.5352
 30
0.0000
 42
1.0000
  0
VERTEX
  8
22
 10
56.9644
 20
80.5938
 30
0.0000
  0
SEQEND
  8
0
  0
POLYLINE
  8
22
 66
1
 10
0.0000
 20
0.0000
 30
0.0000
 40
0.0635
 41
0.0635
 70
0
  0
VERTEX
  8
22
 10
56.9210
 20
80.5759
 30
0.0000
 42
1.0000
  0
VERTEX
  8
22
 10
56.9453
 20
80.5172
 30
0.0000
  0
SEQEND
  8
0
  0
POLYLINE
  8
22
 66
1
 10
0.0000
 20
0.0000
 30
0.0000
 40
0.1270
 41
0.1270
 70
0
  0
VERTEX
  8
22
 10
56.9765
 20
80.5645
 30
0.0000
  0
VERTEX
  8
22
 10
57.0230
 20
80.5706
 30
0.0000
  0
SEQEND
  8
0
  0
POLYLINE
  8
22
 66
1
 10
0.0000
 20
0.0000
 30
0.0000
 40
0.0635
 41
0.0635
 70
0
  0
VERTEX
  8
22
 10
57.0271
 20
80.5391
 30
0.0000
 42
1.0000
  0
VERTEX
  8
22
 10
57.0189
 20
80.6021
 30
0.0000
  0
SEQEND
  8
0
  0
POLYLINE
  8
22
 66
1
 10
0.0000
 20
0.0000
 30
0.0000
 40
0.0635
 41
0.0635
 70
0
  0
VERTEX
  8
22
 10
56.9724
 20
80.5960
 30
0.0000
 42
1.0000
  0
VERTEX
  8
22
 10
56.9807
 20
80.5330
 30
0.0000
  0
SEQEND
  8
0
  0
POLYLINE
  8
22
 66
1
 10
0.0000
 20
0.0000
 30
0.0000
 40
0.1270
 41
0.1270
 70
0
  0
VERTEX
  8
22
 10
57.0230
 20
80.5706
 30
0.0000
  0
VERTEX
  8
22
 10
57.0695
 20
80.5645
 30
0.0000
  0
SEQEND
  8
0
  0
POLYLINE
  8
22
 66
1
 10
0.0000
 20
0.0000
 30
0.0000
 40
0.0635
 41
0.0635
 70
0
  0
VERTEX
  8
22
 10
57.0653
 20
80.5330
 30
0.0000
 42
1.0000
  0
VERTEX
  8
22
 10
57.0736
 20
80.5960
 30
0.0000
  0
SEQEND
  8
0
  0
POLYLINE
  8
22
 66
1
 10
0.0000
 20
0.0000
 30
0.0000
 40
0.0635
 41
0.0635
 70
0
  0
VERTEX
  8
22
 10
57.0271
 20
80.6021
 30
0.0000
 42
1.0000
  0
VERTEX
  8
22
 10
57.0189
 20
80.5391
 30
0.0000
  0
SEQEND
  8
0
  0
POLYLINE
  8
22
 66
1
 10
0.0000
 20
0.0000
 30
0.0000
 40
0.1270
 41
0.1270
 70
0
  0
VERTEX
  8
22
 10
57.0695
 20
80.5645
 30
0.0000
  0
VERTEX
  8
22
 10
57.1128
 20
80.5465
 30
0.0000
  0
SEQEND
  8
0
  0
POLYLINE
  8
22
 66
1
 10
0.0000
 20
0.0000
 30
0.0000
 40
0.0635
 41
0.0635
 70
0
  0
VERTEX
  8
22
 10
57.1007
 20
80.5172
 30
0.0000
 42
1.0000
  0
VERTEX
  8
22
 10
57.1250
 20
80.5759
 30
0.0000
  0
SEQEND
  8
0
  0
POLYLINE
  8
22
 66
1
 10
0.0000
 20
0.0000
 30
0.0000
 40
0.0635
 41
0.0635
 70
0
  0
VERTEX
  8
22
 10
57.0816
 20
80.5938
 30
0.0000
 42
1.0000
  0
VERTEX
  8
22
 10
57.0573
 20
80.5352
 30
0.0000
  0
SEQEND
  8
0
  0
POLYLINE
  8
22
 66
1
 10
0.0000
 20
0.0000
 30
0.0000
 40
0.1270
 41
0.1270
 70
0
  0
VERTEX
  8
22
 10
57.1128
 20
80.5465
 30
0.0000
  0
VERTEX
  8
22
 10
57.1500
 20
80.5180
 30
0.0000
  0
SEQEND
  8
0
  0
POLYLINE
  8
22
 66
1
 10
0.0000
 20
0.0000
 30
0.0000
 40
0.0635
 41
0.0635
 70
0
  0
VERTEX
  8
22
 10
57.1307
 20
80.4928
 30
0.0000
 42
1.0000
  0
VERTEX
  8
22
 10
57.1693
 20
80.5432
 30
0.0000
  0
SEQEND
  8
0
  0
POLYLINE
  8
22
 66
1
 10
0.0000
 20
0.0000
 30
0.0000
 40
0.0635
 41
0.0635
 70
0
  0
VERTEX
  8
22
 10
57.1321
 20
80.5717
 30
0.0000
 42
1.0000
  0
VERTEX
  8
22
 10
57.0935
 20
80.5214
 30
0.0000
  0
SEQEND
  8
0
  0
POLYLINE
  8
22
 66
1
 10
0.0000
 20
0.0000
 30
0.0000
 40
0.1270
 41
0.1270
 70
0
  0
VERTEX
  8
22
 10
57.1500
 20
80.5180
 30
0.0000
  0
VERTEX
  8
22
 10
57.1785
 20
80.4808
 30
0.0000
  0
SEQEND
  8
0
  0
POLYLINE
  8
22
 66
1
 10
0.0000
 20
0.0000
 30
0.0000
 40
0.0635
 41
0.0635
 70
0
  0
VERTEX
  8
22
 10
57.1534
 20
80.4615
 30
0.0000
 42
1.0000
  0
VERTEX
  8
22
 10
57.2037
 20
80.5001
 30
0.0000
  0
SEQEND
  8
0
  0
POLYLINE
  8
22
 66
1
 10
0.0000
 20
0.0000
 30
0.0000
 40
0.0635
 41
0.0635
 70
0
  0
VERTEX
  8
22
 10
57.1752
 20
80.5373
 30
0.0000
 42
1.0000
  0
VERTEX
  8
22
 10
57.1248
 20
80.4987
 30
0.0000
  0
SEQEND
  8
0
  0
POLYLINE
  8
22
 66
1
 10
0.0000
 20
0.0000
 30
0.0000
 40
0.1270
 41
0.1270
 70
0
  0
VERTEX
  8
22
 10
57.1785
 20
80.4808
 30
0.0000
  0
VERTEX
  8
22
 10
57.1965
 20
80.4375
 30
0.0000
  0
SEQEND
  8
0
  0
POLYLINE
  8
22
 66
1
 10
0.0000
 20
0.0000
 30
0.0000
 40
0.0635
 41
0.0635
 70
0
  0
VERTEX
  8
22
 10
57.1672
 20
80.4253
 30
0.0000
 42
1.0000
  0
VERTEX
  8
22
 10
57.2258
 20
80.4496
 30
0.0000
  0
SEQEND
  8
0
  0
POLYLINE
  8
22
 66
1
 10
0.0000
 20
0.0000
 30
0.0000
 40
0.0635
 41
0.0635
 70
0
  0
VERTEX
  8
22
 10
57.2079
 20
80.4930
 30
0.0000
 42
1.0000
  0
VERTEX
  8
22
 10
57.1492
 20
80.4687
 30
0.0000
  0
SEQEND
  8
0
  0
POLYLINE
  8
22
 66
1
 10
0.0000
 20
0.0000
 30
0.0000
 40
0.1270
 41
0.1270
 70
0
  0
VERTEX
  8
22
 10
57.1965
 20
80.4375
 30
0.0000
  0
VERTEX
  8
22
 10
57.2026
 20
80.3910
 30
0.0000
  0
SEQEND
  8
0
  0
POLYLINE
  8
22
 66
1
 10
0.0000
 20
0.0000
 30
0.0000
 40
0.0635
 41
0.0635
 70
0
  0
VERTEX
  8
22
 10
57.1711
 20
80.3869
 30
0.0000
 42
1.0000
  0
VERTEX
  8
22
 10
57.2341
 20
80.3951
 30
0.0000
  0
SEQEND
  8
0
  0
POLYLINE
  8
22
 66
1
 10
0.0000
 20
0.0000
 30
0.0000
 40
0.0635
 41
0.0635
 70
0
  0
VERTEX
  8
22
 10
57.2280
 20
80.4416
 30
0.0000
 42
1.0000
  0
VERTEX
  8
22
 10
57.1650
 20
80.4333
 30
0.0000
  0
SEQEND
  8
0
  0
POLYLINE
  8
22
 66
1
 10
0.0000
 20
0.0000
 30
0.0000
 40
0.1270
 41
0.1270
 70
0
  0
VERTEX
  8
22
 10
57.2026
 20
80.3910
 30
0.0000
  0
VERTEX
  8
22
 10
57.1965
 20
80.3445
 30
0.0000
  0
SEQEND
  8
0
  0
POLYLINE
  8
22
 66
1
 10
0.0000
 20
0.0000
 30
0.0000
 40
0.0635
 41
0.0635
 70
0
  0
VERTEX
  8
22
 10
57.1650
 20
80.3487
 30
0.0000
 42
1.0000
  0
VERTEX
  8
22
 10
57.2280
 20
80.3404
 30
0.0000
  0
SEQEND
  8
0
  0
POLYLINE
  8
22
 66
1
 10
0.0000
 20
0.0000
 30
0.0000
 40
0.0635
 41
0.0635
 70
0
  0
VERTEX
  8
22
 10
57.2341
 20
80.3869
 30
0.0000
 42
1.0000
  0
VERTEX
  8
22
 10
57.1711
 20
80.3951
 30
0.0000
  0
SEQEND
  8
0
  0
POLYLINE
  8
22
 66
1
 10
0.0000
 20
0.0000
 30
0.0000
 40
0.1270
 41
0.1270
 70
0
  0
VERTEX
  8
22
 10
57.1965
 20
80.3445
 30
0.0000
  0
VERTEX
  8
22
 10
57.1785
 20
80.3012
 30
0.0000
  0
SEQEND
  8
0
  0
POLYLINE
  8
22
 66
1
 10
0.0000
 20
0.0000
 30
0.0000
 40
0.0635
 41
0.0635
 70
0
  0
VERTEX
  8
22
 10
57.1492
 20
80.3133
 30
0.0000
 42
1.0000
  0
VERTEX
  8
22
 10
57.2079
 20
80.2890
 30
0.0000
  0
SEQEND
  8
0
  0
POLYLINE
  8
22
 66
1
 10
0.0000
 20
0.0000
 30
0.0000
 40
0.0635
 41
0.0635
 70
0
  0
VERTEX
  8
22
 10
57.2258
 20
80.3324
 30
0.0000
 42
1.0000
  0
VERTEX
  8
22
 10
57.1672
 20
80.3567
 30
0.0000
  0
SEQEND
  8
0
  0
POLYLINE
  8
22
 66
1
 10
0.0000
 20
0.0000
 30
0.0000
 40
0.1270
 41
0.1270
 70
0
  0
VERTEX
  8
22
 10
57.1785
 20
80.3012
 30
0.0000
  0
VERTEX
  8
22
 10
57.1500
 20
80.2640
 30
0.0000
  0
SEQEND
  8
0
  0
POLYLINE
  8
22
 66
1
 10
0.0000
 20
0.0000
 30
0.0000
 40
0.0635
 41
0.0635
 70
0
  0
VERTEX
  8
22
 10
57.1248
 20
80.2833
 30
0.0000
 42
1.0000
  0
VERTEX
  8
22
 10
57.1752
 20
80.2447
 30
0.0000
  0
SEQEND
  8
0
  0
POLYLINE
  8
22
 66
1
 10
0.0000
 20
0.0000
 30
0.0000
 40
0.0635
 41
0.0635
 70
0
  0
VERTEX
  8
22
 10
57.2037
 20
80.2819
 30
0.0000
 42
1.0000
  0
VERTEX
  8
22
 10
57.1534
 20
80.3205
 30
0.0000
  0
SEQEND
  8
0
  0
POLYLINE
  8
22
 66
1
 10
0.0000
 20
0.0000
 30
0.0000
 40
0.1270
 41
0.1270
 70
0
  0
VERTEX
  8
22
 10
57.1500
 20
80.2640
 30
0.0000
  0
VERTEX
  8
22
 10
57.1128
 20
80.2355
 30
0.0000
  0
SEQEND
  8
0
  0
POLYLINE
  8
22
 66
1
 10
0.0000
 20
0.0000
 30
0.0000
 40
0.0635
 41
0.0635
 70
0
  0
VERTEX
  8
22
 10
57.0935
 20
80.2606
 30
0.0000
 42
1.0000
  0
VERTEX
  8
22
 10
57.1321
 20
80.2103
 30
0.0000
  0
SEQEND
  8
0
  0
POLYLINE
  8
22
 66
1
 10
0.0000
 20
0.0000
 30
0.0000
 40
0.0635
 41
0.0635
 70
0
  0
VERTEX
  8
22
 10
57.1693
 20
80.2388
 30
0.0000
 42
1.0000
  0
VERTEX
  8
22
 10
57.1307
 20
80.2892
 30
0.0000
  0
SEQEND
  8
0
  0
POLYLINE
  8
22
 66
1
 10
0.0000
 20
0.0000
 30
0.0000
 40
0.1270
 41
0.1270
 70
0
  0
VERTEX
  8
22
 10
57.1128
 20
80.2355
 30
0.0000
  0
VERTEX
  8
22
 10
57.0695
 20
80.2175
 30
0.0000
  0
SEQEND
  8
0
  0
POLYLINE
  8
22
 66
1
 10
0.0000
 20
0.0000
 30
0.0000
 40
0.0635
 41
0.0635
 70
0
  0
VERTEX
  8
22
 10
57.0573
 20
80.2468
 30
0.0000
 42
1.0000
  0
VERTEX
  8
22
 10
57.0816
 20
80.1882
 30
0.0000
  0
SEQEND
  8
0
  0
POLYLINE
  8
22
 66
1
 10
0.0000
 20
0.0000
 30
0.0000
 40
0.0635
 41
0.0635
 70
0
  0
VERTEX
  8
22
 10
57.1250
 20
80.2061
 30
0.0000
 42
1.0000
  0
VERTEX
  8
22
 10
57.1007
 20
80.2648
 30
0.0000
  0
SEQEND
  8
0
  0
POLYLINE
  8
22
 66
1
 10
0.0000
 20
0.0000
 30
0.0000
 40
0.1270
 41
0.1270
 70
0
  0
VERTEX
  8
22
 10
57.0695
 20
80.2175
 30
0.0000
  0
VERTEX
  8
22
 10
57.0230
 20
80.2114
 30
0.0000
  0
SEQEND
  8
0
  0
POLYLINE
  8
22
 66
1
 10
0.0000
 20
0.0000
 30
0.0000
 40
0.0635
 41
0.0635
 70
0
  0
VERTEX
  8
22
 10
57.0189
 20
80.2429
 30
0.0000
 42
1.0000
  0
VERTEX
  8
22
 10
57.0271
 20
80.1799
 30
0.0000
  0
SEQEND
  8
0
  0
POLYLINE
  8
22
 66
1
 10
0.0000
 20
0.0000
 30
0.0000
 40
0.0635
 41
0.0635
 70
0
  0
VERTEX
  8
22
 10
57.0736
 20
80.1860
 30
0.0000
 42
1.0000
  0
VERTEX
  8
22
 10
57.0653
 20
80.2490
 30
0.0000
  0
SEQEND
  8
0
  0
POLYLINE
  8
22
 66
1
 10
0.0000
 20
0.0000
 30
0.0000
 40
0.1270
 41
0.1270
 70
0
  0
VERTEX
  8
22
 10
57.0230
 20
80.2114
 30
0.0000
  0
VERTEX
  8
22
 10
56.9765
 20
80.2175
 30
0.0000
  0
SEQEND
  8
0
  0
POLYLINE
  8
22
 66
1
 10
0.0000
 20
0.0000
 30
0.0000
 40
0.0635
 41
0.0635
 70
0
  0
VERTEX
  8
22
 10
56.9807
 20
80.2490
 30
0.0000
 42
1.0000
  0
VERTEX
  8
22
 10
56.9724
 20
80.1860
 30
0.0000
  0
SEQEND
  8
0
  0
POLYLINE
  8
22
 66
1
 10
0.0000
 20
0.0000
 30
0.0000
 40
0.0635
 41
0.0635
 70
0
  0
VERTEX
  8
22
 10
57.0189
 20
80.1799
 30
0.0000
 42
1.0000
  0
VERTEX
  8
22
 10
57.0271
 20
80.2429
 30
0.0000
  0
SEQEND
  8
0
  0
POLYLINE
  8
22
 66
1
 10
0.0000
 20
0.0000
 30
0.0000
 40
0.1270
 41
0.1270
 70
0
  0
VERTEX
  8
22
 10
56.9765
 20
80.2175
 30
0.0000
  0
VERTEX
  8
22
 10
56.9332
 20
80.2355
 30
0.0000
  0
SEQEND
  8
0
  0
POLYLINE
  8
22
 66
1
 10
0.0000
 20
0.0000
 30
0.0000
 40
0.0635
 41
0.0635
 70
0
  0
VERTEX
  8
22
 10
56.9453
 20
80.2648
 30
0.0000
 42
1.0000
  0
VERTEX
  8
22
 10
56.9210
 20
80.2061
 30
0.0000
  0
SEQEND
  8
0
  0
POLYLINE
  8
22
 66
1
 10
0.0000
 20
0.0000
 30
0.0000
 40
0.0635
 41
0.0635
 70
0
  0
VERTEX
  8
22
 10
56.9644
 20
80.1882
 30
0.0000
 42
1.0000
  0
VERTEX
  8
22
 10
56.9887
 20
80.2468
 30
0.0000
  0
SEQEND
  8
0
  0
POLYLINE
  8
22
 66
1
 10
0.0000
 20
0.0000
 30
0.0000
 40
0.1270
 41
0.1270
 70
0
  0
VERTEX
  8
22
 10
56.9332
 20
80.2355
 30
0.0000
  0
VERTEX
  8
22
 10
56.8960
 20
80.2640
 30
0.0000
  0
SEQEND
  8
0
  0
POLYLINE
  8
22
 66
1
 10
0.0000
 20
0.0000
 30
0.0000
 40
0.0635
 41
0.0635
 70
0
  0
VERTEX
  8
22
 10
56.9153
 20
80.2892
 30
0.0000
 42
1.0000
  0
VERTEX
  8
22
 10
56.8767
 20
80.2388
 30
0.0000
  0
SEQEND
  8
0
  0
POLYLINE
  8
22
 66
1
 10
0.0000
 20
0.0000
 30
0.0000
 40
0.0635
 41
0.0635
 70
0
  0
VERTEX
  8
22
 10
56.9139
 20
80.2103
 30
0.0000
 42
1.0000
  0
VERTEX
  8
22
 10
56.9525
 20
80.2606
 30
0.0000
  0
SEQEND
  8
0
  0
POLYLINE
  8
22
 66
1
 10
0.0000
 20
0.0000
 30
0.0000
 40
0.1270
 41
0.1270
 70
0
  0
VERTEX
  8
22
 10
57.1500
 20
80.2640
 30
0.0000
  0
VERTEX
  8
22
 10
56.8960
 20
80.2640
 30
0.0000
  0
SEQEND
  8
0
  0
POLYLINE
  8
22
 66
1
 10
0.0000
 20
0.0000
 30
0.0000
 40
0.0635
 41
0.0635
 70
0
  0
VERTEX
  8
22
 10
56.8960
 20
80.2958
 30
0.0000
 42
1.0000
  0
VERTEX
  8
22
 10
56.8960
 20
80.2323
 30
0.0000
  0
SEQEND
  8
0
  0
POLYLINE
  8
22
 66
1
 10
0.0000
 20
0.0000
 30
0.0000
 40
0.0635
 41
0.0635
 70
0
  0
VERTEX
  8
22
 10
57.1500
 20
80.2323
 30
0.0000
 42
1.0000
  0
VERTEX
  8
22
 10
57.1500
 20
80.2958
 30
0.0000
  0
SEQEND
  8
0
  0
POLYLINE
  8
22
 66
1
 10
0.0000
 20
0.0000
 30
0.0000
 40
0.1270
 41
0.1270
 70
0
  0
VERTEX
  8
22
 10
57.2026
 20
80.3910
 30
0.0000
  0
VERTEX
  8
22
 10
56.8434
 20
80.3910
 30
0.0000
  0
SEQEND
  8
0
  0
POLYLINE
  8
22
 66
1
 10
0.0000
 20
0.0000
 30
0.0000
 40
0.0635
 41
0.0635
 70
0
  0
VERTEX
  8
22
 10
56.8434
 20
80.4228
 30
0.0000
 42
1.0000
  0
VERTEX
  8
22
 10
56.8434
 20
80.3593
 30
0.0000
  0
SEQEND
  8
0
  0
POLYLINE
  8
22
 66
1
 10
0.0000
 20
0.0000
 30
0.0000
 40
0.0635
 41
0.0635
 70
0
  0
VERTEX
  8
22
 10
57.2026
 20
80.3593
 30
0.0000
 42
1.0000
  0
VERTEX
  8
22
 10
57.2026
 20
80.4228
 30
0.0000
  0
SEQEND
  8
0
  0
POLYLINE
  8
22
 66
1
 10
0.0000
 20
0.0000
 30
0.0000
 40
0.1270
 41
0.1270
 70
0
  0
VERTEX
  8
22
 10
57.1500
 20
80.5180
 30
0.0000
  0
VERTEX
  8
22
 10
56.8960
 20
80.5180
 30
0.0000
  0
SEQEND
  8
0
  0
POLYLINE
  8
22
 66
1
 10
0.0000
 20
0.0000
 30
0.0000
 40
0.0635
 41
0.0635
 70
0
  0
VERTEX
  8
22
 10
56.8960
 20
80.5498
 30
0.0000
 42
1.0000
  0
VERTEX
  8
22
 10
56.8960
 20
80.4862
 30
0.0000
  0
SEQEND
  8
0
  0
POLYLINE
  8
22
 66
1
 10
0.0000
 20
0.0000
 30
0.0000
 40
0.0635
 41
0.0635
 70
0
  0
VERTEX
  8
22
 10
57.1500
 20
80.4862
 30
0.0000
 42
1.0000
  0
VERTEX
  8
22
 10
57.1500
 20
80.5498
 30
0.0000
  0
SEQEND
  8
0
  0
POLYLINE
  8
22
 66
1
 10
0.0000
 20
0.0000
 30
0.0000
 40
0.2032
 41
0.2032
 70
0
  0
VERTEX
  8
22
 10
52.7180
 20
83.1800
 30
0.0000
  0
VERTEX
  8
22
 10
52.7180
 20
79.3720
 30
0.0000
  0
SEQEND
  8
0
  0
POLYLINE
  8
22
 66
1
 10
0.0000
 20
0.0000
 30
0.0000
 40
0.1016
 41
0.1016
 70
0
  0
VERTEX
  8
22
 10
52.6672
 20
79.3720
 30
0.0000
 42
1.0000
  0
VERTEX
  8
22
 10
52.7688
 20
79.3720
 30
0.0000
  0
SEQEND
  8
0
  0
POLYLINE
  8
22
 66
1
 10
0.0000
 20
0.0000
 30
0.0000
 40
0.1016
 41
0.1016
 70
0
  0
VERTEX
  8
22
 10
52.7688
 20
83.1800
 30
0.0000
 42
1.0000
  0
VERTEX
  8
22
 10
52.6672
 20
83.1800
 30
0.0000
  0
SEQEND
  8
0
  0
POLYLINE
  8
22
 66
1
 10
0.0000
 20
0.0000
 30
0.0000
 40
0.2032
 41
0.2032
 70
0
  0
VERTEX
  8
22
 10
52.7180
 20
79.3800
 30
0.0000
  0
VERTEX
  8
22
 10
57.5180
 20
79.3800
 30
0.0000
  0
SEQEND
  8
0
  0
POLYLINE
  8
22
 66
1
 10
0.0000
 20
0.0000
 30
0.0000
 40
0.1016
 41
0.1016
 70
0
  0
VERTEX
  8
22
 10
57.5180
 20
79.3292
 30
0.0000
 42
1.0000
  0
VERTEX
  8
22
 10
57.5180
 20
79.4308
 30
0.0000
  0
SEQEND
  8
0
  0
POLYLINE
  8
22
 66
1
 10
0.0000
 20
0.0000
 30
0.0000
 40
0.1016
 41
0.1016
 70
0
  0
VERTEX
  8
22
 10
52.7180
 20
79.4308
 30
0.0000
 42
1.0000
  0
VERTEX
  8
22
 10
52.7180
 20
79.3292
 30
0.0000
  0
SEQEND
  8
0
  0
POLYLINE
  8
22
 66
1
 10
0.0000
 20
0.0000
 30
0.0000
 40
0.2032
 41
0.2032
 70
0
  0
VERTEX
  8
22
 10
57.5180
 20
79.3720
 30
0.0000
  0
VERTEX
  8
22
 10
57.5180
 20
83.1800
 30
0.0000
  0
SEQEND
  8
0
  0
POLYLINE
  8
22
 66
1
 10
0.0000
 20
0.0000
 30
0.0000
 40
0.1016
 41
0.1016
 70
0
  0
VERTEX
  8
22
 10
57.5688
 20
83.1800
 30
0.0000
 42
1.0000
  0
VERTEX
  8
22
 10
57.4672
 20
83.1800
 30
0.0000
  0
SEQEND
  8
0
  0
POLYLINE
  8
22
 66
1
 10
0.0000
 20
0.0000
 30
0.0000
 40
0.1016
 41
0.1016
 70
0
  0
VERTEX
  8
22
 10
57.4672
 20
79.3720
 30
0.0000
 42
1.0000
  0
VERTEX
  8
22
 10
57.5688
 20
79.3720
 30
0.0000
  0
SEQEND
  8
0
  0
POLYLINE
  8
22
 66
1
 10
0.0000
 20
0.0000
 30
0.0000
 40
0.2032
 41
0.2032
 70
0
  0
VERTEX
  8
22
 10
57.5180
 20
83.1800
 30
0.0000
  0
VERTEX
  8
22
 10
52.7180
 20
83.1800
 30
0.0000
  0
SEQEND
  8
0
  0
POLYLINE
  8
22
 66
1
 10
0.0000
 20
0.0000
 30
0.0000
 40
0.1016
 41
0.1016
 70
0
  0
VERTEX
  8
22
 10
52.7180
 20
83.2308
 30
0.0000
 42
1.0000
  0
VERTEX
  8
22
 10
52.7180
 20
83.1292
 30
0.0000
  0
SEQEND
  8
0
  0
POLYLINE
  8
22
 66
1
 10
0.0000
 20
0.0000
 30
0.0000
 40
0.1016
 41
0.1016
 70
0
  0
VERTEX
  8
22
 10
57.5180
 20
83.1292
 30
0.0000
 42
1.0000
  0
VERTEX
  8
22
 10
57.5180
 20
83.2308
 30
0.0000
  0
SEQEND
  8
0
  0
POINT
  8
23
 10
27.9400
 20
54.3560
 30
0.0000
  0
POINT
  8
24
 10
40.6400
 20
62.3570
 30
0.0000
  0
POLYLINE
  8
22
 66
1
 10
0.0000
 20
0.0000
 30
0.0000
 40
0.2540
 41
0.2540
 70
0
  0
VERTEX
  8
22
 10
42.6400
 20
64.4320
 30
0.0000
  0
VERTEX
  8
22
 10
38.6400
 20
64.4320
 30
0.0000
  0
SEQEND
  8
0
  0
POLYLINE
  8
22
 66
1
 10
0.0000
 20
0.0000
 30
0.0000
 40
0.1270
 41
0.1270
 70
0
  0
VERTEX
  8
22
 10
38.6400
 20
64.4955
 30
0.0000
 42
1.0000
  0
VERTEX
  8
22
 10
38.6400
 20
64.3685
 30
0.0000
  0
SEQEND
  8
0
  0
POLYLINE
  8
22
 66
1
 10
0.0000
 20
0.0000
 30
0.0000
 40
0.1270
 41
0.1270
 70
0
  0
VERTEX
  8
22
 10
42.6400
 20
64.3685
 30
0.0000
 42
1.0000
  0
VERTEX
  8
22
 10
42.6400
 20
64.4955
 30
0.0000
  0
SEQEND
  8
0
  0
POLYLINE
  8
22
 66
1
 10
0.0000
 20
0.0000
 30
0.0000
 40
0.2540
 41
0.2540
 70
0
  0
VERTEX
  8
22
 10
38.6400
 20
64.4320
 30
0.0000
  0
VERTEX
  8
22
 10
38.6400
 20
60.2820
 30
0.0000
  0
SEQEND
  8
0
  0
POLYLINE
  8
22
 66
1
 10
0.0000
 20
0.0000
 30
0.0000
 40
0.1270
 41
0.1270
 70
0
  0
VERTEX
  8
22
 10
38.5765
 20
60.2820
 30
0.0000
 42
1.0000
  0
VERTEX
  8
22
 10
38.7035
 20
60.2820
 30
0.0000
  0
SEQEND
  8
0
  0
POLYLINE
  8
22
 66
1
 10
0.0000
 20
0.0000
 30
0.0000
 40
0.1270
 41
0.1270
 70
0
  0
VERTEX
  8
22
 10
38.7035
 20
64.4320
 30
0.0000
 42
1.0000
  0
VERTEX
  8
22
 10
38.5765
 20
64.4320
 30
0.0000
  0
SEQEND
  8
0
  0
POLYLINE
  8
22
 66
1
 10
0.0000
 20
0.0000
 30
0.0000
 40
0.2540
 41
0.2540
 70
0
  0
VERTEX
  8
22
 10
38.6400
 20
60.2820
 30
0.0000
  0
VERTEX
  8
22
 10
42.6400
 20
60.2820
 30
0.0000
  0
SEQEND
  8
0
  0
POLYLINE
  8
22
 66
1
 10
0.0000
 20
0.0000
 30
0.0000
 40
0.1270
 41
0.1270
 70
0
  0
VERTEX
  8
22
 10
42.6400
 20
60.2185
 30
0.0000
 42
1.0000
  0
VERTEX
  8
22
 10
42.6400
 20
60.3455
 30
0.0000
  0
SEQEND
  8
0
  0
POLYLINE
  8
22
 66
1
 10
0.0000
 20
0.0000
 30
0.0000
 40
0.1270
 41
0.1270
 70
0
  0
VERTEX
  8
22
 10
38.6400
 20
60.3455
 30
0.0000
 42
1.0000
  0
VERTEX
  8
22
 10
38.6400
 20
60.2185
 30
0.0000
  0
SEQEND
  8
0
  0
POLYLINE
  8
22
 66
1
 10
0.0000
 20
0.0000
 30
0.0000
 40
0.2540
 41
0.2540
 70
0
  0
VERTEX
  8
22
 10
42.6400
 20
60.2820
 30
0.0000
  0
VERTEX
  8
22
 10
42.6400
 20
64.4320
 30
0.0000
  0
SEQEND
  8
0
  0
POLYLINE
  8
22
 66
1
 10
0.0000
 20
0.0000
 30
0.0000
 40
0.1270
 41
0.1270
 70
0
  0
VERTEX
  8
22
 10
42.7035
 20
64.4320
 30
0.0000
 42
1.0000
  0
VERTEX
  8
22
 10
42.5765
 20
64.4320
 30
0.0000
  0
SEQEND
  8
0
  0
POLYLINE
  8
22
 66
1
 10
0.0000
 20
0.0000
 30
0.0000
 40
0.1270
 41
0.1270
 70
0
  0
VERTEX
  8
22
 10
42.5765
 20
60.2820
 30
0.0000
 42
1.0000
  0
VERTEX
  8
22
 10
42.7035
 20
60.2820
 30
0.0000
  0
SEQEND
  8
0
  0
POLYLINE
  8
22
 66
1
 10
0.0000
 20
0.0000
 30
0.0000
 40
0.2540
 41
0.2540
 70
0
  0
VERTEX
  8
22
 10
41.9100
 20
60.7060
 30
0.0000
 42
1.0000
  0
VERTEX
  8
22
 10
41.9100
 20
60.9600
 30
0.0000
 42
1.0000
  0
VERTEX
  8
22
 10
41.9100
 20
60.7060
 30
0.0000
  0
SEQEND
  8
0
  0
POINT
  8
23
 10
10.1600
 20
73.1520
 30
0.0000
  0
POINT
  8
23
 10
35.3060
 20
55.6260
 30
0.0000
  0
POINT
  8
23
 10
36.0680
 20
51.3080
 30
0.0000
  0
POINT
  8
23
 10
33.5280
 20
46.2280
 30
0.0000
  0
POINT
  8
23
 10
40.6400
 20
85.0900
 30
0.0000
  0
POINT
  8
23
 10
40.6400
 20
72.3900
 30
0.0000
  0
POINT
  8
24
 10
17.2720
 20
106.1720
 30
0.0000
  0
POLYLINE
  8
22
 66
1
 10
0.0000
 20
0.0000
 30
0.0000
 40
0.1270
 41
0.1270
 70
0
  0
VERTEX
  8
22
 10
32.5120
 20
90.9320
 30
0.0000
  0
VERTEX
  8
22
 10
32.5120
 20
121.4120
 30
0.0000
  0
SEQEND
  8
0
  0
POLYLINE
  8
22
 66
1
 10
0.0000
 20
0.0000
 30
0.0000
 40
0.0635
 41
0.0635
 70
0
  0
VERTEX
  8
22
 10
32.5438
 20
121.4120
 30
0.0000
 42
1.0000
  0
VERTEX
  8
22
 10
32.4802
 20
121.4120
 30
0.0000
  0
SEQEND
  8
0
  0
POLYLINE
  8
22
 66
1
 10
0.0000
 20
0.0000
 30
0.0000
 40
0.0635
 41
0.0635
 70
0
  0
VERTEX
  8
22
 10
32.4802
 20
90.9320
 30
0.0000
 42
1.0000
  0
VERTEX
  8
22
 10
32.5438
 20
90.9320
 30
0.0000
  0
SEQEND
  8
0
  0
POLYLINE
  8
22
 66
1
 10
0.0000
 20
0.0000
 30
0.0000
 40
0.1270
 41
0.1270
 70
0
  0
VERTEX
  8
22
 10
2.0320
 20
90.9320
 30
0.0000
  0
VERTEX
  8
22
 10
2.0320
 20
121.4120
 30
0.0000
  0
SEQEND
  8
0
  0
POLYLINE
  8
22
 66
1
 10
0.0000
 20
0.0000
 30
0.0000
 40
0.0635
 41
0.0635
 70
0
  0
VERTEX
  8
22
 10
2.0638
 20
121.4120
 30
0.0000
 42
1.0000
  0
VERTEX
  8
22
 10
2.0002
 20
121.4120
 30
0.0000
  0
SEQEND
  8
0
  0
POLYLINE
  8
22
 66
1
 10
0.0000
 20
0.0000
 30
0.0000
 40
0.0635
 41
0.0635
 70
0
  0
VERTEX
  8
22
 10
2.0002
 20
90.9320
 30
0.0000
 42
1.0000
  0
VERTEX
  8
22
 10
2.0638
 20
90.9320
 30
0.0000
  0
SEQEND
  8
0
  0
POLYLINE
  8
22
 66
1
 10
0.0000
 20
0.0000
 30
0.0000
 40
0.1270
 41
0.1270
 70
0
  0
VERTEX
  8
22
 10
32.5120
 20
90.9320
 30
0.0000
  0
VERTEX
  8
22
 10
17.2720
 20
82.0420
 30
0.0000
  0
SEQEND
  8
0
  0
POLYLINE
  8
22
 66
1
 10
0.0000
 20
0.0000
 30
0.0000
 40
0.0635
 41
0.0635
 70
0
  0
VERTEX
  8
22
 10
17.2560
 20
82.0694
 30
0.0000
 42
1.0000
  0
VERTEX
  8
22
 10
17.2880
 20
82.0146
 30
0.0000
  0
SEQEND
  8
0
  0
POLYLINE
  8
22
 66
1
 10
0.0000
 20
0.0000
 30
0.0000
 40
0.0635
 41
0.0635
 70
0
  0
VERTEX
  8
22
 10
32.5280
 20
90.9046
 30
0.0000
 42
1.0000
  0
VERTEX
  8
22
 10
32.4960
 20
90.9594
 30
0.0000
  0
SEQEND
  8
0
  0
POLYLINE
  8
22
 66
1
 10
0.0000
 20
0.0000
 30
0.0000
 40
0.1270
 41
0.1270
 70
0
  0
VERTEX
  8
22
 10
2.0320
 20
90.9320
 30
0.0000
  0
VERTEX
  8
22
 10
17.2720
 20
82.0420
 30
0.0000
  0
SEQEND
  8
0
  0
POLYLINE
  8
22
 66
1
 10
0.0000
 20
0.0000
 30
0.0000
 40
0.0635
 41
0.0635
 70
0
  0
VERTEX
  8
22
 10
17.2560
 20
82.0146
 30
0.0000
 42
1.0000
  0
VERTEX
  8
22
 10
17.2880
 20
82.0694
 30
0.0000
  0
SEQEND
  8
0
  0
POLYLINE
  8
22
 66
1
 10
0.0000
 20
0.0000
 30
0.0000
 40
0.0635
 41
0.0635
 70
0
  0
VERTEX
  8
22
 10
2.0480
 20
90.9594
 30
0.0000
 42
1.0000
  0
VERTEX
  8
22
 10
2.0160
 20
90.9046
 30
0.0000
  0
SEQEND
  8
0
  0
POLYLINE
  8
22
 66
1
 10
0.0000
 20
0.0000
 30
0.0000
 40
0.1270
 41
0.1270
 70
0
  0
VERTEX
  8
22
 10
2.0320
 20
121.4120
 30
0.0000
  0
VERTEX
  8
22
 10
17.2720
 20
130.3020
 30
0.0000
  0
SEQEND
  8
0
  0
POLYLINE
  8
22
 66
1
 10
0.0000
 20
0.0000
 30
0.0000
 40
0.0635
 41
0.0635
 70
0
  0
VERTEX
  8
22
 10
17.2880
 20
130.2746
 30
0.0000
 42
1.0000
  0
VERTEX
  8
22
 10
17.2560
 20
130.3294
 30
0.0000
  0
SEQEND
  8
0
  0
POLYLINE
  8
22
 66
1
 10
0.0000
 20
0.0000
 30
0.0000
 40
0.0635
 41
0.0635
 70
0
  0
VERTEX
  8
22
 10
2.0160
 20
121.4394
 30
0.0000
 42
1.0000
  0
VERTEX
  8
22
 10
2.0480
 20
121.3846
 30
0.0000
  0
SEQEND
  8
0
  0
POLYLINE
  8
22
 66
1
 10
0.0000
 20
0.0000
 30
0.0000
 40
0.1270
 41
0.1270
 70
0
  0
VERTEX
  8
22
 10
32.5120
 20
121.4120
 30
0.0000
  0
VERTEX
  8
22
 10
17.2720
 20
130.3020
 30
0.0000
  0
SEQEND
  8
0
  0
POLYLINE
  8
22
 66
1
 10
0.0000
 20
0.0000
 30
0.0000
 40
0.0635
 41
0.0635
 70
0
  0
VERTEX
  8
22
 10
17.2880
 20
130.3294
 30
0.0000
 42
1.0000
  0
VERTEX
  8
22
 10
17.2560
 20
130.2746
 30
0.0000
  0
SEQEND
  8
0
  0
POLYLINE
  8
22
 66
1
 10
0.0000
 20
0.0000
 30
0.0000
 40
0.0635
 41
0.0635
 70
0
  0
VERTEX
  8
22
 10
32.4960
 20
121.3846
 30
0.0000
 42
1.0000
  0
VERTEX
  8
22
 10
32.5280
 20
121.4394
 30
0.0000
  0
SEQEND
  8
0
  0
POLYLINE
  8
22
 66
1
 10
0.0000
 20
0.0000
 30
0.0000
 40
0.1270
 41
0.1270
 70
0
  0
VERTEX
  8
22
 10
17.2720
 20
83.1220
 30
0.0000
 42
1.0000
  0
VERTEX
  8
22
 10
17.2720
 20
91.1220
 30
0.0000
 42
1.0000
  0
VERTEX
  8
22
 10
17.2720
 20
83.1220
 30
0.0000
  0
SEQEND
  8
0
  0
POLYLINE
  8
22
 66
1
 10
0.0000
 20
0.0000
 30
0.0000
 40
0.1270
 41
0.1270
 70
0
  0
VERTEX
  8
22
 10
17.2720
 20
121.2220
 30
0.0000
 42
1.0000
  0
VERTEX
  8
22
 10
17.2720
 20
129.2220
 30
0.0000
 42
1.0000
  0
VERTEX
  8
22
 10
17.2720
 20
121.2220
 30
0.0000
  0
SEQEND
  8
0
  0
CIRCLE
  8
20
 10
17.2720
 20
87.1220
 30
0.0000
 40
2.0955
  0
CIRCLE
  8
20
 10
17.2720
 20
125.2220
 30
0.0000
 40
2.0955
  0
POINT
  8
24
 10
69.5960
 20
18.7960
 30
0.0000
  0
POLYLINE
  8
22
 66
1
 10
0.0000
 20
0.0000
 30
0.0000
 40
0.1270
 41
0.1270
 70
0
  0
VERTEX
  8
22
 10
93.0783
 20
34.0360
 30
0.0000
  0
VERTEX
  8
22
 10
46.1137
 20
34.0360
 30
0.0000
  0
SEQEND
  8
0
  0
POLYLINE
  8
22
 66
1
 10
0.0000
 20
0.0000
 30
0.0000
 40
0.0635
 41
0.0635
 70
0
  0
VERTEX
  8
22
 10
46.1137
 20
34.0678
 30
0.0000
 42
1.0000
  0
VERTEX
  8
22
 10
46.1137
 20
34.0042
 30
0.0000
  0
SEQEND
  8
0
  0
POLYLINE
  8
22
 66
1
 10
0.0000
 20
0.0000
 30
0.0000
 40
0.0635
 41
0.0635
 70
0
  0
VERTEX
  8
22
 10
93.0783
 20
34.0042
 30
0.0000
 42
1.0000
  0
VERTEX
  8
22
 10
93.0783
 20
34.0678
 30
0.0000
  0
SEQEND
  8
0
  0
POLYLINE
  8
22
 66
1
 10
0.0000
 20
0.0000
 30
0.0000
 40
0.1270
 41
0.1270
 70
0
  0
VERTEX
  8
22
 10
93.0783
 20
3.5560
 30
0.0000
  0
VERTEX
  8
22
 10
46.1137
 20
3.5560
 30
0.0000
  0
SEQEND
  8
0
  0
POLYLINE
  8
22
 66
1
 10
0.0000
 20
0.0000
 30
0.0000
 40
0.0635
 41
0.0635
 70
0
  0
VERTEX
  8
22
 10
46.1137
 20
3.5878
 30
0.0000
 42
1.0000
  0
VERTEX
  8
22
 10
46.1137
 20
3.5242
 30
0.0000
  0
SEQEND
  8
0
  0
POLYLINE
  8
22
 66
1
 10
0.0000
 20
0.0000
 30
0.0000
 40
0.0635
 41
0.0635
 70
0
  0
VERTEX
  8
22
 10
93.0783
 20
3.5242
 30
0.0000
 42
1.0000
  0
VERTEX
  8
22
 10
93.0783
 20
3.5878
 30
0.0000
  0
SEQEND
  8
0
  0
POLYLINE
  8
22
 66
1
 10
0.0000
 20
0.0000
 30
0.0000
 40
0.1270
 41
0.1270
 70
0
  0
VERTEX
  8
22
 10
93.0783
 20
34.0360
 30
0.0000
  0
VERTEX
  8
22
 10
101.9683
 20
18.7960
 30
0.0000
  0
SEQEND
  8
0
  0
POLYLINE
  8
22
 66
1
 10
0.0000
 20
0.0000
 30
0.0000
 40
0.0635
 41
0.0635
 70
0
  0
VERTEX
  8
22
 10
101.9409
 20
18.7800
 30
0.0000
 42
1.0000
  0
VERTEX
  8
22
 10
101.9957
 20
18.8120
 30
0.0000
  0
SEQEND
  8
0
  0
POLYLINE
  8
22
 66
1
 10
0.0000
 20
0.0000
 30
0.0000
 40
0.0635
 41
0.0635
 70
0
  0
VERTEX
  8
22
 10
93.1057
 20
34.0520
 30
0.0000
 42
1.0000
  0
VERTEX
  8
22
 10
93.0509
 20
34.0200
 30
0.0000
  0
SEQEND
  8
0
  0
POLYLINE
  8
22
 66
1
 10
0.0000
 20
0.0000
 30
0.0000
 40
0.1270
 41
0.1270
 70
0
  0
VERTEX
  8
22
 10
93.0783
 20
3.5560
 30
0.0000
  0
VERTEX
  8
22
 10
101.9683
 20
18.7960
 30
0.0000
  0
SEQEND
  8
0
  0
POLYLINE
  8
22
 66
1
 10
0.0000
 20
0.0000
 30
0.0000
 40
0.0635
 41
0.0635
 70
0
  0
VERTEX
  8
22
 10
101.9957
 20
18.7800
 30
0.0000
 42
1.0000
  0
VERTEX
  8
22
 10
101.9409
 20
18.8120
 30
0.0000
  0
SEQEND
  8
0
  0
POLYLINE
  8
22
 66
1
 10
0.0000
 20
0.0000
 30
0.0000
 40
0.0635
 41
0.0635
 70
0
  0
VERTEX
  8
22
 10
93.0509
 20
3.5720
 30
0.0000
 42
1.0000
  0
VERTEX
  8
22
 10
93.1057
 20
3.5400
 30
0.0000
  0
SEQEND
  8
0
  0
POLYLINE
  8
22
 66
1
 10
0.0000
 20
0.0000
 30
0.0000
 40
0.1270
 41
0.1270
 70
0
  0
VERTEX
  8
22
 10
46.1137
 20
3.5560
 30
0.0000
  0
VERTEX
  8
22
 10
37.2237
 20
18.7960
 30
0.0000
  0
SEQEND
  8
0
  0
POLYLINE
  8
22
 66
1
 10
0.0000
 20
0.0000
 30
0.0000
 40
0.0635
 41
0.0635
 70
0
  0
VERTEX
  8
22
 10
37.2511
 20
18.8120
 30
0.0000
 42
1.0000
  0
VERTEX
  8
22
 10
37.1963
 20
18.7800
 30
0.0000
  0
SEQEND
  8
0
  0
POLYLINE
  8
22
 66
1
 10
0.0000
 20
0.0000
 30
0.0000
 40
0.0635
 41
0.0635
 70
0
  0
VERTEX
  8
22
 10
46.0863
 20
3.5400
 30
0.0000
 42
1.0000
  0
VERTEX
  8
22
 10
46.1411
 20
3.5720
 30
0.0000
  0
SEQEND
  8
0
  0
POLYLINE
  8
22
 66
1
 10
0.0000
 20
0.0000
 30
0.0000
 40
0.1270
 41
0.1270
 70
0
  0
VERTEX
  8
22
 10
46.1137
 20
34.0360
 30
0.0000
  0
VERTEX
  8
22
 10
37.2237
 20
18.7960
 30
0.0000
  0
SEQEND
  8
0
  0
POLYLINE
  8
22
 66
1
 10
0.0000
 20
0.0000
 30
0.0000
 40
0.0635
 41
0.0635
 70
0
  0
VERTEX
  8
22
 10
37.1963
 20
18.8120
 30
0.0000
 42
1.0000
  0
VERTEX
  8
22
 10
37.2511
 20
18.7800
 30
0.0000
  0
SEQEND
  8
0
  0
POLYLINE
  8
22
 66
1
 10
0.0000
 20
0.0000
 30
0.0000
 40
0.0635
 41
0.0635
 70
0
  0
VERTEX
  8
22
 10
46.1411
 20
34.0200
 30
0.0000
 42
1.0000
  0
VERTEX
  8
22
 10
46.0863
 20
34.0520
 30
0.0000
  0
SEQEND
  8
0
  0
POLYLINE
  8
22
 66
1
 10
0.0000
 20
0.0000
 30
0.0000
 40
0.1270
 41
0.1270
 70
0
  0
VERTEX
  8
22
 10
96.8883
 20
14.7960
 30
0.0000
 42
1.0000
  0
VERTEX
  8
22
 10
96.8883
 20
22.7960
 30
0.0000
 42
1.0000
  0
VERTEX
  8
22
 10
96.8883
 20
14.7960
 30
0.0000
  0
SEQEND
  8
0
  0
POLYLINE
  8
22
 66
1
 10
0.0000
 20
0.0000
 30
0.0000
 40
0.1270
 41
0.1270
 70
0
  0
VERTEX
  8
22
 10
42.3037
 20
14.7960
 30
0.0000
 42
1.0000
  0
VERTEX
  8
22
 10
42.3037
 20
22.7960
 30
0.0000
 42
1.0000
  0
VERTEX
  8
22
 10
42.3037
 20
14.7960
 30
0.0000
  0
SEQEND
  8
0
  0
CIRCLE
  8
20
 10
96.8883
 20
18.7960
 30
0.0000
 40
2.0955
  0
CIRCLE
  8
20
 10
42.3037
 20
18.7960
 30
0.0000
 40
2.0955
  0
POINT
  8
24
 10
69.0880
 20
122.9360
 30
0.0000
  0
POLYLINE
  8
22
 66
1
 10
0.0000
 20
0.0000
 30
0.0000
 40
0.1270
 41
0.1270
 70
0
  0
VERTEX
  8
22
 10
45.6057
 20
107.6960
 30
0.0000
  0
VERTEX
  8
22
 10
92.5703
 20
107.6960
 30
0.0000
  0
SEQEND
  8
0
  0
POLYLINE
  8
22
 66
1
 10
0.0000
 20
0.0000
 30
0.0000
 40
0.0635
 41
0.0635
 70
0
  0
VERTEX
  8
22
 10
92.5703
 20
107.6643
 30
0.0000
 42
1.0000
  0
VERTEX
  8
22
 10
92.5703
 20
107.7278
 30
0.0000
  0
SEQEND
  8
0
  0
POLYLINE
  8
22
 66
1
 10
0.0000
 20
0.0000
 30
0.0000
 40
0.0635
 41
0.0635
 70
0
  0
VERTEX
  8
22
 10
45.6057
 20
107.7278
 30
0.0000
 42
1.0000
  0
VERTEX
  8
22
 10
45.6057
 20
107.6643
 30
0.0000
  0
SEQEND
  8
0
  0
POLYLINE
  8
22
 66
1
 10
0.0000
 20
0.0000
 30
0.0000
 40
0.1270
 41
0.1270
 70
0
  0
VERTEX
  8
22
 10
45.6057
 20
138.1760
 30
0.0000
  0
VERTEX
  8
22
 10
92.5703
 20
138.1760
 30
0.0000
  0
SEQEND
  8
0
  0
POLYLINE
  8
22
 66
1
 10
0.0000
 20
0.0000
 30
0.0000
 40
0.0635
 41
0.0635
 70
0
  0
VERTEX
  8
22
 10
92.5703
 20
138.1443
 30
0.0000
 42
1.0000
  0
VERTEX
  8
22
 10
92.5703
 20
138.2078
 30
0.0000
  0
SEQEND
  8
0
  0
POLYLINE
  8
22
 66
1
 10
0.0000
 20
0.0000
 30
0.0000
 40
0.0635
 41
0.0635
 70
0
  0
VERTEX
  8
22
 10
45.6057
 20
138.2078
 30
0.0000
 42
1.0000
  0
VERTEX
  8
22
 10
45.6057
 20
138.1443
 30
0.0000
  0
SEQEND
  8
0
  0
POLYLINE
  8
22
 66
1
 10
0.0000
 20
0.0000
 30
0.0000
 40
0.1270
 41
0.1270
 70
0
  0
VERTEX
  8
22
 10
45.6057
 20
107.6960
 30
0.0000
  0
VERTEX
  8
22
 10
36.7157
 20
122.9360
 30
0.0000
  0
SEQEND
  8
0
  0
POLYLINE
  8
22
 66
1
 10
0.0000
 20
0.0000
 30
0.0000
 40
0.0635
 41
0.0635
 70
0
  0
VERTEX
  8
22
 10
36.7431
 20
122.9520
 30
0.0000
 42
1.0000
  0
VERTEX
  8
22
 10
36.6883
 20
122.9200
 30
0.0000
  0
SEQEND
  8
0
  0
POLYLINE
  8
22
 66
1
 10
0.0000
 20
0.0000
 30
0.0000
 40
0.0635
 41
0.0635
 70
0
  0
VERTEX
  8
22
 10
45.5783
 20
107.6800
 30
0.0000
 42
1.0000
  0
VERTEX
  8
22
 10
45.6331
 20
107.7120
 30
0.0000
  0
SEQEND
  8
0
  0
POLYLINE
  8
22
 66
1
 10
0.0000
 20
0.0000
 30
0.0000
 40
0.1270
 41
0.1270
 70
0
  0
VERTEX
  8
22
 10
45.6057
 20
138.1760
 30
0.0000
  0
VERTEX
  8
22
 10
36.7157
 20
122.9360
 30
0.0000
  0
SEQEND
  8
0
  0
POLYLINE
  8
22
 66
1
 10
0.0000
 20
0.0000
 30
0.0000
 40
0.0635
 41
0.0635
 70
0
  0
VERTEX
  8
22
 10
36.6883
 20
122.9520
 30
0.0000
 42
1.0000
  0
VERTEX
  8
22
 10
36.7431
 20
122.9200
 30
0.0000
  0
SEQEND
  8
0
  0
POLYLINE
  8
22
 66
1
 10
0.0000
 20
0.0000
 30
0.0000
 40
0.0635
 41
0.0635
 70
0
  0
VERTEX
  8
22
 10
45.6331
 20
138.1600
 30
0.0000
 42
1.0000
  0
VERTEX
  8
22
 10
45.5783
 20
138.1920
 30
0.0000
  0
SEQEND
  8
0
  0
POLYLINE
  8
22
 66
1
 10
0.0000
 20
0.0000
 30
0.0000
 40
0.1270
 41
0.1270
 70
0
  0
VERTEX
  8
22
 10
92.5703
 20
138.1760
 30
0.0000
  0
VERTEX
  8
22
 10
101.4603
 20
122.9360
 30
0.0000
  0
SEQEND
  8
0
  0
POLYLINE
  8
22
 66
1
 10
0.0000
 20
0.0000
 30
0.0000
 40
0.0635
 41
0.0635
 70
0
  0
VERTEX
  8
22
 10
101.4329
 20
122.9200
 30
0.0000
 42
1.0000
  0
VERTEX
  8
22
 10
101.4877
 20
122.9520
 30
0.0000
  0
SEQEND
  8
0
  0
POLYLINE
  8
22
 66
1
 10
0.0000
 20
0.0000
 30
0.0000
 40
0.0635
 41
0.0635
 70
0
  0
VERTEX
  8
22
 10
92.5977
 20
138.1920
 30
0.0000
 42
1.0000
  0
VERTEX
  8
22
 10
92.5429
 20
138.1600
 30
0.0000
  0
SEQEND
  8
0
  0
POLYLINE
  8
22
 66
1
 10
0.0000
 20
0.0000
 30
0.0000
 40
0.1270
 41
0.1270
 70
0
  0
VERTEX
  8
22
 10
92.5703
 20
107.6960
 30
0.0000
  0
VERTEX
  8
22
 10
101.4603
 20
122.9360
 30
0.0000
  0
SEQEND
  8
0
  0
POLYLINE
  8
22
 66
1
 10
0.0000
 20
0.0000
 30
0.0000
 40
0.0635
 41
0.0635
 70
0
  0
VERTEX
  8
22
 10
101.4877
 20
122.9200
 30
0.0000
 42
1.0000
  0
VERTEX
  8
22
 10
101.4329
 20
122.9520
 30
0.0000
  0
SEQEND
  8
0
  0
POLYLINE
  8
22
 66
1
 10
0.0000
 20
0.0000
 30
0.0000
 40
0.0635
 41
0.0635
 70
0
  0
VERTEX
  8
22
 10
92.5429
 20
107.7120
 30
0.0000
 42
1.0000
  0
VERTEX
  8
22
 10
92.5977
 20
107.6800
 30
0.0000
  0
SEQEND
  8
0
  0
POLYLINE
  8
22
 66
1
 10
0.0000
 20
0.0000
 30
0.0000
 40
0.1270
 41
0.1270
 70
0
  0
VERTEX
  8
22
 10
41.7957
 20
118.9360
 30
0.0000
 42
1.0000
  0
VERTEX
  8
22
 10
41.7957
 20
126.9360
 30
0.0000
 42
1.0000
  0
VERTEX
  8
22
 10
41.7957
 20
118.9360
 30
0.0000
  0
SEQEND
  8
0
  0
POLYLINE
  8
22
 66
1
 10
0.0000
 20
0.0000
 30
0.0000
 40
0.1270
 41
0.1270
 70
0
  0
VERTEX
  8
22
 10
96.3803
 20
118.9360
 30
0.0000
 42
1.0000
  0
VERTEX
  8
22
 10
96.3803
 20
126.9360
 30
0.0000
 42
1.0000
  0
VERTEX
  8
22
 10
96.3803
 20
118.9360
 30
0.0000
  0
SEQEND
  8
0
  0
CIRCLE
  8
20
 10
41.7957
 20
122.9360
 30
0.0000
 40
2.0955
  0
CIRCLE
  8
20
 10
96.3803
 20
122.9360
 30
0.0000
 40
2.0955
  0
POINT
  8
24
 10
17.7800
 20
34.5440
 30
0.0000
  0
POLYLINE
  8
22
 66
1
 10
0.0000
 20
0.0000
 30
0.0000
 40
0.1270
 41
0.1270
 70
0
  0
VERTEX
  8
22
 10
2.5400
 20
58.0263
 30
0.0000
  0
VERTEX
  8
22
 10
2.5400
 20
11.0617
 30
0.0000
  0
SEQEND
  8
0
  0
POLYLINE
  8
22
 66
1
 10
0.0000
 20
0.0000
 30
0.0000
 40
0.0635
 41
0.0635
 70
0
  0
VERTEX
  8
22
 10
2.5082
 20
11.0617
 30
0.0000
 42
1.0000
  0
VERTEX
  8
22
 10
2.5718
 20
11.0617
 30
0.0000
  0
SEQEND
  8
0
  0
POLYLINE
  8
22
 66
1
 10
0.0000
 20
0.0000
 30
0.0000
 40
0.0635
 41
0.0635
 70
0
  0
VERTEX
  8
22
 10
2.5718
 20
58.0263
 30
0.0000
 42
1.0000
  0
VERTEX
  8
22
 10
2.5082
 20
58.0263
 30
0.0000
  0
SEQEND
  8
0
  0
POLYLINE
  8
22
 66
1
 10
0.0000
 20
0.0000
 30
0.0000
 40
0.1270
 41
0.1270
 70
0
  0
VERTEX
  8
22
 10
33.0200
 20
58.0263
 30
0.0000
  0
VERTEX
  8
22
 10
33.0200
 20
11.0617
 30
0.0000
  0
SEQEND
  8
0
  0
POLYLINE
  8
22
 66
1
 10
0.0000
 20
0.0000
 30
0.0000
 40
0.0635
 41
0.0635
 70
0
  0
VERTEX
  8
22
 10
32.9883
 20
11.0617
 30
0.0000
 42
1.0000
  0
VERTEX
  8
22
 10
33.0518
 20
11.0617
 30
0.0000
  0
SEQEND
  8
0
  0
POLYLINE
  8
22
 66
1
 10
0.0000
 20
0.0000
 30
0.0000
 40
0.0635
 41
0.0635
 70
0
  0
VERTEX
  8
22
 10
33.0518
 20
58.0263
 30
0.0000
 42
1.0000
  0
VERTEX
  8
22
 10
32.9883
 20
58.0263
 30
0.0000
  0
SEQEND
  8
0
  0
POLYLINE
  8
22
 66
1
 10
0.0000
 20
0.0000
 30
0.0000
 40
0.1270
 41
0.1270
 70
0
  0
VERTEX
  8
22
 10
2.5400
 20
58.0263
 30
0.0000
  0
VERTEX
  8
22
 10
17.7800
 20
66.9163
 30
0.0000
  0
SEQEND
  8
0
  0
POLYLINE
  8
22
 66
1
 10
0.0000
 20
0.0000
 30
0.0000
 40
0.0635
 41
0.0635
 70
0
  0
VERTEX
  8
22
 10
17.7960
 20
66.8889
 30
0.0000
 42
1.0000
  0
VERTEX
  8
22
 10
17.7640
 20
66.9437
 30
0.0000
  0
SEQEND
  8
0
  0
POLYLINE
  8
22
 66
1
 10
0.0000
 20
0.0000
 30
0.0000
 40
0.0635
 41
0.0635
 70
0
  0
VERTEX
  8
22
 10
2.5240
 20
58.0537
 30
0.0000
 42
1.0000
  0
VERTEX
  8
22
 10
2.5560
 20
57.9989
 30
0.0000
  0
SEQEND
  8
0
  0
POLYLINE
  8
22
 66
1
 10
0.0000
 20
0.0000
 30
0.0000
 40
0.1270
 41
0.1270
 70
0
  0
VERTEX
  8
22
 10
33.0200
 20
58.0263
 30
0.0000
  0
VERTEX
  8
22
 10
17.7800
 20
66.9163
 30
0.0000
  0
SEQEND
  8
0
  0
POLYLINE
  8
22
 66
1
 10
0.0000
 20
0.0000
 30
0.0000
 40
0.0635
 41
0.0635
 70
0
  0
VERTEX
  8
22
 10
17.7960
 20
66.9437
 30
0.0000
 42
1.0000
  0
VERTEX
  8
22
 10
17.7640
 20
66.8889
 30
0.0000
  0
SEQEND
  8
0
  0
POLYLINE
  8
22
 66
1
 10
0.0000
 20
0.0000
 30
0.0000
 40
0.0635
 41
0.0635
 70
0
  0
VERTEX
  8
22
 10
33.0040
 20
57.9989
 30
0.0000
 42
1.0000
  0
VERTEX
  8
22
 10
33.0360
 20
58.0537
 30
0.0000
  0
SEQEND
  8
0
  0
POLYLINE
  8
22
 66
1
 10
0.0000
 20
0.0000
 30
0.0000
 40
0.1270
 41
0.1270
 70
0
  0
VERTEX
  8
22
 10
33.0200
 20
11.0617
 30
0.0000
  0
VERTEX
  8
22
 10
17.7800
 20
2.1717
 30
0.0000
  0
SEQEND
  8
0
  0
POLYLINE
  8
22
 66
1
 10
0.0000
 20
0.0000
 30
0.0000
 40
0.0635
 41
0.0635
 70
0
  0
VERTEX
  8
22
 10
17.7640
 20
2.1991
 30
0.0000
 42
1.0000
  0
VERTEX
  8
22
 10
17.7960
 20
2.1443
 30
0.0000
  0
SEQEND
  8
0
  0
POLYLINE
  8
22
 66
1
 10
0.0000
 20
0.0000
 30
0.0000
 40
0.0635
 41
0.0635
 70
0
  0
VERTEX
  8
22
 10
33.0360
 20
11.0343
 30
0.0000
 42
1.0000
  0
VERTEX
  8
22
 10
33.0040
 20
11.0891
 30
0.0000
  0
SEQEND
  8
0
  0
POLYLINE
  8
22
 66
1
 10
0.0000
 20
0.0000
 30
0.0000
 40
0.1270
 41
0.1270
 70
0
  0
VERTEX
  8
22
 10
2.5400
 20
11.0617
 30
0.0000
  0
VERTEX
  8
22
 10
17.7800
 20
2.1717
 30
0.0000
  0
SEQEND
  8
0
  0
POLYLINE
  8
22
 66
1
 10
0.0000
 20
0.0000
 30
0.0000
 40
0.0635
 41
0.0635
 70
0
  0
VERTEX
  8
22
 10
17.7640
 20
2.1443
 30
0.0000
 42
1.0000
  0
VERTEX
  8
22
 10
17.7960
 20
2.1991
 30
0.0000
  0
SEQEND
  8
0
  0
POLYLINE
  8
22
 66
1
 10
0.0000
 20
0.0000
 30
0.0000
 40
0.0635
 41
0.0635
 70
0
  0
VERTEX
  8
22
 10
2.5560
 20
11.0891
 30
0.0000
 42
1.0000
  0
VERTEX
  8
22
 10
2.5240
 20
11.0343
 30
0.0000
  0
SEQEND
  8
0
  0
POLYLINE
  8
22
 66
1
 10
0.0000
 20
0.0000
 30
0.0000
 40
0.1270
 41
0.1270
 70
0
  0
VERTEX
  8
22
 10
17.7800
 20
57.8363
 30
0.0000
 42
1.0000
  0
VERTEX
  8
22
 10
17.7800
 20
65.8363
 30
0.0000
 42
1.0000
  0
VERTEX
  8
22
 10
17.7800
 20
57.8363
 30
0.0000
  0
SEQEND
  8
0
  0
POLYLINE
  8
22
 66
1
 10
0.0000
 20
0.0000
 30
0.0000
 40
0.1270
 41
0.1270
 70
0
  0
VERTEX
  8
22
 10
17.7800
 20
3.2517
 30
0.0000
 42
1.0000
  0
VERTEX
  8
22
 10
17.7800
 20
11.2517
 30
0.0000
 42
1.0000
  0
VERTEX
  8
22
 10
17.7800
 20
3.2517
 30
0.0000
  0
SEQEND
  8
0
  0
CIRCLE
  8
20
 10
17.7800
 20
61.8363
 30
0.0000
 40
2.0955
  0
CIRCLE
  8
20
 10
17.7800
 20
7.2517
 30
0.0000
 40
2.0955
  0
LINE
  8
19
 10
37.8900
 20
87.1900
 30
0.0000
 11
37.8460
 21
87.1900
 31
0.0000
  0
ENDSEC
  0
EOF
